VotoSerifGX-ExtendedLightText.ufo
<glyph name="exclam" format="2">
  <advance width="328"/>
  <unicode hex="0021"/>
  <outline>
    <contour>
      <point x="148" y="167" type="line"/>
      <point x="174" y="167" type="line"/>
      <point x="174" y="714" type="line"/>
      <point x="144" y="714" type="line"/>
    </contour>
    <contour>
      <point x="163" y="-5" type="curve" smooth="yes"/>
      <point x="181" y="-5"/>
      <point x="193" y="3"/>
      <point x="193" y="36" type="curve" smooth="yes"/>
      <point x="193" y="66"/>
      <point x="181" y="72"/>
      <point x="163" y="72" type="curve" smooth="yes"/>
      <point x="150" y="72"/>
      <point x="135" y="66"/>
      <point x="135" y="36" type="curve" smooth="yes"/>
      <point x="135" y="3"/>
      <point x="150" y="-5"/>
    </contour>
  </outline>
</glyph>
<glyph name="dollar" format="2">
  <advance width="693"/>
  <unicode hex="0024"/>
  <outline>
    <contour>
      <point x="334" y="-79" type="line"/>
      <point x="362" y="-79" type="line"/>
      <point x="362" y="37" type="line"/>
      <point x="482" y="29"/>
      <point x="578" y="91"/>
      <point x="578" y="193" type="curve" smooth="yes"/>
      <point x="578" y="289"/>
      <point x="516" y="343"/>
      <point x="362" y="383" type="curve"/>
      <point x="362" y="666" type="line"/>
      <point x="499" y="662"/>
      <point x="542" y="624"/>
      <point x="542" y="521" type="curve"/>
      <point x="557" y="521"/>
      <point x="563" y="533"/>
      <point x="563" y="567" type="curve" smooth="yes"/>
      <point x="563" y="614"/>
      <point x="509" y="690"/>
      <point x="362" y="691" type="curve"/>
      <point x="362" y="760" type="line"/>
      <point x="334" y="760" type="line"/>
      <point x="334" y="693" type="line"/>
      <point x="215" y="688"/>
      <point x="148" y="628"/>
      <point x="148" y="545" type="curve" smooth="yes"/>
      <point x="148" y="456"/>
      <point x="215" y="411"/>
      <point x="334" y="368" type="curve"/>
      <point x="334" y="61" type="line"/>
      <point x="129" y="61"/>
      <point x="128" y="166"/>
      <point x="126" y="215" type="curve"/>
      <point x="117" y="215"/>
      <point x="105" y="217"/>
      <point x="105" y="170" type="curve" smooth="yes"/>
      <point x="105" y="144"/>
      <point x="129" y="32"/>
      <point x="334" y="37" type="curve"/>
    </contour>
    <contour>
      <point x="362" y="63" type="curve"/>
      <point x="362" y="359" type="line"/>
      <point x="517" y="306"/>
      <point x="550" y="254"/>
      <point x="550" y="187" type="curve" smooth="yes"/>
      <point x="550" y="116"/>
      <point x="478" y="58"/>
    </contour>
    <contour>
      <point x="334" y="396" type="line"/>
      <point x="225" y="444"/>
      <point x="176" y="472"/>
      <point x="176" y="556" type="curve" smooth="yes"/>
      <point x="176" y="615"/>
      <point x="235" y="664"/>
      <point x="334" y="668" type="curve"/>
    </contour>
  </outline>
</glyph>
<glyph name="plus" format="2">
  <advance width="693"/>
  <unicode hex="002B"/>
  <outline>
    <contour>
      <point x="332" y="143" type="line"/>
      <point x="358" y="143" type="line"/>
      <point x="358" y="342" type="line"/>
      <point x="613" y="342" type="line"/>
      <point x="613" y="370" type="line"/>
      <point x="358" y="370" type="line"/>
      <point x="358" y="572" type="line"/>
      <point x="332" y="572" type="line"/>
      <point x="332" y="370" type="line"/>
      <point x="80" y="370" type="line"/>
      <point x="80" y="342" type="line"/>
      <point x="332" y="342" type="line"/>
    </contour>
  </outline>
</glyph>
<glyph name="period" format="2">
  <advance width="231"/>
  <unicode hex="002E"/>
  <outline>
    <contour>
      <point x="114" y="-4" type="curve" smooth="yes"/>
      <point x="132" y="-4"/>
      <point x="145" y="4"/>
      <point x="145" y="37" type="curve" smooth="yes"/>
      <point x="145" y="67"/>
      <point x="132" y="73"/>
      <point x="114" y="73" type="curve" smooth="yes"/>
      <point x="101" y="73"/>
      <point x="86" y="67"/>
      <point x="86" y="37" type="curve" smooth="yes"/>
      <point x="86" y="4"/>
      <point x="101" y="-4"/>
    </contour>
  </outline>
</glyph>
<glyph name="seven" format="2">
  <advance width="693"/>
  <unicode hex="0037"/>
  <outline>
    <contour>
      <point x="222" y="0" type="line"/>
      <point x="252" y="0" type="line"/>
      <point x="608" y="692" type="line"/>
      <point x="608" y="714" type="line"/>
      <point x="79" y="714" type="line"/>
      <point x="71" y="570" type="line"/>
      <point x="91" y="570" type="line"/>
      <point x="96" y="636" type="line" smooth="yes"/>
      <point x="99" y="684"/>
      <point x="112" y="686"/>
      <point x="149" y="686" type="curve" smooth="yes"/>
      <point x="578" y="686" type="line"/>
    </contour>
  </outline>
</glyph>
<glyph name="eight" format="2">
  <advance width="693"/>
  <unicode hex="0038"/>
  <outline>
    <contour>
      <point x="336" y="-10" type="curve" smooth="yes"/>
      <point x="504" y="-10"/>
      <point x="602" y="45"/>
      <point x="602" y="156" type="curve" smooth="yes"/>
      <point x="602" y="254"/>
      <point x="554" y="308"/>
      <point x="394" y="374" type="curve"/>
      <point x="523" y="426"/>
      <point x="578" y="479"/>
      <point x="578" y="568" type="curve" smooth="yes"/>
      <point x="578" y="656"/>
      <point x="507" y="724"/>
      <point x="347" y="724" type="curve" smooth="yes"/>
      <point x="225" y="724"/>
      <point x="122" y="673"/>
      <point x="122" y="568" type="curve" smooth="yes"/>
      <point x="122" y="457"/>
      <point x="191" y="427"/>
      <point x="306" y="376" type="curve"/>
      <point x="172" y="330"/>
      <point x="90" y="269"/>
      <point x="90" y="167" type="curve" smooth="yes"/>
      <point x="90" y="53"/>
      <point x="163" y="-10"/>
    </contour>
    <contour>
      <point x="338" y="15" type="curve" smooth="yes"/>
      <point x="191" y="15"/>
      <point x="118" y="65"/>
      <point x="118" y="168" type="curve" smooth="yes"/>
      <point x="118" y="255"/>
      <point x="205" y="329"/>
      <point x="351" y="362" type="curve"/>
      <point x="545" y="290"/>
      <point x="574" y="231"/>
      <point x="574" y="158" type="curve" smooth="yes"/>
      <point x="574" y="54"/>
      <point x="481" y="15"/>
    </contour>
    <contour>
      <point x="351" y="386" type="curve"/>
      <point x="221" y="438"/>
      <point x="150" y="467"/>
      <point x="150" y="562" type="curve" smooth="yes"/>
      <point x="150" y="651"/>
      <point x="229" y="699"/>
      <point x="349" y="699" type="curve" smooth="yes"/>
      <point x="497" y="699"/>
      <point x="550" y="635"/>
      <point x="550" y="568" type="curve" smooth="yes"/>
      <point x="550" y="487"/>
      <point x="483" y="424"/>
    </contour>
  </outline>
</glyph>
<glyph name="equal" format="2">
  <advance width="693"/>
  <unicode hex="003D"/>
  <outline>
    <contour>
      <point x="83" y="459" type="line"/>
      <point x="607" y="459" type="line"/>
      <point x="607" y="487" type="line"/>
      <point x="83" y="487" type="line"/>
    </contour>
    <contour>
      <point x="83" y="226" type="line"/>
      <point x="607" y="226" type="line"/>
      <point x="607" y="254" type="line"/>
      <point x="83" y="254" type="line"/>
    </contour>
  </outline>
</glyph>
<glyph name="D" format="2">
  <advance width="832"/>
  <unicode hex="0044"/>
  <anchor x="417" y="0" name="bottom"/>
  <anchor x="417" y="357" name="center"/>
  <anchor x="417" y="714" name="top"/>
  <anchor x="812" y="714" name="topright"/>
  <outline>
    <contour>
      <point x="64" y="0" type="line"/>
      <point x="404" y="0" type="line" smooth="yes"/>
      <point x="643" y="0"/>
      <point x="755" y="122"/>
      <point x="755" y="341" type="curve" smooth="yes"/>
      <point x="755" y="562"/>
      <point x="633" y="714"/>
      <point x="395" y="714" type="curve" smooth="yes"/>
      <point x="64" y="714" type="line"/>
      <point x="64" y="694" type="line"/>
      <point x="137" y="694" type="line" smooth="yes"/>
      <point x="184" y="694"/>
      <point x="188" y="680"/>
      <point x="188" y="603" type="curve" smooth="yes"/>
      <point x="188" y="106" type="line" smooth="yes"/>
      <point x="188" y="35"/>
      <point x="184" y="20"/>
      <point x="138" y="20" type="curve" smooth="yes"/>
      <point x="64" y="20" type="line"/>
    </contour>
    <contour>
      <point x="216" y="25" type="line"/>
      <point x="216" y="689" type="line"/>
      <point x="377" y="689" type="line" smooth="yes"/>
      <point x="628" y="689"/>
      <point x="727" y="547"/>
      <point x="727" y="341" type="curve" smooth="yes"/>
      <point x="727" y="136"/>
      <point x="632" y="25"/>
      <point x="376" y="25" type="curve" smooth="yes"/>
    </contour>
  </outline>
</glyph>
<glyph name="F" format="2">
  <advance width="676"/>
  <unicode hex="0046"/>
  <anchor x="203" y="0" name="bottom"/>
  <anchor x="338" y="714" name="top"/>
  <anchor x="656" y="714" name="topright"/>
  <outline>
    <contour>
      <point x="64" y="0" type="line"/>
      <point x="376" y="0" type="line"/>
      <point x="376" y="20" type="line"/>
      <point x="273" y="20" type="line" smooth="yes"/>
      <point x="223" y="20"/>
      <point x="217" y="31"/>
      <point x="217" y="108" type="curve" smooth="yes"/>
      <point x="217" y="338" type="line"/>
      <point x="518" y="338" type="line"/>
      <point x="518" y="363" type="line"/>
      <point x="217" y="363" type="line"/>
      <point x="217" y="689" type="line"/>
      <point x="526" y="689" type="line" smooth="yes"/>
      <point x="578" y="689"/>
      <point x="584" y="675"/>
      <point x="586" y="620" type="curve" smooth="yes"/>
      <point x="589" y="551" type="line"/>
      <point x="609" y="551" type="line"/>
      <point x="604" y="714" type="line"/>
      <point x="64" y="714" type="line"/>
      <point x="64" y="694" type="line"/>
      <point x="133" y="694" type="line" smooth="yes"/>
      <point x="183" y="694"/>
      <point x="189" y="683"/>
      <point x="189" y="606" type="curve" smooth="yes"/>
      <point x="189" y="108" type="line" smooth="yes"/>
      <point x="189" y="31"/>
      <point x="183" y="20"/>
      <point x="133" y="20" type="curve" smooth="yes"/>
      <point x="64" y="20" type="line"/>
    </contour>
  </outline>
</glyph>
<glyph name="K" format="2">
  <advance width="813"/>
  <unicode hex="004B"/>
  <anchor x="406" y="0" name="bottom"/>
  <anchor x="406" y="714" name="top"/>
  <anchor x="793" y="714" name="topright"/>
  <outline>
    <contour>
      <point x="64" y="0" type="line"/>
      <point x="337" y="0" type="line"/>
      <point x="337" y="20" type="line"/>
      <point x="272" y="20" type="line" smooth="yes"/>
      <point x="223" y="20"/>
      <point x="216" y="31"/>
      <point x="216" y="104" type="curve" smooth="yes"/>
      <point x="216" y="206" type="line"/>
      <point x="386" y="381" type="line"/>
      <point x="680" y="119" type="line" smooth="yes"/>
      <point x="780" y="21"/>
      <point x="803" y="0"/>
      <point x="846" y="0" type="curve" smooth="yes"/>
      <point x="852" y="0" type="line"/>
      <point x="852" y="30" type="line"/>
      <point x="853" y="30" type="line" smooth="yes"/>
      <point x="830" y="30"/>
      <point x="798" y="41"/>
      <point x="727" y="106" type="curve" smooth="yes"/>
      <point x="407" y="397" type="line"/>
      <point x="624" y="617" type="line" smooth="yes"/>
      <point x="671" y="656"/>
      <point x="699" y="692"/>
      <point x="760" y="694" type="curve"/>
      <point x="760" y="714" type="line"/>
      <point x="576" y="714" type="line"/>
      <point x="576" y="694" type="line"/>
      <point x="613" y="694"/>
      <point x="636" y="698"/>
      <point x="636" y="680" type="curve" smooth="yes"/>
      <point x="636" y="663"/>
      <point x="627" y="656"/>
      <point x="569" y="599" type="curve" smooth="yes"/>
      <point x="216" y="240" type="line"/>
      <point x="216" y="605" type="line" smooth="yes"/>
      <point x="216" y="683"/>
      <point x="222" y="694"/>
      <point x="272" y="694" type="curve" smooth="yes"/>
      <point x="333" y="694" type="line"/>
      <point x="333" y="714" type="line"/>
      <point x="64" y="714" type="line"/>
      <point x="64" y="694" type="line"/>
      <point x="132" y="694" type="line" smooth="yes"/>
      <point x="182" y="694"/>
      <point x="188" y="683"/>
      <point x="188" y="605" type="curve" smooth="yes"/>
      <point x="188" y="108" type="line" smooth="yes"/>
      <point x="188" y="31"/>
      <point x="182" y="20"/>
      <point x="132" y="20" type="curve" smooth="yes"/>
      <point x="64" y="20" type="line"/>
    </contour>
  </outline>
</glyph>
<glyph name="L" format="2">
  <advance width="718"/>
  <unicode hex="004C"/>
  <anchor x="360" y="0" name="bottom"/>
  <anchor x="360" y="357" name="center"/>
  <anchor x="360" y="714" name="top"/>
  <anchor x="698" y="714" name="topright"/>
  <outline>
    <contour>
      <point x="64" y="0" type="line"/>
      <point x="642" y="0" type="line"/>
      <point x="652" y="205" type="line"/>
      <point x="632" y="205" type="line"/>
      <point x="625" y="94" type="line" smooth="yes"/>
      <point x="622" y="39"/>
      <point x="616" y="25"/>
      <point x="564" y="25" type="curve" smooth="yes"/>
      <point x="216" y="25" type="line"/>
      <point x="216" y="606" type="line" smooth="yes"/>
      <point x="216" y="683"/>
      <point x="222" y="694"/>
      <point x="272" y="694" type="curve" smooth="yes"/>
      <point x="330" y="694" type="line"/>
      <point x="330" y="714" type="line"/>
      <point x="64" y="714" type="line"/>
      <point x="64" y="694" type="line"/>
      <point x="132" y="694" type="line" smooth="yes"/>
      <point x="182" y="694"/>
      <point x="188" y="683"/>
      <point x="188" y="606" type="curve" smooth="yes"/>
      <point x="188" y="108" type="line" smooth="yes"/>
      <point x="188" y="31"/>
      <point x="182" y="20"/>
      <point x="132" y="20" type="curve" smooth="yes"/>
      <point x="64" y="20" type="line"/>
    </contour>
  </outline>
</glyph>
<glyph name="O" format="2">
  <advance width="842"/>
  <unicode hex="004F"/>
  <anchor x="421" y="0" name="bottom"/>
  <anchor x="421" y="357" name="center"/>
  <anchor x="421" y="714" name="top"/>
  <anchor x="822" y="714" name="topright"/>
  <outline>
    <contour>
      <point x="422" y="-10" type="curve" smooth="yes"/>
      <point x="686" y="-10"/>
      <point x="769" y="145"/>
      <point x="769" y="358" type="curve" smooth="yes"/>
      <point x="769" y="570"/>
      <point x="680" y="725"/>
      <point x="423" y="725" type="curve" smooth="yes"/>
      <point x="196" y="725"/>
      <point x="72" y="588"/>
      <point x="72" y="359" type="curve" smooth="yes"/>
      <point x="72" y="113"/>
      <point x="190" y="-10"/>
    </contour>
    <contour>
      <point x="422" y="15" type="curve" smooth="yes"/>
      <point x="207" y="15"/>
      <point x="100" y="133"/>
      <point x="100" y="358" type="curve" smooth="yes"/>
      <point x="100" y="572"/>
      <point x="213" y="700"/>
      <point x="423" y="700" type="curve" smooth="yes"/>
      <point x="654" y="700"/>
      <point x="741" y="572"/>
      <point x="741" y="358" type="curve" smooth="yes"/>
      <point x="741" y="144"/>
      <point x="656" y="15"/>
    </contour>
  </outline>
</glyph>
<glyph name="S" format="2">
  <advance width="598"/>
  <unicode hex="0053"/>
  <anchor x="319" y="0" name="bottom"/>
  <anchor x="339" y="714" name="top"/>
  <anchor x="578" y="714" name="topright"/>
  <outline>
    <contour>
      <point x="333" y="-10" type="curve" smooth="yes"/>
      <point x="469" y="-10"/>
      <point x="534" y="80"/>
      <point x="534" y="166" type="curve" smooth="yes"/>
      <point x="534" y="288"/>
      <point x="423" y="332"/>
      <point x="314" y="392" type="curve" smooth="yes"/>
      <point x="223" y="441"/>
      <point x="165" y="475"/>
      <point x="165" y="551" type="curve" smooth="yes"/>
      <point x="165" y="634"/>
      <point x="225" y="699"/>
      <point x="340" y="699" type="curve" smooth="yes"/>
      <point x="446" y="699"/>
      <point x="510" y="674"/>
      <point x="510" y="577" type="curve"/>
      <point x="527" y="577"/>
      <point x="531" y="594"/>
      <point x="531" y="614" type="curve" smooth="yes"/>
      <point x="531" y="686"/>
      <point x="445" y="724"/>
      <point x="342" y="724" type="curve" smooth="yes"/>
      <point x="221" y="724"/>
      <point x="137" y="647"/>
      <point x="137" y="553" type="curve" smooth="yes"/>
      <point x="137" y="469"/>
      <point x="166" y="436"/>
      <point x="311" y="361" type="curve" smooth="yes"/>
      <point x="450" y="290"/>
      <point x="506" y="234"/>
      <point x="506" y="173" type="curve" smooth="yes"/>
      <point x="506" y="91"/>
      <point x="459" y="15"/>
      <point x="332" y="15" type="curve" smooth="yes"/>
      <point x="205" y="15"/>
      <point x="121" y="44"/>
      <point x="125" y="164" type="curve"/>
      <point x="113" y="164"/>
      <point x="102" y="160"/>
      <point x="102" y="128" type="curve" smooth="yes"/>
      <point x="102" y="54"/>
      <point x="179" y="-10"/>
    </contour>
  </outline>
</glyph>
<glyph name="bracketright" format="2">
  <advance width="351"/>
  <unicode hex="005D"/>
  <outline>
    <contour>
      <point x="47" y="-128" type="line"/>
      <point x="228" y="-128" type="line"/>
      <point x="228" y="760" type="line"/>
      <point x="47" y="760" type="line"/>
      <point x="47" y="740" type="line"/>
      <point x="144" y="740" type="line" smooth="yes"/>
      <point x="194" y="740"/>
      <point x="200" y="729"/>
      <point x="200" y="652" type="curve" smooth="yes"/>
      <point x="200" y="-20" type="line" smooth="yes"/>
      <point x="200" y="-97"/>
      <point x="194" y="-108"/>
      <point x="144" y="-108" type="curve" smooth="yes"/>
      <point x="47" y="-108" type="line"/>
    </contour>
  </outline>
</glyph>
<glyph name="f" format="2">
  <advance width="392"/>
  <unicode hex="0066"/>
  <anchor x="197" y="0" name="bottom"/>
  <anchor x="329" y="772" name="top"/>
  <anchor x="472" y="772" name="topright"/>
  <outline>
    <contour>
      <point x="45" y="0" type="line"/>
      <point x="347" y="0" type="line"/>
      <point x="347" y="20" type="line"/>
      <point x="276" y="20" type="line" smooth="yes"/>
      <point x="206" y="20"/>
      <point x="198" y="19"/>
      <point x="198" y="93" type="curve" smooth="yes"/>
      <point x="198" y="511" type="line"/>
      <point x="376" y="511" type="line"/>
      <point x="376" y="536" type="line"/>
      <point x="198" y="536" type="line"/>
      <point x="198" y="600" type="line" smooth="yes"/>
      <point x="198" y="698"/>
      <point x="261" y="747"/>
      <point x="347" y="747" type="curve" smooth="yes"/>
      <point x="433" y="747"/>
      <point x="454" y="699"/>
      <point x="454" y="658" type="curve"/>
      <point x="463" y="658"/>
      <point x="477" y="666"/>
      <point x="477" y="697" type="curve" smooth="yes"/>
      <point x="477" y="718"/>
      <point x="431" y="772"/>
      <point x="351" y="772" type="curve" smooth="yes"/>
      <point x="238" y="772"/>
      <point x="170" y="701"/>
      <point x="170" y="599" type="curve" smooth="yes"/>
      <point x="170" y="536" type="line"/>
      <point x="50" y="536" type="line"/>
      <point x="50" y="511" type="line"/>
      <point x="170" y="511" type="line"/>
      <point x="170" y="93" type="line" smooth="yes"/>
      <point x="170" y="19"/>
      <point x="162" y="20"/>
      <point x="92" y="20" type="curve" smooth="yes"/>
      <point x="45" y="20" type="line"/>
    </contour>
  </outline>
</glyph>
<glyph name="k" format="2">
  <advance width="637"/>
  <unicode hex="006B"/>
  <anchor x="319" y="0" name="bottom"/>
  <anchor x="319" y="760" name="top"/>
  <anchor x="637" y="760" name="topright"/>
  <outline>
    <contour>
      <point x="26" y="0" type="line"/>
      <point x="285" y="0" type="line"/>
      <point x="285" y="20" type="line"/>
      <point x="268" y="20" type="line" smooth="yes"/>
      <point x="178" y="20"/>
      <point x="176" y="22"/>
      <point x="176" y="92" type="curve" smooth="yes"/>
      <point x="176" y="174" type="line"/>
      <point x="318" y="301" type="line"/>
      <point x="455" y="119" type="line" smooth="yes"/>
      <point x="537" y="8"/>
      <point x="542" y="0"/>
      <point x="618" y="0" type="curve" smooth="yes"/>
      <point x="640" y="0" type="line"/>
      <point x="640" y="20" type="line"/>
      <point x="639" y="20" type="line" smooth="yes"/>
      <point x="595" y="20"/>
      <point x="553" y="37"/>
      <point x="489" y="118" type="curve" smooth="yes"/>
      <point x="338" y="314" type="line"/>
      <point x="502" y="471" type="line" smooth="yes"/>
      <point x="558" y="508"/>
      <point x="533" y="516"/>
      <point x="609" y="516" type="curve"/>
      <point x="609" y="536" type="line"/>
      <point x="407" y="536" type="line"/>
      <point x="407" y="516" type="line"/>
      <point x="459" y="516"/>
      <point x="491" y="516"/>
      <point x="491" y="498" type="curve" smooth="yes"/>
      <point x="491" y="485"/>
      <point x="489" y="478"/>
      <point x="377" y="384" type="curve" smooth="yes"/>
      <point x="176" y="208" type="line"/>
      <point x="173" y="278"/>
      <point x="176" y="308"/>
      <point x="176" y="375" type="curve" smooth="yes"/>
      <point x="176" y="760" type="line"/>
      <point x="26" y="760" type="line"/>
      <point x="26" y="740" type="line"/>
      <point x="81" y="740" type="line" smooth="yes"/>
      <point x="140" y="740"/>
      <point x="148" y="738"/>
      <point x="148" y="660" type="curve" smooth="yes"/>
      <point x="148" y="92" type="line" smooth="yes"/>
      <point x="148" y="22"/>
      <point x="146" y="20"/>
      <point x="61" y="20" type="curve" smooth="yes"/>
      <point x="26" y="20" type="line"/>
    </contour>
  </outline>
</glyph>
<glyph name="l" format="2">
  <advance width="309"/>
  <unicode hex="006C"/>
  <anchor x="154" y="0" name="bottom"/>
  <anchor x="154" y="268" name="center"/>
  <anchor x="154" y="760" name="top"/>
  <anchor x="199" y="760" name="topright"/>
  <outline>
    <contour>
      <point x="7" y="0" type="line"/>
      <point x="302" y="0" type="line"/>
      <point x="302" y="20" type="line"/>
      <point x="246" y="20" type="line" smooth="yes"/>
      <point x="173" y="20"/>
      <point x="169" y="24"/>
      <point x="169" y="94" type="curve" smooth="yes"/>
      <point x="169" y="760" type="line"/>
      <point x="7" y="760" type="line"/>
      <point x="7" y="740" type="line"/>
      <point x="74" y="740" type="line" smooth="yes"/>
      <point x="134" y="740"/>
      <point x="141" y="736"/>
      <point x="141" y="662" type="curve" smooth="yes"/>
      <point x="141" y="94" type="line" smooth="yes"/>
      <point x="141" y="24"/>
      <point x="137" y="20"/>
      <point x="64" y="20" type="curve" smooth="yes"/>
      <point x="7" y="20" type="line"/>
    </contour>
  </outline>
</glyph>
<glyph name="m" format="2">
  <advance width="1098"/>
  <unicode hex="006D"/>
  <anchor x="550" y="0" name="bottom"/>
  <anchor x="550" y="536" name="top"/>
  <anchor x="998" y="536" name="topright"/>
  <outline>
    <contour>
      <point x="48" y="0" type="line"/>
      <point x="323" y="0" type="line"/>
      <point x="323" y="20" type="line"/>
      <point x="285" y="20" type="line" smooth="yes"/>
      <point x="205" y="20"/>
      <point x="201" y="22"/>
      <point x="201" y="90" type="curve" smooth="yes"/>
      <point x="201" y="335" type="line" smooth="yes"/>
      <point x="201" y="432"/>
      <point x="266" y="517"/>
      <point x="383" y="517" type="curve" smooth="yes"/>
      <point x="509" y="517"/>
      <point x="551" y="452"/>
      <point x="551" y="366" type="curve" smooth="yes"/>
      <point x="551" y="0" type="line"/>
      <point x="696" y="0" type="line"/>
      <point x="696" y="20" type="line"/>
      <point x="669" y="20" type="line" smooth="yes"/>
      <point x="581" y="20"/>
      <point x="579" y="22"/>
      <point x="579" y="92" type="curve" smooth="yes"/>
      <point x="579" y="350" type="line" smooth="yes"/>
      <point x="579" y="446"/>
      <point x="642" y="519"/>
      <point x="768" y="519" type="curve" smooth="yes"/>
      <point x="882" y="519"/>
      <point x="929" y="464"/>
      <point x="929" y="366" type="curve" smooth="yes"/>
      <point x="929" y="0" type="line"/>
      <point x="1063" y="0" type="line"/>
      <point x="1063" y="20" type="line"/>
      <point x="1045" y="20" type="line" smooth="yes"/>
      <point x="957" y="20"/>
      <point x="957" y="23"/>
      <point x="957" y="97" type="curve" smooth="yes"/>
      <point x="957" y="358" type="line" smooth="yes"/>
      <point x="957" y="472"/>
      <point x="903" y="542"/>
      <point x="766" y="542" type="curve" smooth="yes"/>
      <point x="643" y="542"/>
      <point x="592" y="478"/>
      <point x="571" y="436" type="curve"/>
      <point x="567" y="436" type="line"/>
      <point x="550" y="481"/>
      <point x="516" y="542"/>
      <point x="393" y="542" type="curve" smooth="yes"/>
      <point x="310" y="542"/>
      <point x="236" y="507"/>
      <point x="208" y="435" type="curve"/>
      <point x="200" y="435" type="line"/>
      <point x="197" y="536" type="line"/>
      <point x="69" y="536" type="line"/>
      <point x="69" y="516" type="line"/>
      <point x="101" y="516" type="line" smooth="yes"/>
      <point x="162" y="516"/>
      <point x="173" y="515"/>
      <point x="173" y="452" type="curve" smooth="yes"/>
      <point x="173" y="90" type="line" smooth="yes"/>
      <point x="173" y="22"/>
      <point x="169" y="20"/>
      <point x="85" y="20" type="curve" smooth="yes"/>
      <point x="48" y="20" type="line"/>
    </contour>
  </outline>
</glyph>
<glyph name="braceright" format="2">
  <advance width="506"/>
  <unicode hex="007D"/>
  <outline>
    <contour>
      <point x="99" y="-132" type="line"/>
      <point x="138" y="-132" type="line" smooth="yes"/>
      <point x="214" y="-132"/>
      <point x="264" y="-87"/>
      <point x="264" y="8" type="curve" smooth="yes"/>
      <point x="264" y="171" type="line" smooth="yes"/>
      <point x="264" y="273"/>
      <point x="326" y="295"/>
      <point x="410" y="302" type="curve"/>
      <point x="410" y="326" type="line"/>
      <point x="326" y="333"/>
      <point x="264" y="353"/>
      <point x="264" y="457" type="curve" smooth="yes"/>
      <point x="264" y="621" type="line" smooth="yes"/>
      <point x="264" y="715"/>
      <point x="215" y="760"/>
      <point x="136" y="760" type="curve" smooth="yes"/>
      <point x="99" y="760" type="line"/>
      <point x="99" y="735" type="line"/>
      <point x="133" y="735" type="line" smooth="yes"/>
      <point x="209" y="735"/>
      <point x="237" y="696"/>
      <point x="237" y="626" type="curve" smooth="yes"/>
      <point x="237" y="453" type="line" smooth="yes"/>
      <point x="237" y="368"/>
      <point x="284" y="325"/>
      <point x="359" y="315" type="curve"/>
      <point x="359" y="313" type="line"/>
      <point x="284" y="303"/>
      <point x="237" y="258"/>
      <point x="237" y="175" type="curve" smooth="yes"/>
      <point x="237" y="1" type="line" smooth="yes"/>
      <point x="237" y="-66"/>
      <point x="209" y="-107"/>
      <point x="133" y="-107" type="curve" smooth="yes"/>
      <point x="99" y="-107" type="line"/>
    </contour>
  </outline>
</glyph>
<glyph name="asciitilde" format="2">
  <advance width="693"/>
  <unicode hex="007E"/>
  <outline>
    <contour>
      <point x="81" y="277" type="curve"/>
      <point x="113" y="277" type="line"/>
      <point x="137" y="372"/>
      <point x="153" y="407"/>
      <point x="212" y="407" type="curve" smooth="yes"/>
      <point x="285" y="407"/>
      <point x="332" y="340"/>
      <point x="351" y="333" type="curve" smooth="yes"/>
      <point x="384" y="310"/>
      <point x="433" y="276"/>
      <point x="482" y="276" type="curve" smooth="yes"/>
      <point x="577" y="276"/>
      <point x="596" y="394"/>
      <point x="610" y="437" type="curve"/>
      <point x="576" y="437" type="line"/>
      <point x="554" y="382"/>
      <point x="545" y="305"/>
      <point x="482" y="305" type="curve" smooth="yes"/>
      <point x="437" y="305"/>
      <point x="389" y="348"/>
      <point x="357" y="367" type="curve" smooth="yes"/>
      <point x="322" y="389"/>
      <point x="279" y="436"/>
      <point x="212" y="436" type="curve" smooth="yes"/>
      <point x="111" y="436"/>
      <point x="103" y="338"/>
    </contour>
  </outline>
</glyph>
<glyph name="currency" format="2">
  <advance width="695"/>
  <unicode hex="00A4"/>
  <outline>
    <contour>
      <point x="102" y="149" type="line"/>
      <point x="195" y="225" type="line"/>
      <point x="232" y="197"/>
      <point x="289" y="177"/>
      <point x="350" y="177" type="curve" smooth="yes"/>
      <point x="409" y="177"/>
      <point x="462" y="194"/>
      <point x="499" y="222" type="curve"/>
      <point x="591" y="150" type="line"/>
      <point x="607" y="164" type="line"/>
      <point x="517" y="235" type="line"/>
      <point x="552" y="264"/>
      <point x="576" y="308"/>
      <point x="576" y="360" type="curve" smooth="yes"/>
      <point x="576" y="409"/>
      <point x="552" y="454"/>
      <point x="515" y="481" type="curve"/>
      <point x="605" y="553" type="line"/>
      <point x="590" y="570" type="line"/>
      <point x="498" y="496" type="line"/>
      <point x="463" y="523"/>
      <point x="408" y="542"/>
      <point x="350" y="542" type="curve" smooth="yes"/>
      <point x="287" y="542"/>
      <point x="230" y="519"/>
      <point x="194" y="490" type="curve"/>
      <point x="99" y="568" type="line"/>
      <point x="83" y="553" type="line"/>
      <point x="178" y="480" type="line"/>
      <point x="145" y="452"/>
      <point x="123" y="407"/>
      <point x="123" y="360" type="curve" smooth="yes"/>
      <point x="123" y="310"/>
      <point x="146" y="265"/>
      <point x="180" y="238" type="curve"/>
      <point x="88" y="164" type="line"/>
    </contour>
    <contour>
      <point x="350" y="201" type="curve" smooth="yes"/>
      <point x="237" y="201"/>
      <point x="151" y="271"/>
      <point x="151" y="361" type="curve" smooth="yes"/>
      <point x="151" y="449"/>
      <point x="237" y="518"/>
      <point x="350" y="518" type="curve" smooth="yes"/>
      <point x="464" y="518"/>
      <point x="548" y="449"/>
      <point x="548" y="361" type="curve" smooth="yes"/>
      <point x="548" y="271"/>
      <point x="464" y="201"/>
    </contour>
  </outline>
</glyph>
<glyph name="section" format="2">
  <advance width="705"/>
  <unicode hex="00A7"/>
  <outline>
    <contour>
      <point x="315" y="-116" type="curve" smooth="yes"/>
      <point x="430" y="-116"/>
      <point x="542" y="-36"/>
      <point x="542" y="52" type="curve" smooth="yes"/>
      <point x="542" y="125"/>
      <point x="517" y="131"/>
      <point x="501" y="158" type="curve"/>
      <point x="533" y="203"/>
      <point x="560" y="245"/>
      <point x="560" y="272" type="curve" smooth="yes"/>
      <point x="560" y="374"/>
      <point x="511" y="381"/>
      <point x="365" y="447" type="curve" smooth="yes"/>
      <point x="238" y="497"/>
      <point x="181" y="532"/>
      <point x="181" y="615" type="curve" smooth="yes"/>
      <point x="181" y="674"/>
      <point x="237" y="735"/>
      <point x="348" y="735" type="curve" smooth="yes"/>
      <point x="414" y="735"/>
      <point x="512" y="697"/>
      <point x="512" y="645" type="curve"/>
      <point x="520" y="645"/>
      <point x="524" y="662"/>
      <point x="524" y="664" type="curve" smooth="yes"/>
      <point x="524" y="691"/>
      <point x="471" y="760"/>
      <point x="353" y="760" type="curve" smooth="yes"/>
      <point x="243" y="760"/>
      <point x="153" y="709"/>
      <point x="153" y="589" type="curve" smooth="yes"/>
      <point x="153" y="566"/>
      <point x="157" y="562"/>
      <point x="189" y="517" type="curve"/>
      <point x="162" y="491"/>
      <point x="132" y="468"/>
      <point x="132" y="400" type="curve" smooth="yes"/>
      <point x="132" y="313"/>
      <point x="226" y="284"/>
      <point x="286" y="265" type="curve" smooth="yes"/>
      <point x="349" y="252"/>
      <point x="514" y="206"/>
      <point x="514" y="55" type="curve" smooth="yes"/>
      <point x="514" y="-37"/>
      <point x="417" y="-91"/>
      <point x="320" y="-91" type="curve" smooth="yes"/>
      <point x="185" y="-91"/>
      <point x="124" y="-33"/>
      <point x="124" y="64" type="curve"/>
      <point x="126" y="64"/>
      <point x="108" y="64"/>
      <point x="108" y="32" type="curve" smooth="yes"/>
      <point x="108" y="-41"/>
      <point x="168" y="-116"/>
    </contour>
    <contour>
      <point x="487" y="170" type="curve"/>
      <point x="417" y="237"/>
      <point x="350" y="264"/>
      <point x="300" y="282" type="curve" smooth="yes"/>
      <point x="251" y="288"/>
      <point x="158" y="325"/>
      <point x="158" y="408" type="curve" smooth="yes"/>
      <point x="158" y="460"/>
      <point x="181" y="484"/>
      <point x="202" y="498" type="curve"/>
      <point x="250" y="476"/>
      <point x="290" y="454"/>
      <point x="375" y="414" type="curve" smooth="yes"/>
      <point x="519" y="354"/>
      <point x="534" y="345"/>
      <point x="534" y="279" type="curve" smooth="yes"/>
      <point x="534" y="230"/>
      <point x="499" y="193"/>
    </contour>
  </outline>
</glyph>
<glyph name="ordfeminine" format="2">
  <advance width="407"/>
  <unicode hex="00AA"/>
  <outline>
    <contour>
      <point x="158" y="380" type="curve" smooth="yes"/>
      <point x="238" y="380"/>
      <point x="277" y="438"/>
      <point x="291" y="464" type="curve"/>
      <point x="289" y="464" type="line"/>
      <point x="292" y="386" type="line"/>
      <point x="360" y="386" type="line"/>
      <point x="360" y="398" type="line"/>
      <point x="314" y="398"/>
      <point x="311" y="411"/>
      <point x="311" y="466" type="curve" smooth="yes"/>
      <point x="311" y="624" type="line" smooth="yes"/>
      <point x="311" y="674"/>
      <point x="287" y="721"/>
      <point x="195" y="721" type="curve" smooth="yes"/>
      <point x="105" y="721"/>
      <point x="86" y="667"/>
      <point x="86" y="650" type="curve" smooth="yes"/>
      <point x="86" y="634"/>
      <point x="99" y="630"/>
      <point x="101" y="630" type="curve"/>
      <point x="101" y="680"/>
      <point x="119" y="698"/>
      <point x="194" y="698" type="curve" smooth="yes"/>
      <point x="288" y="698"/>
      <point x="291" y="670"/>
      <point x="291" y="612" type="curve" smooth="yes"/>
      <point x="291" y="578" type="line"/>
      <point x="233" y="576" type="line" smooth="yes"/>
      <point x="112" y="572"/>
      <point x="53" y="552"/>
      <point x="53" y="482" type="curve" smooth="yes"/>
      <point x="53" y="401"/>
      <point x="115" y="380"/>
    </contour>
    <contour>
      <point x="160" y="397" type="curve" smooth="yes"/>
      <point x="89" y="397"/>
      <point x="75" y="441"/>
      <point x="75" y="482" type="curve" smooth="yes"/>
      <point x="75" y="538"/>
      <point x="113" y="554"/>
      <point x="234" y="557" type="curve" smooth="yes"/>
      <point x="291" y="559" type="line"/>
      <point x="291" y="486" type="line" smooth="yes"/>
      <point x="291" y="475"/>
      <point x="238" y="397"/>
    </contour>
  </outline>
</glyph>
<glyph name="guillemotleft" format="2">
  <advance width="569"/>
  <unicode hex="00AB"/>
  <outline>
    <contour>
      <point x="435" y="93" type="line"/>
      <point x="470" y="93" type="line"/>
      <point x="308" y="270" type="line"/>
      <point x="470" y="447" type="line"/>
      <point x="435" y="447" type="line"/>
      <point x="285" y="273" type="line"/>
      <point x="285" y="267" type="line"/>
    </contour>
    <contour>
      <point x="238" y="93" type="line"/>
      <point x="272" y="93" type="line"/>
      <point x="111" y="270" type="line"/>
      <point x="272" y="447" type="line"/>
      <point x="238" y="447" type="line"/>
      <point x="87" y="273" type="line"/>
      <point x="87" y="267" type="line"/>
    </contour>
  </outline>
</glyph>
<glyph name="registered" format="2">
  <advance width="1048"/>
  <unicode hex="00AE"/>
  <outline>
    <contour>
      <point x="522" y="-10" type="curve" smooth="yes"/>
      <point x="771" y="-10"/>
      <point x="975" y="137"/>
      <point x="975" y="356" type="curve" smooth="yes"/>
      <point x="975" y="579"/>
      <point x="769" y="725"/>
      <point x="521" y="725" type="curve" smooth="yes"/>
      <point x="273" y="725"/>
      <point x="73" y="577"/>
      <point x="73" y="358" type="curve" smooth="yes"/>
      <point x="73" y="132"/>
      <point x="278" y="-10"/>
    </contour>
    <contour>
      <point x="523" y="19" type="curve" smooth="yes"/>
      <point x="302" y="19"/>
      <point x="101" y="152"/>
      <point x="101" y="357" type="curve" smooth="yes"/>
      <point x="101" y="556"/>
      <point x="291" y="696"/>
      <point x="521" y="696" type="curve" smooth="yes"/>
      <point x="754" y="696"/>
      <point x="947" y="551"/>
      <point x="947" y="358" type="curve" smooth="yes"/>
      <point x="947" y="162"/>
      <point x="751" y="19"/>
    </contour>
    <contour>
      <point x="330" y="141" type="line"/>
      <point x="516" y="141" type="line"/>
      <point x="516" y="161" type="line"/>
      <point x="498" y="161" type="line" smooth="yes"/>
      <point x="477" y="161"/>
      <point x="436" y="165"/>
      <point x="436" y="178" type="curve" smooth="yes"/>
      <point x="436" y="337" type="line"/>
      <point x="561" y="337" type="line"/>
      <point x="696" y="141" type="line"/>
      <point x="772" y="141" type="line"/>
      <point x="772" y="161" type="line"/>
      <point x="736" y="161"/>
      <point x="723" y="165"/>
      <point x="706" y="187" type="curve" smooth="yes"/>
      <point x="596" y="343" type="line"/>
      <point x="657" y="358"/>
      <point x="707" y="403"/>
      <point x="707" y="453" type="curve" smooth="yes"/>
      <point x="707" y="533"/>
      <point x="643" y="573"/>
      <point x="503" y="573" type="curve" smooth="yes"/>
      <point x="330" y="573" type="line"/>
      <point x="330" y="553" type="line"/>
      <point x="347" y="553" type="line" smooth="yes"/>
      <point x="367" y="553"/>
      <point x="408" y="549"/>
      <point x="408" y="518" type="curve" smooth="yes"/>
      <point x="408" y="178" type="line" smooth="yes"/>
      <point x="408" y="165"/>
      <point x="367" y="161"/>
      <point x="347" y="161" type="curve" smooth="yes"/>
      <point x="330" y="161" type="line"/>
    </contour>
    <contour>
      <point x="436" y="356" type="line"/>
      <point x="436" y="550" type="line"/>
      <point x="486" y="550" type="line" smooth="yes"/>
      <point x="606" y="550"/>
      <point x="677" y="526"/>
      <point x="677" y="454" type="curve" smooth="yes"/>
      <point x="677" y="393"/>
      <point x="618" y="356"/>
      <point x="528" y="356" type="curve" smooth="yes"/>
    </contour>
  </outline>
</glyph>
<glyph name="threesuperior" format="2">
  <advance width="497"/>
  <unicode hex="00B3"/>
  <outline>
    <contour>
      <point x="222" y="382" type="curve" smooth="yes"/>
      <point x="346" y="382"/>
      <point x="408" y="455"/>
      <point x="408" y="514" type="curve" smooth="yes"/>
      <point x="408" y="557"/>
      <point x="386" y="604"/>
      <point x="296" y="616" type="curve"/>
      <point x="296" y="621" type="line"/>
      <point x="349" y="643"/>
      <point x="387" y="655"/>
      <point x="387" y="713" type="curve" smooth="yes"/>
      <point x="387" y="762"/>
      <point x="350" y="827"/>
      <point x="229" y="827" type="curve" smooth="yes"/>
      <point x="138" y="827"/>
      <point x="67" y="768"/>
      <point x="67" y="722" type="curve" smooth="yes"/>
      <point x="67" y="704"/>
      <point x="77" y="698"/>
      <point x="79" y="698" type="curve"/>
      <point x="79" y="766"/>
      <point x="163" y="802"/>
      <point x="223" y="802" type="curve" smooth="yes"/>
      <point x="318" y="802"/>
      <point x="359" y="767"/>
      <point x="359" y="716" type="curve" smooth="yes"/>
      <point x="359" y="657"/>
      <point x="319" y="631"/>
      <point x="211" y="631" type="curve" smooth="yes"/>
      <point x="160" y="631" type="line"/>
      <point x="160" y="606" type="line"/>
      <point x="203" y="606" type="line" smooth="yes"/>
      <point x="330" y="606"/>
      <point x="380" y="580"/>
      <point x="380" y="515" type="curve" smooth="yes"/>
      <point x="380" y="448"/>
      <point x="321" y="407"/>
      <point x="224" y="407" type="curve" smooth="yes"/>
      <point x="127" y="407"/>
      <point x="83" y="434"/>
      <point x="83" y="520" type="curve"/>
      <point x="68" y="520"/>
      <point x="61" y="508"/>
      <point x="61" y="487" type="curve" smooth="yes"/>
      <point x="61" y="421"/>
      <point x="125" y="382"/>
    </contour>
  </outline>
</glyph>
<glyph name="ordmasculine" format="2">
  <advance width="424"/>
  <unicode hex="00BA"/>
  <outline>
    <contour>
      <point x="210" y="380" type="curve" smooth="yes"/>
      <point x="297" y="380"/>
      <point x="384" y="436"/>
      <point x="384" y="550" type="curve" smooth="yes"/>
      <point x="384" y="666"/>
      <point x="295" y="721"/>
      <point x="212" y="721" type="curve" smooth="yes"/>
      <point x="124" y="721"/>
      <point x="41" y="664"/>
      <point x="41" y="550" type="curve" smooth="yes"/>
      <point x="41" y="435"/>
      <point x="130" y="380"/>
    </contour>
    <contour>
      <point x="210" y="403" type="curve" smooth="yes"/>
      <point x="115" y="403"/>
      <point x="63" y="481"/>
      <point x="63" y="550" type="curve" smooth="yes"/>
      <point x="63" y="617"/>
      <point x="115" y="698"/>
      <point x="209" y="698" type="curve" smooth="yes"/>
      <point x="308" y="698"/>
      <point x="362" y="617"/>
      <point x="362" y="550" type="curve" smooth="yes"/>
      <point x="362" y="481"/>
      <point x="309" y="403"/>
    </contour>
  </outline>
</glyph>
<glyph name="Aring" format="2">
  <advance width="791"/>
  <unicode hex="00C5"/>
  <anchor x="396" y="0" name="bottom"/>
  <anchor x="396" y="891" name="top"/>
  <outline>
    <contour>
      <point x="-6" y="0" type="line"/>
      <point x="275" y="0" type="line"/>
      <point x="275" y="20" type="line"/>
      <point x="211" y="20" type="line" smooth="yes"/>
      <point x="158" y="20"/>
      <point x="135" y="18"/>
      <point x="135" y="48" type="curve" smooth="yes"/>
      <point x="135" y="79"/>
      <point x="167" y="157"/>
      <point x="171" y="166" type="curve" smooth="yes"/>
      <point x="210" y="251" type="line"/>
      <point x="570" y="251" type="line"/>
      <point x="604" y="183" type="line" smooth="yes"/>
      <point x="621" y="140"/>
      <point x="644" y="76"/>
      <point x="644" y="50" type="curve" smooth="yes"/>
      <point x="644" y="29"/>
      <point x="640" y="20"/>
      <point x="582" y="20" type="curve" smooth="yes"/>
      <point x="538" y="20" type="line"/>
      <point x="538" y="0" type="line"/>
      <point x="791" y="0" type="line"/>
      <point x="791" y="20" type="line"/>
      <point x="744" y="20" type="line" smooth="yes"/>
      <point x="714" y="20"/>
      <point x="698" y="21"/>
      <point x="684" y="53" type="curve" smooth="yes"/>
      <point x="416" y="673" type="line"/>
      <point x="489" y="678"/>
      <point x="541" y="716"/>
      <point x="541" y="782" type="curve" smooth="yes"/>
      <point x="541" y="853"/>
      <point x="475" y="891"/>
      <point x="392" y="891" type="curve" smooth="yes"/>
      <point x="309" y="891"/>
      <point x="243" y="853"/>
      <point x="243" y="782" type="curve" smooth="yes"/>
      <point x="243" y="719"/>
      <point x="295" y="682"/>
      <point x="365" y="674" type="curve"/>
      <point x="86" y="16" type="line" smooth="yes"/>
      <point x="82" y="22"/>
      <point x="79" y="20"/>
      <point x="41" y="20" type="curve" smooth="yes"/>
      <point x="-6" y="20" type="line"/>
    </contour>
    <contour>
      <point x="218" y="276" type="line"/>
      <point x="328" y="523" type="line" smooth="yes"/>
      <point x="345" y="555"/>
      <point x="381" y="657"/>
      <point x="391" y="685" type="curve"/>
      <point x="405" y="636"/>
      <point x="440" y="548"/>
      <point x="457" y="517" type="curve" smooth="yes"/>
      <point x="558" y="276" type="line"/>
    </contour>
    <contour>
      <point x="391" y="692" type="curve" smooth="yes"/>
      <point x="315" y="692"/>
      <point x="265" y="728"/>
      <point x="265" y="782" type="curve" smooth="yes"/>
      <point x="265" y="835"/>
      <point x="315" y="870"/>
      <point x="391" y="870" type="curve" smooth="yes"/>
      <point x="470" y="870"/>
      <point x="519" y="835"/>
      <point x="519" y="782" type="curve" smooth="yes"/>
      <point x="519" y="728"/>
      <point x="470" y="692"/>
    </contour>
  </outline>
</glyph>
<glyph name="germandbls" format="2">
  <advance width="708"/>
  <unicode hex="00DF"/>
  <anchor x="354" y="0" name="bottom"/>
  <anchor x="354" y="755" name="top"/>
  <outline>
    <contour>
      <point x="467" y="-10" type="curve" smooth="yes"/>
      <point x="560" y="-10"/>
      <point x="642" y="42"/>
      <point x="642" y="127" type="curve" smooth="yes"/>
      <point x="642" y="210"/>
      <point x="585" y="249"/>
      <point x="486" y="293" type="curve" smooth="yes"/>
      <point x="377" y="339"/>
      <point x="357" y="362"/>
      <point x="357" y="408" type="curve" smooth="yes"/>
      <point x="357" y="445"/>
      <point x="371" y="502"/>
      <point x="552" y="502" type="curve" smooth="yes"/>
      <point x="579" y="502" type="line"/>
      <point x="578" y="646"/>
      <point x="555" y="755"/>
      <point x="368" y="755" type="curve" smooth="yes"/>
      <point x="277" y="755"/>
      <point x="167" y="723"/>
      <point x="167" y="594" type="curve" smooth="yes"/>
      <point x="167" y="536" type="line"/>
      <point x="47" y="536" type="line"/>
      <point x="47" y="511" type="line"/>
      <point x="167" y="511" type="line"/>
      <point x="167" y="85" type="line" smooth="yes"/>
      <point x="167" y="19"/>
      <point x="161" y="20"/>
      <point x="81" y="20" type="curve" smooth="yes"/>
      <point x="42" y="20" type="line"/>
      <point x="42" y="0" type="line"/>
      <point x="195" y="0" type="line"/>
      <point x="195" y="604" type="line" smooth="yes"/>
      <point x="195" y="684"/>
      <point x="253" y="730"/>
      <point x="371" y="730" type="curve" smooth="yes"/>
      <point x="517" y="730"/>
      <point x="549" y="639"/>
      <point x="549" y="527" type="curve"/>
      <point x="388" y="524"/>
      <point x="329" y="486"/>
      <point x="329" y="407" type="curve" smooth="yes"/>
      <point x="329" y="318"/>
      <point x="419" y="300"/>
      <point x="491" y="262" type="curve" smooth="yes"/>
      <point x="568" y="234"/>
      <point x="614" y="191"/>
      <point x="614" y="129" type="curve" smooth="yes"/>
      <point x="614" y="62"/>
      <point x="561" y="15"/>
      <point x="469" y="15" type="curve" smooth="yes"/>
      <point x="400" y="15"/>
      <point x="320" y="28"/>
      <point x="318" y="142" type="curve"/>
      <point x="297" y="142"/>
      <point x="287" y="108"/>
      <point x="287" y="107" type="curve" smooth="yes"/>
      <point x="287" y="33"/>
      <point x="385" y="-10"/>
    </contour>
  </outline>
</glyph>
<glyph name="dcroat" format="2">
  <advance width="701"/>
  <unicode hex="0111"/>
  <anchor x="350" y="0" name="bottom"/>
  <anchor x="350" y="760" name="top"/>
  <outline>
    <contour>
      <point x="320" y="-10" type="curve" smooth="yes"/>
      <point x="436" y="-10"/>
      <point x="503" y="55"/>
      <point x="538" y="149" type="curve"/>
      <point x="540" y="149" type="line"/>
      <point x="544" y="0" type="line"/>
      <point x="681" y="0" type="line"/>
      <point x="681" y="20" type="line"/>
      <point x="649" y="20" type="line" smooth="yes"/>
      <point x="571" y="20"/>
      <point x="568" y="21"/>
      <point x="568" y="102" type="curve" smooth="yes"/>
      <point x="568" y="613" type="line"/>
      <point x="672" y="613" type="line"/>
      <point x="672" y="638" type="line"/>
      <point x="568" y="638" type="line"/>
      <point x="568" y="760" type="line"/>
      <point x="423" y="760" type="line"/>
      <point x="423" y="740" type="line"/>
      <point x="472" y="740" type="line" smooth="yes"/>
      <point x="530" y="740"/>
      <point x="540" y="737"/>
      <point x="540" y="668" type="curve" smooth="yes"/>
      <point x="540" y="638" type="line"/>
      <point x="295" y="638" type="line"/>
      <point x="295" y="613" type="line"/>
      <point x="540" y="613" type="line"/>
      <point x="540" y="526" type="line" smooth="yes"/>
      <point x="540" y="505"/>
      <point x="541" y="464"/>
      <point x="539" y="421" type="curve"/>
      <point x="535" y="421" type="line"/>
      <point x="504" y="490"/>
      <point x="424" y="526"/>
      <point x="310" y="526" type="curve" smooth="yes"/>
      <point x="140" y="526"/>
      <point x="83" y="394"/>
      <point x="83" y="251" type="curve" smooth="yes"/>
      <point x="83" y="100"/>
      <point x="166" y="-10"/>
    </contour>
    <contour>
      <point x="317" y="13" type="curve" smooth="yes"/>
      <point x="205" y="9"/>
      <point x="111" y="103"/>
      <point x="111" y="247" type="curve" smooth="yes"/>
      <point x="111" y="384"/>
      <point x="156" y="501"/>
      <point x="314" y="501" type="curve" smooth="yes"/>
      <point x="490" y="501"/>
      <point x="541" y="423"/>
      <point x="541" y="253" type="curve" smooth="yes"/>
      <point x="541" y="143"/>
      <point x="471" y="17"/>
    </contour>
  </outline>
</glyph>
<glyph name="Hbar" format="2">
  <advance width="939"/>
  <unicode hex="0126"/>
  <anchor x="470" y="0" name="bottom"/>
  <anchor x="470" y="714" name="top"/>
  <outline>
    <contour>
      <point x="63" y="0" type="line"/>
      <point x="337" y="0" type="line"/>
      <point x="337" y="20" type="line"/>
      <point x="268" y="20" type="line" smooth="yes"/>
      <point x="222" y="20"/>
      <point x="216" y="31"/>
      <point x="216" y="108" type="curve" smooth="yes"/>
      <point x="216" y="361" type="line"/>
      <point x="724" y="361" type="line"/>
      <point x="724" y="108" type="line" smooth="yes"/>
      <point x="724" y="31"/>
      <point x="716" y="20"/>
      <point x="670" y="20" type="curve" smooth="yes"/>
      <point x="603" y="20" type="line"/>
      <point x="603" y="0" type="line"/>
      <point x="875" y="0" type="line"/>
      <point x="875" y="20" type="line"/>
      <point x="806" y="20" type="line" smooth="yes"/>
      <point x="758" y="20"/>
      <point x="752" y="31"/>
      <point x="752" y="108" type="curve" smooth="yes"/>
      <point x="752" y="522" type="line"/>
      <point x="856" y="522" type="line"/>
      <point x="856" y="547" type="line"/>
      <point x="752" y="547" type="line"/>
      <point x="752" y="604" type="line" smooth="yes"/>
      <point x="752" y="683"/>
      <point x="758" y="694"/>
      <point x="806" y="694" type="curve" smooth="yes"/>
      <point x="875" y="694" type="line"/>
      <point x="875" y="714" type="line"/>
      <point x="603" y="714" type="line"/>
      <point x="603" y="694" type="line"/>
      <point x="666" y="694" type="line" smooth="yes"/>
      <point x="718" y="694"/>
      <point x="724" y="683"/>
      <point x="724" y="604" type="curve" smooth="yes"/>
      <point x="724" y="547" type="line"/>
      <point x="216" y="547" type="line"/>
      <point x="216" y="604" type="line" smooth="yes"/>
      <point x="216" y="683"/>
      <point x="222" y="694"/>
      <point x="270" y="694" type="curve" smooth="yes"/>
      <point x="337" y="694" type="line"/>
      <point x="337" y="714" type="line"/>
      <point x="63" y="714" type="line"/>
      <point x="63" y="694" type="line"/>
      <point x="126" y="694" type="line" smooth="yes"/>
      <point x="186" y="694"/>
      <point x="188" y="683"/>
      <point x="188" y="604" type="curve" smooth="yes"/>
      <point x="188" y="547" type="line"/>
      <point x="83" y="547" type="line"/>
      <point x="83" y="522" type="line"/>
      <point x="188" y="522" type="line"/>
      <point x="188" y="108" type="line" smooth="yes"/>
      <point x="188" y="31"/>
      <point x="180" y="20"/>
      <point x="138" y="20" type="curve" smooth="yes"/>
      <point x="63" y="20" type="line"/>
    </contour>
    <contour>
      <point x="216" y="386" type="line"/>
      <point x="216" y="522" type="line"/>
      <point x="724" y="522" type="line"/>
      <point x="724" y="386" type="line"/>
    </contour>
  </outline>
</glyph>
<glyph name="lslash" format="2">
  <advance width="288"/>
  <unicode hex="0142"/>
  <anchor x="144" y="0" name="bottom"/>
  <anchor x="144" y="760" name="top"/>
  <outline>
    <contour>
      <point x="-16" y="0" type="line"/>
      <point x="279" y="0" type="line"/>
      <point x="279" y="20" type="line"/>
      <point x="233" y="20" type="line" smooth="yes"/>
      <point x="176" y="20"/>
      <point x="146" y="34"/>
      <point x="146" y="102" type="curve" smooth="yes"/>
      <point x="146" y="411" type="line"/>
      <point x="293" y="485" type="line"/>
      <point x="293" y="509" type="line"/>
      <point x="146" y="433" type="line"/>
      <point x="146" y="760" type="line"/>
      <point x="-16" y="760" type="line"/>
      <point x="-16" y="740" type="line"/>
      <point x="21" y="740" type="line" smooth="yes"/>
      <point x="89" y="740"/>
      <point x="118" y="722"/>
      <point x="118" y="666" type="curve" smooth="yes"/>
      <point x="118" y="422" type="line"/>
      <point x="6" y="367" type="line"/>
      <point x="6" y="345" type="line"/>
      <point x="118" y="398" type="line"/>
      <point x="118" y="102" type="line" smooth="yes"/>
      <point x="118" y="34"/>
      <point x="88" y="20"/>
      <point x="31" y="20" type="curve" smooth="yes"/>
      <point x="-16" y="20" type="line"/>
    </contour>
  </outline>
</glyph>
<glyph name="Tbar" format="2">
  <advance width="690"/>
  <unicode hex="0166"/>
  <anchor x="346" y="0" name="bottom"/>
  <anchor x="346" y="714" name="top"/>
  <outline>
    <contour>
      <point x="176" y="0" type="line"/>
      <point x="507" y="0" type="line"/>
      <point x="507" y="20" type="line"/>
      <point x="418" y="20" type="line" smooth="yes"/>
      <point x="360" y="20"/>
      <point x="356" y="31"/>
      <point x="356" y="108" type="curve" smooth="yes"/>
      <point x="356" y="360" type="line"/>
      <point x="504" y="360" type="line"/>
      <point x="504" y="385" type="line"/>
      <point x="356" y="385" type="line"/>
      <point x="356" y="689" type="line"/>
      <point x="530" y="689" type="line" smooth="yes"/>
      <point x="598" y="689"/>
      <point x="618" y="697"/>
      <point x="622" y="632" type="curve" smooth="yes"/>
      <point x="626" y="563" type="line"/>
      <point x="646" y="563" type="line"/>
      <point x="638" y="714" type="line"/>
      <point x="49" y="714" type="line"/>
      <point x="41" y="563" type="line"/>
      <point x="61" y="563" type="line"/>
      <point x="67" y="650" type="line" smooth="yes"/>
      <point x="69" y="681"/>
      <point x="91" y="689"/>
      <point x="119" y="689" type="curve" smooth="yes"/>
      <point x="328" y="689" type="line"/>
      <point x="328" y="385" type="line"/>
      <point x="175" y="385" type="line"/>
      <point x="175" y="360" type="line"/>
      <point x="328" y="360" type="line"/>
      <point x="328" y="108" type="line" smooth="yes"/>
      <point x="328" y="31"/>
      <point x="320" y="20"/>
      <point x="276" y="20" type="curve" smooth="yes"/>
      <point x="176" y="20" type="line"/>
    </contour>
  </outline>
</glyph>
<glyph name="uni0186" format="2">
  <advance width="685"/>
  <unicode hex="0186"/>
  <anchor x="342" y="0" name="bottom"/>
  <anchor x="342" y="714" name="top"/>
  <outline>
    <contour>
      <point x="278" y="-10" type="curve" smooth="yes"/>
      <point x="501" y="-10"/>
      <point x="617" y="115"/>
      <point x="617" y="354" type="curve" smooth="yes"/>
      <point x="617" y="583"/>
      <point x="494" y="724"/>
      <point x="276" y="724" type="curve" smooth="yes"/>
      <point x="115" y="724"/>
      <point x="44" y="638"/>
      <point x="44" y="644" type="curve" smooth="yes"/>
      <point x="44" y="654"/>
      <point x="44" y="650"/>
      <point x="49" y="640" type="curve"/>
      <point x="97" y="660"/>
      <point x="162" y="699"/>
      <point x="277" y="699" type="curve" smooth="yes"/>
      <point x="473" y="699"/>
      <point x="589" y="581"/>
      <point x="589" y="354" type="curve" smooth="yes"/>
      <point x="589" y="134"/>
      <point x="481" y="15"/>
      <point x="290" y="15" type="curve" smooth="yes"/>
      <point x="86" y="15"/>
      <point x="43" y="73"/>
      <point x="63" y="180" type="curve"/>
      <point x="53" y="185"/>
      <point x="28" y="163"/>
      <point x="28" y="124" type="curve" smooth="yes"/>
      <point x="28" y="66"/>
      <point x="83" y="-10"/>
    </contour>
  </outline>
</glyph>
<glyph name="uni0187" format="2">
  <advance width="673"/>
  <unicode hex="0187"/>
  <anchor x="336" y="0" name="bottom"/>
  <anchor x="336" y="714" name="top"/>
  <outline>
    <contour>
      <point x="394" y="-10" type="curve" smooth="yes"/>
      <point x="565" y="-10"/>
      <point x="621" y="82"/>
      <point x="621" y="88" type="curve" smooth="yes"/>
      <point x="621" y="93"/>
      <point x="618" y="105"/>
      <point x="608" y="110" type="curve"/>
      <point x="582" y="63"/>
      <point x="516" y="15"/>
      <point x="392" y="15" type="curve" smooth="yes"/>
      <point x="193" y="15"/>
      <point x="98" y="132"/>
      <point x="98" y="358" type="curve" smooth="yes"/>
      <point x="98" y="579"/>
      <point x="202" y="699"/>
      <point x="380" y="699" type="curve" smooth="yes"/>
      <point x="511" y="699"/>
      <point x="602" y="686"/>
      <point x="602" y="570" type="curve"/>
      <point x="623" y="576"/>
      <point x="629" y="592"/>
      <point x="629" y="596" type="curve" smooth="yes"/>
      <point x="629" y="737" type="line" smooth="yes"/>
      <point x="629" y="794"/>
      <point x="640" y="809"/>
      <point x="693" y="809" type="curve" smooth="yes"/>
      <point x="715" y="809"/>
      <point x="723" y="805"/>
      <point x="753" y="806" type="curve"/>
      <point x="755" y="808"/>
      <point x="758" y="814"/>
      <point x="758" y="817" type="curve" smooth="yes"/>
      <point x="758" y="826"/>
      <point x="721" y="832"/>
      <point x="699" y="832" type="curve" smooth="yes"/>
      <point x="596" y="832"/>
      <point x="601" y="775"/>
      <point x="601" y="747" type="curve" smooth="yes"/>
      <point x="601" y="657" type="line"/>
      <point x="568" y="703"/>
      <point x="491" y="724"/>
      <point x="391" y="724" type="curve" smooth="yes"/>
      <point x="180" y="724"/>
      <point x="70" y="593"/>
      <point x="70" y="358" type="curve" smooth="yes"/>
      <point x="70" y="125"/>
      <point x="173" y="-10"/>
    </contour>
  </outline>
</glyph>
<glyph name="uni0195" format="2">
  <advance width="1075"/>
  <unicode hex="0195"/>
  <anchor x="538" y="0" name="bottom"/>
  <anchor x="538" y="536" name="top"/>
  <outline>
    <contour>
      <point x="771" y="-10" type="curve" smooth="yes"/>
      <point x="881" y="-10"/>
      <point x="971" y="56"/>
      <point x="971" y="145" type="curve" smooth="yes"/>
      <point x="971" y="536" type="line"/>
      <point x="810" y="536" type="line"/>
      <point x="810" y="516" type="line"/>
      <point x="891" y="516" type="line" smooth="yes"/>
      <point x="917" y="516"/>
      <point x="943" y="512"/>
      <point x="943" y="458" type="curve" smooth="yes"/>
      <point x="943" y="191" type="line" smooth="yes"/>
      <point x="943" y="130"/>
      <point x="919" y="15"/>
      <point x="771" y="15" type="curve" smooth="yes"/>
      <point x="608" y="15"/>
      <point x="593" y="148"/>
      <point x="593" y="196" type="curve" smooth="yes"/>
      <point x="593" y="360" type="line" smooth="yes"/>
      <point x="593" y="496"/>
      <point x="525" y="542"/>
      <point x="393" y="542" type="curve" smooth="yes"/>
      <point x="249" y="542"/>
      <point x="194" y="476"/>
      <point x="175" y="419" type="curve"/>
      <point x="173" y="419" type="line"/>
      <point x="175" y="425"/>
      <point x="176" y="447"/>
      <point x="176" y="469" type="curve" smooth="yes"/>
      <point x="176" y="760" type="line"/>
      <point x="25" y="760" type="line"/>
      <point x="25" y="740" type="line"/>
      <point x="77" y="740" type="line" smooth="yes"/>
      <point x="139" y="740"/>
      <point x="148" y="741"/>
      <point x="148" y="660" type="curve" smooth="yes"/>
      <point x="148" y="92" type="line" smooth="yes"/>
      <point x="148" y="22"/>
      <point x="144" y="20"/>
      <point x="69" y="20" type="curve" smooth="yes"/>
      <point x="20" y="20" type="line"/>
      <point x="20" y="0" type="line"/>
      <point x="297" y="0" type="line"/>
      <point x="297" y="20" type="line"/>
      <point x="258" y="20" type="line" smooth="yes"/>
      <point x="180" y="20"/>
      <point x="176" y="22"/>
      <point x="176" y="92" type="curve" smooth="yes"/>
      <point x="176" y="335" type="line" smooth="yes"/>
      <point x="176" y="463"/>
      <point x="270" y="517"/>
      <point x="399" y="517" type="curve" smooth="yes"/>
      <point x="511" y="517"/>
      <point x="565" y="474"/>
      <point x="565" y="356" type="curve" smooth="yes"/>
      <point x="565" y="147" type="line" smooth="yes"/>
      <point x="565" y="78"/>
      <point x="643" y="-10"/>
    </contour>
  </outline>
</glyph>
<glyph name="uni0197" format="2">
  <advance width="397"/>
  <unicode hex="0197"/>
  <anchor x="199" y="0" name="bottom"/>
  <anchor x="199" y="714" name="top"/>
  <outline>
    <contour>
      <point x="64" y="0" type="line"/>
      <point x="330" y="0" type="line"/>
      <point x="330" y="20" type="line"/>
      <point x="274" y="20" type="line" smooth="yes"/>
      <point x="218" y="20"/>
      <point x="214" y="31"/>
      <point x="214" y="108" type="curve" smooth="yes"/>
      <point x="214" y="360" type="line"/>
      <point x="295" y="360" type="line"/>
      <point x="295" y="385" type="line"/>
      <point x="214" y="385" type="line"/>
      <point x="214" y="604" type="line" smooth="yes"/>
      <point x="214" y="683"/>
      <point x="216" y="694"/>
      <point x="276" y="694" type="curve" smooth="yes"/>
      <point x="330" y="694" type="line"/>
      <point x="330" y="714" type="line"/>
      <point x="64" y="714" type="line"/>
      <point x="64" y="694" type="line"/>
      <point x="134" y="694" type="line" smooth="yes"/>
      <point x="178" y="694"/>
      <point x="186" y="683"/>
      <point x="186" y="604" type="curve" smooth="yes"/>
      <point x="186" y="385" type="line"/>
      <point x="102" y="385" type="line"/>
      <point x="102" y="360" type="line"/>
      <point x="186" y="360" type="line"/>
      <point x="186" y="108" type="line" smooth="yes"/>
      <point x="186" y="31"/>
      <point x="182" y="20"/>
      <point x="128" y="20" type="curve" smooth="yes"/>
      <point x="64" y="20" type="line"/>
    </contour>
  </outline>
</glyph>
<glyph name="uni0199" format="2">
  <advance width="637"/>
  <unicode hex="0199"/>
  <anchor x="319" y="0" name="bottom"/>
  <anchor x="319" y="766" name="top"/>
  <outline>
    <contour>
      <point x="26" y="0" type="line"/>
      <point x="285" y="0" type="line"/>
      <point x="285" y="20" type="line"/>
      <point x="262" y="20" type="line" smooth="yes"/>
      <point x="180" y="20"/>
      <point x="176" y="22"/>
      <point x="176" y="92" type="curve" smooth="yes"/>
      <point x="176" y="174" type="line"/>
      <point x="318" y="301" type="line"/>
      <point x="455" y="119" type="line" smooth="yes"/>
      <point x="537" y="8"/>
      <point x="542" y="0"/>
      <point x="618" y="0" type="curve" smooth="yes"/>
      <point x="640" y="0" type="line"/>
      <point x="640" y="20" type="line"/>
      <point x="639" y="20" type="line" smooth="yes"/>
      <point x="595" y="20"/>
      <point x="553" y="37"/>
      <point x="489" y="118" type="curve" smooth="yes"/>
      <point x="338" y="314" type="line"/>
      <point x="586" y="569" type="line" smooth="yes"/>
      <point x="554" y="512"/>
      <point x="563" y="516"/>
      <point x="609" y="516" type="curve"/>
      <point x="609" y="536" type="line"/>
      <point x="407" y="536" type="line"/>
      <point x="407" y="516" type="line"/>
      <point x="467" y="516"/>
      <point x="491" y="514"/>
      <point x="491" y="498" type="curve" smooth="yes"/>
      <point x="491" y="463"/>
      <point x="415" y="400"/>
      <point x="333" y="338" type="curve" smooth="yes"/>
      <point x="176" y="208" type="line"/>
      <point x="173" y="278"/>
      <point x="176" y="308"/>
      <point x="176" y="375" type="curve" smooth="yes"/>
      <point x="176" y="707" type="line" smooth="yes"/>
      <point x="176" y="743"/>
      <point x="237" y="737"/>
      <point x="264" y="737" type="curve" smooth="yes"/>
      <point x="286" y="737"/>
      <point x="318" y="752"/>
      <point x="366" y="714" type="curve"/>
      <point x="363" y="718"/>
      <point x="365" y="711"/>
      <point x="365" y="715" type="curve" smooth="yes"/>
      <point x="365" y="737"/>
      <point x="332" y="766"/>
      <point x="269" y="766" type="curve" smooth="yes"/>
      <point x="188" y="766"/>
      <point x="148" y="716"/>
      <point x="148" y="723" type="curve" smooth="yes"/>
      <point x="148" y="92" type="line" smooth="yes"/>
      <point x="148" y="22"/>
      <point x="148" y="20"/>
      <point x="55" y="20" type="curve" smooth="yes"/>
      <point x="26" y="20" type="line"/>
    </contour>
  </outline>
</glyph>
<glyph name="Ohorn" format="2">
  <advance width="899"/>
  <unicode hex="01A0"/>
  <anchor x="449" y="0" name="bottom"/>
  <anchor x="449" y="714" name="top"/>
  <outline>
    <contour>
      <point x="422" y="-10" type="curve" smooth="yes"/>
      <point x="686" y="-10"/>
      <point x="769" y="145"/>
      <point x="769" y="358" type="curve" smooth="yes"/>
      <point x="769" y="432"/>
      <point x="758" y="501"/>
      <point x="731" y="557" type="curve"/>
      <point x="799" y="555"/>
      <point x="870" y="603"/>
      <point x="870" y="702" type="curve" smooth="yes"/>
      <point x="870" y="744"/>
      <point x="857" y="770"/>
      <point x="835" y="770" type="curve" smooth="yes"/>
      <point x="826" y="770"/>
      <point x="810" y="766"/>
      <point x="810" y="751" type="curve" smooth="yes"/>
      <point x="810" y="710"/>
      <point x="850" y="718"/>
      <point x="850" y="680" type="curve" smooth="yes"/>
      <point x="850" y="625"/>
      <point x="778" y="565"/>
      <point x="722" y="575" type="curve"/>
      <point x="672" y="668"/>
      <point x="578" y="725"/>
      <point x="423" y="725" type="curve" smooth="yes"/>
      <point x="196" y="725"/>
      <point x="72" y="588"/>
      <point x="72" y="359" type="curve" smooth="yes"/>
      <point x="72" y="113"/>
      <point x="190" y="-10"/>
    </contour>
    <contour>
      <point x="422" y="15" type="curve" smooth="yes"/>
      <point x="207" y="15"/>
      <point x="100" y="133"/>
      <point x="100" y="358" type="curve" smooth="yes"/>
      <point x="100" y="572"/>
      <point x="213" y="700"/>
      <point x="423" y="700" type="curve" smooth="yes"/>
      <point x="654" y="700"/>
      <point x="741" y="572"/>
      <point x="741" y="358" type="curve" smooth="yes"/>
      <point x="741" y="144"/>
      <point x="656" y="15"/>
    </contour>
  </outline>
</glyph>
<glyph name="uni01AC" format="2">
  <advance width="736"/>
  <unicode hex="01AC"/>
  <anchor x="368" y="0" name="bottom"/>
  <anchor x="368" y="714" name="top"/>
  <outline>
    <contour>
      <point x="223" y="0" type="line"/>
      <point x="554" y="0" type="line"/>
      <point x="554" y="20" type="line"/>
      <point x="459" y="20" type="line" smooth="yes"/>
      <point x="409" y="20"/>
      <point x="403" y="31"/>
      <point x="403" y="108" type="curve" smooth="yes"/>
      <point x="403" y="689" type="line"/>
      <point x="605" y="689" type="line" smooth="yes"/>
      <point x="645" y="689"/>
      <point x="665" y="689"/>
      <point x="669" y="624" type="curve" smooth="yes"/>
      <point x="673" y="563" type="line"/>
      <point x="693" y="563" type="line"/>
      <point x="685" y="714" type="line"/>
      <point x="138" y="714" type="line" smooth="yes"/>
      <point x="62" y="714"/>
      <point x="24" y="680"/>
      <point x="24" y="631" type="curve" smooth="yes"/>
      <point x="24" y="585"/>
      <point x="42" y="567"/>
      <point x="54" y="567" type="curve" smooth="yes"/>
      <point x="70" y="567"/>
      <point x="74" y="573"/>
      <point x="79" y="577" type="curve"/>
      <point x="67" y="588"/>
      <point x="52" y="608"/>
      <point x="52" y="637" type="curve" smooth="yes"/>
      <point x="52" y="675"/>
      <point x="92" y="689"/>
      <point x="143" y="689" type="curve" smooth="yes"/>
      <point x="375" y="689" type="line"/>
      <point x="375" y="108" type="line" smooth="yes"/>
      <point x="375" y="31"/>
      <point x="369" y="20"/>
      <point x="313" y="20" type="curve" smooth="yes"/>
      <point x="223" y="20" type="line"/>
    </contour>
  </outline>
</glyph>
<glyph name="uni01B8" format="2">
  <advance width="672"/>
  <unicode hex="01B8"/>
  <anchor x="337" y="0" name="bottom"/>
  <anchor x="337" y="714" name="top"/>
  <outline>
    <contour>
      <point x="338" y="-8" type="curve" smooth="yes"/>
      <point x="454" y="-8"/>
      <point x="547" y="47"/>
      <point x="547" y="74" type="curve" smooth="yes"/>
      <point x="547" y="93"/>
      <point x="538" y="95"/>
      <point x="530" y="91" type="curve"/>
      <point x="530" y="54"/>
      <point x="420" y="17"/>
      <point x="340" y="17" type="curve" smooth="yes"/>
      <point x="211" y="17"/>
      <point x="134" y="105"/>
      <point x="134" y="216" type="curve" smooth="yes"/>
      <point x="134" y="307"/>
      <point x="211" y="382"/>
      <point x="428" y="382" type="curve" smooth="yes"/>
      <point x="461" y="382" type="line"/>
      <point x="461" y="410" type="line"/>
      <point x="175" y="689" type="line"/>
      <point x="508" y="689" type="line" smooth="yes"/>
      <point x="542" y="689"/>
      <point x="544" y="673"/>
      <point x="550" y="630" type="curve" smooth="yes"/>
      <point x="555" y="586" type="line"/>
      <point x="575" y="586" type="line"/>
      <point x="568" y="714" type="line"/>
      <point x="111" y="714" type="line"/>
      <point x="111" y="699" type="line"/>
      <point x="427" y="409" type="line"/>
      <point x="157" y="409"/>
      <point x="106" y="295"/>
      <point x="106" y="210" type="curve" smooth="yes"/>
      <point x="106" y="88"/>
      <point x="186" y="-8"/>
    </contour>
  </outline>
</glyph>
<glyph name="uni01B9" format="2">
  <advance width="544"/>
  <unicode hex="01B9"/>
  <anchor x="273" y="-240" name="bottom"/>
  <anchor x="273" y="536" name="top"/>
  <outline>
    <contour>
      <point x="309" y="-240" type="curve" smooth="yes"/>
      <point x="407" y="-240"/>
      <point x="488" y="-190"/>
      <point x="488" y="-164" type="curve" smooth="yes"/>
      <point x="488" y="-151"/>
      <point x="480" y="-148"/>
      <point x="473" y="-151" type="curve"/>
      <point x="462" y="-187"/>
      <point x="375" y="-215"/>
      <point x="311" y="-215" type="curve" smooth="yes"/>
      <point x="190" y="-215"/>
      <point x="101" y="-128"/>
      <point x="101" y="3" type="curve" smooth="yes"/>
      <point x="101" y="96"/>
      <point x="168" y="180"/>
      <point x="342" y="180" type="curve" smooth="yes"/>
      <point x="391" y="180" type="line"/>
      <point x="391" y="210" type="line"/>
      <point x="127" y="513" type="line"/>
      <point x="463" y="513" type="line" smooth="yes"/>
      <point x="491" y="513"/>
      <point x="490" y="517"/>
      <point x="494" y="512" type="curve" smooth="yes"/>
      <point x="505" y="429" type="line"/>
      <point x="525" y="429" type="line"/>
      <point x="522" y="538" type="line"/>
      <point x="79" y="538" type="line"/>
      <point x="79" y="522" type="line"/>
      <point x="357" y="211" type="line"/>
      <point x="108" y="204"/>
      <point x="73" y="72"/>
      <point x="73" y="-11" type="curve" smooth="yes"/>
      <point x="73" y="-142"/>
      <point x="164" y="-240"/>
    </contour>
  </outline>
</glyph>
<glyph name="uni01C1" format="2">
  <advance width="692"/>
  <unicode hex="01C1"/>
  <anchor x="346" y="0" name="bottom"/>
  <anchor x="346" y="760" name="top"/>
  <outline>
    <contour>
      <point x="448" y="0" type="line"/>
      <point x="476" y="0" type="line"/>
      <point x="476" y="760" type="line"/>
      <point x="448" y="760" type="line"/>
    </contour>
    <contour>
      <point x="216" y="0" type="line"/>
      <point x="244" y="0" type="line"/>
      <point x="244" y="760" type="line"/>
      <point x="216" y="760" type="line"/>
    </contour>
  </outline>
</glyph>
<glyph name="uni01C2" format="2">
  <advance width="682"/>
  <unicode hex="01C2"/>
  <anchor x="341" y="0" name="bottom"/>
  <anchor x="341" y="760" name="top"/>
  <outline>
    <contour>
      <point x="327" y="0" type="line"/>
      <point x="355" y="0" type="line"/>
      <point x="355" y="272" type="line"/>
      <point x="623" y="272" type="line"/>
      <point x="623" y="297" type="line"/>
      <point x="355" y="297" type="line"/>
      <point x="355" y="461" type="line"/>
      <point x="623" y="461" type="line"/>
      <point x="623" y="486" type="line"/>
      <point x="355" y="486" type="line"/>
      <point x="355" y="760" type="line"/>
      <point x="327" y="760" type="line"/>
      <point x="327" y="486" type="line"/>
      <point x="62" y="486" type="line"/>
      <point x="62" y="461" type="line"/>
      <point x="327" y="461" type="line"/>
      <point x="327" y="297" type="line"/>
      <point x="62" y="297" type="line"/>
      <point x="62" y="272" type="line"/>
      <point x="327" y="272" type="line"/>
    </contour>
  </outline>
</glyph>
<glyph name="eturned" format="2">
  <advance width="599"/>
  <unicode hex="01DD"/>
  <anchor x="300" y="0" name="bottom"/>
  <anchor x="300" y="536" name="top"/>
  <outline>
    <contour>
      <point x="281" y="-10" type="curve" smooth="yes"/>
      <point x="434" y="-10"/>
      <point x="518" y="80"/>
      <point x="518" y="270" type="curve" smooth="yes"/>
      <point x="518" y="446"/>
      <point x="423" y="542"/>
      <point x="271" y="542" type="curve" smooth="yes"/>
      <point x="144" y="542"/>
      <point x="79" y="476"/>
      <point x="79" y="439" type="curve" smooth="yes"/>
      <point x="79" y="434"/>
      <point x="81" y="430"/>
      <point x="88" y="425" type="curve"/>
      <point x="118" y="481"/>
      <point x="175" y="517"/>
      <point x="269" y="517" type="curve" smooth="yes"/>
      <point x="397" y="517"/>
      <point x="492" y="423"/>
      <point x="488" y="250" type="curve"/>
      <point x="64" y="250" type="line"/>
      <point x="64" y="243" type="line" smooth="yes"/>
      <point x="64" y="81"/>
      <point x="153" y="-10"/>
    </contour>
    <contour>
      <point x="283" y="15" type="curve" smooth="yes"/>
      <point x="166" y="15"/>
      <point x="92" y="101"/>
      <point x="92" y="227" type="curve"/>
      <point x="484" y="227" type="line"/>
      <point x="474" y="99"/>
      <point x="429" y="15"/>
    </contour>
  </outline>
</glyph>
<glyph name="uni021D" format="2">
  <advance width="525"/>
  <unicode hex="021D"/>
  <anchor x="261" y="-206" name="bottom"/>
  <anchor x="258" y="536" name="top"/>
  <outline>
    <contour>
      <point x="50" y="-240" type="line"/>
      <point x="321" y="-195"/>
      <point x="485" y="-127"/>
      <point x="485" y="48" type="curve" smooth="yes"/>
      <point x="485" y="149"/>
      <point x="413" y="203"/>
      <point x="340" y="235" type="curve"/>
      <point x="409" y="261"/>
      <point x="468" y="315"/>
      <point x="468" y="399" type="curve" smooth="yes"/>
      <point x="468" y="484"/>
      <point x="404" y="549"/>
      <point x="262" y="549" type="curve" smooth="yes"/>
      <point x="150" y="549"/>
      <point x="74" y="522"/>
      <point x="74" y="470" type="curve" smooth="yes"/>
      <point x="74" y="448"/>
      <point x="82" y="438"/>
      <point x="99" y="438" type="curve"/>
      <point x="99" y="514"/>
      <point x="182" y="524"/>
      <point x="263" y="524" type="curve" smooth="yes"/>
      <point x="365" y="524"/>
      <point x="442" y="477"/>
      <point x="442" y="393" type="curve" smooth="yes"/>
      <point x="442" y="288"/>
      <point x="354" y="258"/>
      <point x="180" y="210" type="curve"/>
      <point x="184" y="186" type="line"/>
      <point x="313" y="225" type="line"/>
      <point x="380" y="193"/>
      <point x="457" y="146"/>
      <point x="457" y="47" type="curve" smooth="yes"/>
      <point x="457" y="-120"/>
      <point x="278" y="-178"/>
      <point x="50" y="-219" type="curve"/>
    </contour>
  </outline>
</glyph>
<glyph name="uni0223" format="2">
  <advance width="609"/>
  <unicode hex="0223"/>
  <anchor x="305" y="0" name="bottom"/>
  <anchor x="305" y="765" name="top"/>
  <outline>
    <contour>
      <point x="308" y="-10" type="curve" smooth="yes"/>
      <point x="431" y="-10"/>
      <point x="528" y="52"/>
      <point x="528" y="218" type="curve" smooth="yes"/>
      <point x="528" y="313"/>
      <point x="495" y="415"/>
      <point x="376" y="451" type="curve"/>
      <point x="479" y="472"/>
      <point x="508" y="565"/>
      <point x="508" y="644" type="curve" smooth="yes"/>
      <point x="508" y="710"/>
      <point x="480" y="761"/>
      <point x="436" y="765" type="curve"/>
      <point x="453" y="735"/>
      <point x="480" y="717"/>
      <point x="480" y="637" type="curve" smooth="yes"/>
      <point x="480" y="568"/>
      <point x="444" y="463"/>
      <point x="306" y="463" type="curve" smooth="yes"/>
      <point x="169" y="463"/>
      <point x="130" y="567"/>
      <point x="130" y="637" type="curve" smooth="yes"/>
      <point x="130" y="717"/>
      <point x="157" y="735"/>
      <point x="175" y="765" type="curve"/>
      <point x="132" y="763"/>
      <point x="102" y="713"/>
      <point x="102" y="647" type="curve" smooth="yes"/>
      <point x="102" y="554"/>
      <point x="131" y="472"/>
      <point x="230" y="451" type="curve"/>
      <point x="123" y="421"/>
      <point x="82" y="336"/>
      <point x="82" y="218" type="curve" smooth="yes"/>
      <point x="82" y="51"/>
      <point x="184" y="-10"/>
    </contour>
    <contour>
      <point x="307" y="15" type="curve" smooth="yes"/>
      <point x="154" y="15"/>
      <point x="110" y="129"/>
      <point x="110" y="219" type="curve" smooth="yes"/>
      <point x="110" y="361"/>
      <point x="168" y="440"/>
      <point x="306" y="440" type="curve" smooth="yes"/>
      <point x="457" y="440"/>
      <point x="500" y="338"/>
      <point x="500" y="219" type="curve" smooth="yes"/>
      <point x="500" y="129"/>
      <point x="459" y="15"/>
    </contour>
  </outline>
</glyph>
<glyph name="uni0224" format="2">
  <advance width="604"/>
  <unicode hex="0224"/>
  <anchor x="302" y="0" name="bottom"/>
  <anchor x="302" y="714" name="top"/>
  <outline>
    <contour>
      <point x="488" y="-123" type="curve"/>
      <point x="518" y="-130"/>
      <point x="556" y="-112"/>
      <point x="556" y="-54" type="curve" smooth="yes"/>
      <point x="556" y="4"/>
      <point x="518" y="25"/>
      <point x="423" y="25" type="curve" smooth="yes"/>
      <point x="70" y="25" type="line"/>
      <point x="546" y="677" type="line"/>
      <point x="546" y="714" type="line"/>
      <point x="63" y="714" type="line"/>
      <point x="57" y="582" type="line"/>
      <point x="77" y="582" type="line"/>
      <point x="84" y="668" type="line" smooth="yes"/>
      <point x="87" y="679"/>
      <point x="97" y="689"/>
      <point x="145" y="689" type="curve" smooth="yes"/>
      <point x="518" y="689" type="line"/>
      <point x="34" y="22" type="line"/>
      <point x="34" y="0" type="line"/>
      <point x="453" y="0" type="line" smooth="yes"/>
      <point x="511" y="0"/>
      <point x="528" y="-47"/>
      <point x="528" y="-56" type="curve" smooth="yes"/>
      <point x="528" y="-89"/>
      <point x="516" y="-104"/>
    </contour>
  </outline>
</glyph>
<glyph name="uni023A" format="2">
  <advance width="791"/>
  <unicode hex="023A"/>
  <anchor x="396" y="0" name="bottom"/>
  <anchor x="396" y="714" name="top"/>
  <anchor x="651" y="714" name="topright"/>
  <outline>
    <contour>
      <point x="197" y="-84" type="line"/>
      <point x="227" y="-84" type="line"/>
      <point x="636" y="760" type="line"/>
      <point x="606" y="760" type="line"/>
    </contour>
    <component base="A"/>
  </outline>
</glyph>
<glyph name="uni023E" format="2">
  <advance width="690"/>
  <unicode hex="023E"/>
  <anchor x="346" y="0" name="bottom"/>
  <anchor x="346" y="714" name="top"/>
  <anchor x="670" y="714" name="topright"/>
  <anchor x="346" y="357" name="center"/>
  <outline>
    <contour>
      <point x="19" y="-67" type="line"/>
      <point x="49" y="-67" type="line"/>
      <point x="635" y="760" type="line"/>
      <point x="605" y="760" type="line"/>
    </contour>
    <component base="T"/>
  </outline>
</glyph>
<glyph name="uni0242" format="2">
  <advance width="544"/>
  <unicode hex="0242"/>
  <anchor x="272" y="0" name="bottom"/>
  <anchor x="272" y="536" name="top"/>
  <outline>
    <contour>
      <point x="117" y="0" type="line"/>
      <point x="386" y="0" type="line"/>
      <point x="386" y="20" type="line"/>
      <point x="314" y="20" type="line" smooth="yes"/>
      <point x="270" y="20"/>
      <point x="268" y="22"/>
      <point x="268" y="92" type="curve" smooth="yes"/>
      <point x="268" y="193" type="line"/>
      <point x="306" y="197" type="line" smooth="yes"/>
      <point x="426" y="228"/>
      <point x="469" y="282"/>
      <point x="469" y="369" type="curve" smooth="yes"/>
      <point x="469" y="499"/>
      <point x="385" y="547"/>
      <point x="278" y="547" type="curve" smooth="yes"/>
      <point x="188" y="547"/>
      <point x="70" y="521"/>
      <point x="70" y="432" type="curve" smooth="yes"/>
      <point x="70" y="403"/>
      <point x="85" y="398"/>
      <point x="107" y="398" type="curve"/>
      <point x="107" y="495"/>
      <point x="181" y="522"/>
      <point x="278" y="522" type="curve" smooth="yes"/>
      <point x="374" y="522"/>
      <point x="441" y="479"/>
      <point x="441" y="357" type="curve" smooth="yes"/>
      <point x="441" y="289"/>
      <point x="398" y="245"/>
      <point x="248" y="197" type="curve" smooth="yes"/>
      <point x="240" y="214" type="line"/>
      <point x="240" y="92" type="line" smooth="yes"/>
      <point x="240" y="22"/>
      <point x="240" y="20"/>
      <point x="197" y="20" type="curve" smooth="yes"/>
      <point x="117" y="20" type="line"/>
    </contour>
  </outline>
</glyph>
<glyph name="uni0243" format="2">
  <advance width="770"/>
  <unicode hex="0243"/>
  <anchor x="385" y="0" name="bottom"/>
  <anchor x="385" y="714" name="top"/>
  <anchor x="750" y="714" name="topright"/>
  <outline>
    <contour>
      <point x="57" y="199" type="line"/>
      <point x="461" y="199" type="line"/>
      <point x="461" y="224" type="line"/>
      <point x="57" y="224" type="line"/>
    </contour>
    <component base="B"/>
  </outline>
</glyph>
<glyph name="uni024C" format="2">
  <advance width="725"/>
  <unicode hex="024C"/>
  <anchor x="362" y="0" name="bottom"/>
  <anchor x="362" y="714" name="top"/>
  <anchor x="707" y="714" name="topright"/>
  <outline>
    <contour>
      <point x="81" y="321" type="line"/>
      <point x="189" y="321" type="line"/>
      <point x="189" y="346" type="line"/>
      <point x="81" y="346" type="line"/>
    </contour>
    <component base="R"/>
  </outline>
</glyph>
<glyph name="uni0257" format="2">
  <advance width="701"/>
  <unicode hex="0257"/>
  <anchor x="350" y="0" name="bottom"/>
  <anchor x="350" y="766" name="top"/>
  <outline>
    <contour>
      <point x="324" y="-10" type="curve" smooth="yes"/>
      <point x="440" y="-10"/>
      <point x="493" y="39"/>
      <point x="538" y="127" type="curve"/>
      <point x="540" y="127" type="line"/>
      <point x="544" y="0" type="line"/>
      <point x="681" y="0" type="line"/>
      <point x="681" y="20" type="line"/>
      <point x="651" y="20" type="line" smooth="yes"/>
      <point x="571" y="20"/>
      <point x="568" y="21"/>
      <point x="568" y="102" type="curve" smooth="yes"/>
      <point x="568" y="707" type="line" smooth="yes"/>
      <point x="568" y="743"/>
      <point x="629" y="737"/>
      <point x="656" y="737" type="curve" smooth="yes"/>
      <point x="678" y="737"/>
      <point x="710" y="752"/>
      <point x="758" y="714" type="curve"/>
      <point x="754" y="718"/>
      <point x="757" y="712"/>
      <point x="757" y="715" type="curve" smooth="yes"/>
      <point x="757" y="742"/>
      <point x="720" y="766"/>
      <point x="661" y="766" type="curve" smooth="yes"/>
      <point x="580" y="766"/>
      <point x="540" y="722"/>
      <point x="540" y="715" type="curve" smooth="yes"/>
      <point x="540" y="542" type="line" smooth="yes"/>
      <point x="540" y="521"/>
      <point x="541" y="480"/>
      <point x="539" y="437" type="curve"/>
      <point x="535" y="437" type="line"/>
      <point x="504" y="506"/>
      <point x="424" y="542"/>
      <point x="310" y="542" type="curve" smooth="yes"/>
      <point x="140" y="542"/>
      <point x="83" y="410"/>
      <point x="83" y="267" type="curve" smooth="yes"/>
      <point x="83" y="116"/>
      <point x="170" y="-10"/>
    </contour>
    <contour>
      <point x="317" y="13" type="curve" smooth="yes"/>
      <point x="205" y="9"/>
      <point x="111" y="119"/>
      <point x="111" y="263" type="curve" smooth="yes"/>
      <point x="111" y="400"/>
      <point x="156" y="517"/>
      <point x="314" y="517" type="curve" smooth="yes"/>
      <point x="490" y="517"/>
      <point x="541" y="435"/>
      <point x="541" y="265" type="curve" smooth="yes"/>
      <point x="541" y="119"/>
      <point x="471" y="17"/>
    </contour>
  </outline>
</glyph>
<glyph name="uni0258" format="2">
  <advance width="599"/>
  <unicode hex="0258"/>
  <anchor x="300" y="0" name="bottom"/>
  <anchor x="300" y="536" name="top"/>
  <outline>
    <contour>
      <point x="272" y="-10" type="curve" smooth="yes"/>
      <point x="424" y="-10"/>
      <point x="519" y="86"/>
      <point x="519" y="262" type="curve" smooth="yes"/>
      <point x="519" y="452"/>
      <point x="435" y="542"/>
      <point x="282" y="542" type="curve" smooth="yes"/>
      <point x="154" y="542"/>
      <point x="65" y="451"/>
      <point x="65" y="289" type="curve" smooth="yes"/>
      <point x="65" y="282" type="line"/>
      <point x="489" y="282" type="line"/>
      <point x="493" y="109"/>
      <point x="398" y="15"/>
      <point x="270" y="15" type="curve" smooth="yes"/>
      <point x="176" y="15"/>
      <point x="119" y="51"/>
      <point x="89" y="107" type="curve"/>
      <point x="82" y="102"/>
      <point x="80" y="98"/>
      <point x="80" y="93" type="curve" smooth="yes"/>
      <point x="80" y="56"/>
      <point x="145" y="-10"/>
    </contour>
    <contour>
      <point x="93" y="305" type="line"/>
      <point x="93" y="431"/>
      <point x="167" y="517"/>
      <point x="284" y="517" type="curve" smooth="yes"/>
      <point x="430" y="517"/>
      <point x="475" y="433"/>
      <point x="485" y="305" type="curve"/>
    </contour>
  </outline>
</glyph>
<glyph name="schwahook" format="2">
  <advance width="741"/>
  <unicode hex="025A"/>
  <anchor x="345" y="0" name="bottom"/>
  <anchor x="345" y="536" name="top"/>
  <outline>
    <contour>
      <point x="277" y="-10" type="curve" smooth="yes"/>
      <point x="430" y="-10"/>
      <point x="514" y="80"/>
      <point x="514" y="270" type="curve" smooth="yes"/>
      <point x="514" y="293"/>
      <point x="512" y="312"/>
      <point x="509" y="332" type="curve"/>
      <point x="579" y="352" type="line"/>
      <point x="576" y="363" type="line" smooth="yes"/>
      <point x="603" y="287"/>
      <point x="608" y="230"/>
      <point x="684" y="230" type="curve" smooth="yes"/>
      <point x="704" y="230"/>
      <point x="741" y="241"/>
      <point x="741" y="262" type="curve" smooth="yes"/>
      <point x="741" y="267"/>
      <point x="735" y="272"/>
      <point x="729" y="270" type="curve"/>
      <point x="714" y="257"/>
      <point x="700" y="252"/>
      <point x="680" y="252" type="curve" smooth="yes"/>
      <point x="640" y="252"/>
      <point x="627" y="286"/>
      <point x="602" y="362" type="curve" smooth="yes"/>
      <point x="593" y="387" type="line"/>
      <point x="503" y="362" type="line"/>
      <point x="476" y="479"/>
      <point x="390" y="542"/>
      <point x="267" y="542" type="curve" smooth="yes"/>
      <point x="140" y="542"/>
      <point x="75" y="476"/>
      <point x="75" y="439" type="curve" smooth="yes"/>
      <point x="75" y="434"/>
      <point x="77" y="430"/>
      <point x="84" y="425" type="curve"/>
      <point x="114" y="481"/>
      <point x="171" y="517"/>
      <point x="265" y="517" type="curve" smooth="yes"/>
      <point x="370" y="517"/>
      <point x="452" y="464"/>
      <point x="477" y="355" type="curve"/>
      <point x="60" y="244" type="line"/>
      <point x="60" y="221" type="line" smooth="yes"/>
      <point x="60" y="59"/>
      <point x="149" y="-10"/>
    </contour>
    <contour>
      <point x="279" y="15" type="curve" smooth="yes"/>
      <point x="162" y="15"/>
      <point x="88" y="87"/>
      <point x="88" y="221" type="curve"/>
      <point x="481" y="326" type="line"/>
      <point x="482" y="314"/>
      <point x="484" y="302"/>
      <point x="484" y="288" type="curve" smooth="yes"/>
      <point x="486" y="103"/>
      <point x="426" y="15"/>
    </contour>
  </outline>
</glyph>
<glyph name="uni0261" format="2">
  <advance width="702"/>
  <unicode hex="0261"/>
  <anchor x="351" y="-238" name="bottom"/>
  <anchor x="351" y="536" name="top"/>
  <outline>
    <contour>
      <point x="302" y="-238" type="curve" smooth="yes"/>
      <point x="401" y="-238"/>
      <point x="568" y="-221"/>
      <point x="568" y="-88" type="curve" smooth="yes"/>
      <point x="568" y="444" type="line" smooth="yes"/>
      <point x="568" y="512"/>
      <point x="574" y="516"/>
      <point x="640" y="516" type="curve" smooth="yes"/>
      <point x="675" y="516" type="line"/>
      <point x="675" y="536" type="line"/>
      <point x="544" y="536" type="line"/>
      <point x="541" y="435" type="line"/>
      <point x="537" y="435" type="line"/>
      <point x="496" y="530"/>
      <point x="434" y="546"/>
      <point x="341" y="546" type="curve" smooth="yes"/>
      <point x="175" y="546"/>
      <point x="81" y="469"/>
      <point x="81" y="259" type="curve" smooth="yes"/>
      <point x="81" y="64"/>
      <point x="172" y="-18"/>
      <point x="321" y="-18" type="curve" smooth="yes"/>
      <point x="441" y="-18"/>
      <point x="504" y="18"/>
      <point x="539" y="109" type="curve"/>
      <point x="541" y="109" type="line"/>
      <point x="538" y="122"/>
      <point x="540" y="100"/>
      <point x="540" y="66" type="curve" smooth="yes"/>
      <point x="540" y="-61" type="line" smooth="yes"/>
      <point x="536" y="-49"/>
      <point x="546" y="-213"/>
      <point x="308" y="-213" type="curve" smooth="yes"/>
      <point x="176" y="-213"/>
      <point x="146" y="-152"/>
      <point x="146" y="-119" type="curve"/>
      <point x="135" y="-119"/>
      <point x="117" y="-117"/>
      <point x="117" y="-135" type="curve" smooth="yes"/>
      <point x="117" y="-197"/>
      <point x="189" y="-238"/>
    </contour>
    <contour>
      <point x="324" y="7" type="curve" smooth="yes"/>
      <point x="179" y="7"/>
      <point x="109" y="89"/>
      <point x="109" y="257" type="curve" smooth="yes"/>
      <point x="109" y="451"/>
      <point x="191" y="521"/>
      <point x="344" y="521" type="curve" smooth="yes"/>
      <point x="497" y="521"/>
      <point x="539" y="424"/>
      <point x="539" y="263" type="curve" smooth="yes"/>
      <point x="539" y="-1"/>
      <point x="401" y="7"/>
    </contour>
  </outline>
</glyph>
<glyph name="uni0264" format="2">
  <advance width="753"/>
  <unicode hex="0264"/>
  <anchor x="377" y="0" name="bottom"/>
  <anchor x="377" y="536" name="top"/>
  <outline>
    <contour>
      <point x="383" y="2" type="curve" smooth="yes"/>
      <point x="398" y="2"/>
      <point x="459" y="-2"/>
      <point x="459" y="85" type="curve" smooth="yes"/>
      <point x="459" y="128"/>
      <point x="454" y="157"/>
      <point x="392" y="262" type="curve"/>
      <point x="436" y="397"/>
      <point x="469" y="516"/>
      <point x="618" y="516" type="curve" smooth="yes"/>
      <point x="680" y="516"/>
      <point x="716" y="493"/>
      <point x="716" y="433" type="curve"/>
      <point x="736" y="436"/>
      <point x="741" y="441"/>
      <point x="741" y="457" type="curve" smooth="yes"/>
      <point x="741" y="471"/>
      <point x="730" y="541"/>
      <point x="611" y="541" type="curve" smooth="yes"/>
      <point x="413" y="541"/>
      <point x="390" y="344"/>
      <point x="377" y="309" type="curve"/>
      <point x="360" y="315"/>
      <point x="320" y="541"/>
      <point x="139" y="541" type="curve" smooth="yes"/>
      <point x="44" y="541"/>
      <point x="25" y="489"/>
      <point x="25" y="453" type="curve" smooth="yes"/>
      <point x="25" y="440"/>
      <point x="34" y="428"/>
      <point x="51" y="430" type="curve"/>
      <point x="52" y="503"/>
      <point x="95" y="516"/>
      <point x="132" y="516" type="curve" smooth="yes"/>
      <point x="261" y="516"/>
      <point x="315" y="374"/>
      <point x="361" y="268" type="curve"/>
      <point x="316" y="198"/>
      <point x="307" y="157"/>
      <point x="307" y="85" type="curve" smooth="yes"/>
      <point x="307" y="6"/>
      <point x="366" y="2"/>
    </contour>
    <contour>
      <point x="383" y="27" type="curve" smooth="yes"/>
      <point x="370" y="27"/>
      <point x="338" y="37"/>
      <point x="338" y="89" type="curve" smooth="yes"/>
      <point x="338" y="134"/>
      <point x="342" y="160"/>
      <point x="378" y="239" type="curve"/>
      <point x="421" y="152"/>
      <point x="428" y="129"/>
      <point x="428" y="89" type="curve" smooth="yes"/>
      <point x="428" y="35"/>
      <point x="397" y="27"/>
    </contour>
  </outline>
</glyph>
<glyph name="uni026D" format="2">
  <advance width="317"/>
  <unicode hex="026D"/>
  <anchor x="158" y="-240" name="bottom"/>
  <anchor x="158" y="760" name="top"/>
  <outline>
    <contour>
      <point x="253" y="-240" type="curve" smooth="yes"/>
      <point x="290" y="-240"/>
      <point x="316" y="-237"/>
      <point x="339" y="-231" type="curve"/>
      <point x="339" y="-205" type="line"/>
      <point x="317" y="-211"/>
      <point x="294" y="-215"/>
      <point x="261" y="-215" type="curve" smooth="yes"/>
      <point x="218" y="-215"/>
      <point x="181" y="-203"/>
      <point x="181" y="-78" type="curve" smooth="yes"/>
      <point x="181" y="760" type="line"/>
      <point x="19" y="760" type="line"/>
      <point x="19" y="740" type="line"/>
      <point x="94" y="740" type="line" smooth="yes"/>
      <point x="142" y="740"/>
      <point x="153" y="736"/>
      <point x="153" y="662" type="curve" smooth="yes"/>
      <point x="153" y="-108" type="line" smooth="yes"/>
      <point x="153" y="-204"/>
      <point x="181" y="-240"/>
    </contour>
  </outline>
</glyph>
<glyph name="uni0274" format="2">
  <advance width="792"/>
  <unicode hex="0274"/>
  <anchor x="397" y="0" name="bottom"/>
  <anchor x="397" y="536" name="top"/>
  <outline>
    <contour>
      <point x="42" y="0" type="line"/>
      <point x="329" y="0" type="line"/>
      <point x="329" y="20" type="line"/>
      <point x="292" y="20" type="line" smooth="yes"/>
      <point x="208" y="20"/>
      <point x="205" y="22"/>
      <point x="205" y="92" type="curve" smooth="yes"/>
      <point x="205" y="508" type="line"/>
      <point x="600" y="0" type="line"/>
      <point x="619" y="0" type="line"/>
      <point x="619" y="444" type="line" smooth="yes"/>
      <point x="619" y="512"/>
      <point x="624" y="516"/>
      <point x="703" y="516" type="curve" smooth="yes"/>
      <point x="746" y="516" type="line"/>
      <point x="746" y="536" type="line"/>
      <point x="456" y="536" type="line"/>
      <point x="456" y="516" type="line"/>
      <point x="509" y="516" type="line" smooth="yes"/>
      <point x="593" y="516"/>
      <point x="594" y="513"/>
      <point x="594" y="445" type="curve" smooth="yes"/>
      <point x="594" y="59" type="line"/>
      <point x="215" y="536" type="line"/>
      <point x="42" y="536" type="line"/>
      <point x="42" y="516" type="line"/>
      <point x="93" y="516" type="line" smooth="yes"/>
      <point x="176" y="516"/>
      <point x="180" y="512"/>
      <point x="180" y="444" type="curve" smooth="yes"/>
      <point x="180" y="92" type="line" smooth="yes"/>
      <point x="180" y="22"/>
      <point x="178" y="20"/>
      <point x="95" y="20" type="curve" smooth="yes"/>
      <point x="42" y="20" type="line"/>
    </contour>
  </outline>
</glyph>
<glyph name="uni0276" format="2">
  <advance width="945"/>
  <unicode hex="0276"/>
  <anchor x="472" y="0" name="bottom"/>
  <anchor x="472" y="536" name="top"/>
  <outline>
    <contour>
      <point x="376" y="-10" type="curve" smooth="yes"/>
      <point x="389" y="-10"/>
      <point x="474" y="-2"/>
      <point x="495" y="0" type="curve"/>
      <point x="868" y="0" type="line"/>
      <point x="876" y="157" type="line"/>
      <point x="856" y="157" type="line"/>
      <point x="832" y="-4" type="line" smooth="yes"/>
      <point x="829" y="21"/>
      <point x="822" y="25"/>
      <point x="833" y="25" type="curve" smooth="yes"/>
      <point x="523" y="25" type="line"/>
      <point x="523" y="264" type="line"/>
      <point x="790" y="264" type="line"/>
      <point x="790" y="289" type="line"/>
      <point x="523" y="289" type="line"/>
      <point x="523" y="511" type="line"/>
      <point x="784" y="511" type="line" smooth="yes"/>
      <point x="798" y="511"/>
      <point x="801" y="492"/>
      <point x="805" y="513" type="curve" smooth="yes"/>
      <point x="823" y="379" type="line"/>
      <point x="843" y="379" type="line"/>
      <point x="834" y="536" type="line"/>
      <point x="495" y="536" type="line"/>
      <point x="469" y="539"/>
      <point x="421" y="542"/>
      <point x="365" y="542" type="curve" smooth="yes"/>
      <point x="213" y="542"/>
      <point x="82" y="488"/>
      <point x="82" y="266" type="curve" smooth="yes"/>
      <point x="82" y="-7"/>
      <point x="269" y="-10"/>
    </contour>
    <contour>
      <point x="379" y="15" type="curve" smooth="yes"/>
      <point x="213" y="15"/>
      <point x="110" y="79"/>
      <point x="110" y="266" type="curve" smooth="yes"/>
      <point x="110" y="440"/>
      <point x="182" y="517"/>
      <point x="372" y="517" type="curve" smooth="yes"/>
      <point x="403" y="517"/>
      <point x="453" y="515"/>
      <point x="495" y="509" type="curve"/>
      <point x="495" y="25" type="line"/>
      <point x="449" y="14"/>
      <point x="407" y="15"/>
    </contour>
  </outline>
</glyph>
<glyph name="uni0278" format="2">
  <advance width="781"/>
  <unicode hex="0278"/>
  <anchor x="390" y="-240" name="bottom"/>
  <anchor x="390" y="268" name="center"/>
  <anchor x="390" y="760" name="top"/>
  <anchor x="763" y="536" name="topright"/>
  <outline>
    <contour>
      <point x="240" y="-240" type="line"/>
      <point x="537" y="-240" type="line"/>
      <point x="537" y="-220" type="line"/>
      <point x="481" y="-220" type="line" smooth="yes"/>
      <point x="408" y="-220"/>
      <point x="404" y="-216"/>
      <point x="404" y="-146" type="curve" smooth="yes"/>
      <point x="404" y="-9" type="line"/>
      <point x="584" y="0"/>
      <point x="699" y="101"/>
      <point x="699" y="269" type="curve" smooth="yes"/>
      <point x="699" y="447"/>
      <point x="576" y="537"/>
      <point x="404" y="545" type="curve"/>
      <point x="404" y="666" type="line" smooth="yes"/>
      <point x="404" y="736"/>
      <point x="408" y="740"/>
      <point x="481" y="740" type="curve" smooth="yes"/>
      <point x="538" y="740" type="line"/>
      <point x="538" y="760" type="line"/>
      <point x="241" y="760" type="line"/>
      <point x="241" y="740" type="line"/>
      <point x="297" y="740" type="line" smooth="yes"/>
      <point x="370" y="740"/>
      <point x="374" y="736"/>
      <point x="374" y="666" type="curve" smooth="yes"/>
      <point x="374" y="545" type="line"/>
      <point x="206" y="537"/>
      <point x="82" y="449"/>
      <point x="82" y="269" type="curve" smooth="yes"/>
      <point x="82" y="93"/>
      <point x="200" y="-1"/>
      <point x="374" y="-9" type="curve"/>
      <point x="374" y="-146" type="line" smooth="yes"/>
      <point x="374" y="-216"/>
      <point x="370" y="-220"/>
      <point x="297" y="-220" type="curve" smooth="yes"/>
      <point x="240" y="-220" type="line"/>
    </contour>
    <contour>
      <point x="374" y="16" type="line"/>
      <point x="180" y="25"/>
      <point x="110" y="148"/>
      <point x="110" y="269" type="curve" smooth="yes"/>
      <point x="110" y="398"/>
      <point x="189" y="512"/>
      <point x="374" y="519" type="curve"/>
    </contour>
    <contour>
      <point x="404" y="16" type="curve"/>
      <point x="404" y="520" type="line"/>
      <point x="591" y="511"/>
      <point x="671" y="399"/>
      <point x="671" y="269" type="curve" smooth="yes"/>
      <point x="671" y="152"/>
      <point x="598" y="25"/>
    </contour>
  </outline>
</glyph>
<glyph name="rlongleg" format="2">
  <advance width="492"/>
  <unicode hex="027C"/>
  <anchor x="247" y="-240" name="bottom"/>
  <anchor x="247" y="536" name="top"/>
  <outline>
    <contour>
      <point x="62" y="-240" type="line"/>
      <point x="324" y="-240" type="line"/>
      <point x="324" y="-220" type="line"/>
      <point x="263" y="-220" type="line" smooth="yes"/>
      <point x="208" y="-220"/>
      <point x="200" y="-217"/>
      <point x="200" y="-140" type="curve" smooth="yes"/>
      <point x="200" y="294" type="line" smooth="yes"/>
      <point x="200" y="432"/>
      <point x="278" y="519"/>
      <point x="363" y="519" type="curve" smooth="yes"/>
      <point x="408" y="519"/>
      <point x="452" y="522"/>
      <point x="452" y="443" type="curve"/>
      <point x="464" y="443"/>
      <point x="473" y="456"/>
      <point x="473" y="469" type="curve" smooth="yes"/>
      <point x="473" y="511"/>
      <point x="426" y="544"/>
      <point x="369" y="544" type="curve" smooth="yes"/>
      <point x="282" y="544"/>
      <point x="229" y="481"/>
      <point x="201" y="413" type="curve"/>
      <point x="199" y="413" type="line"/>
      <point x="196" y="536" type="line"/>
      <point x="55" y="536" type="line"/>
      <point x="55" y="516" type="line"/>
      <point x="98" y="516" type="line" smooth="yes"/>
      <point x="168" y="516"/>
      <point x="172" y="511"/>
      <point x="172" y="444" type="curve" smooth="yes"/>
      <point x="172" y="-140" type="line" smooth="yes"/>
      <point x="172" y="-217"/>
      <point x="162" y="-220"/>
      <point x="113" y="-220" type="curve" smooth="yes"/>
      <point x="62" y="-220" type="line"/>
    </contour>
  </outline>
</glyph>
<glyph name="uni027D" format="2">
  <advance width="492"/>
  <unicode hex="027D"/>
  <anchor x="247" y="-241" name="bottom"/>
  <anchor x="247" y="536" name="top"/>
  <outline>
    <contour>
      <point x="272" y="-241" type="curve" smooth="yes"/>
      <point x="309" y="-241"/>
      <point x="332" y="-238"/>
      <point x="357" y="-232" type="curve"/>
      <point x="357" y="-206" type="line"/>
      <point x="333" y="-213"/>
      <point x="313" y="-216"/>
      <point x="278" y="-216" type="curve" smooth="yes"/>
      <point x="230" y="-216"/>
      <point x="200" y="-192"/>
      <point x="200" y="-78" type="curve" smooth="yes"/>
      <point x="200" y="294" type="line" smooth="yes"/>
      <point x="200" y="432"/>
      <point x="278" y="519"/>
      <point x="363" y="519" type="curve" smooth="yes"/>
      <point x="408" y="519"/>
      <point x="452" y="522"/>
      <point x="452" y="443" type="curve"/>
      <point x="464" y="443"/>
      <point x="473" y="456"/>
      <point x="473" y="469" type="curve" smooth="yes"/>
      <point x="473" y="511"/>
      <point x="426" y="544"/>
      <point x="369" y="544" type="curve" smooth="yes"/>
      <point x="282" y="544"/>
      <point x="229" y="481"/>
      <point x="201" y="413" type="curve"/>
      <point x="199" y="413" type="line"/>
      <point x="196" y="536" type="line"/>
      <point x="55" y="536" type="line"/>
      <point x="55" y="516" type="line"/>
      <point x="102" y="516" type="line" smooth="yes"/>
      <point x="168" y="516"/>
      <point x="172" y="511"/>
      <point x="172" y="444" type="curve" smooth="yes"/>
      <point x="172" y="-110" type="line" smooth="yes"/>
      <point x="172" y="-205"/>
      <point x="200" y="-241"/>
    </contour>
  </outline>
</glyph>
<glyph name="uni028F" format="2">
  <advance width="600"/>
  <unicode hex="028F"/>
  <anchor x="301" y="0" name="bottom"/>
  <anchor x="301" y="536" name="top"/>
  <outline>
    <contour>
      <point x="185" y="0" type="line"/>
      <point x="439" y="0" type="line"/>
      <point x="439" y="20" type="line"/>
      <point x="426" y="20" type="line" smooth="yes"/>
      <point x="372" y="20"/>
      <point x="324" y="22"/>
      <point x="324" y="58" type="curve" smooth="yes"/>
      <point x="324" y="220" type="line"/>
      <point x="499" y="500" type="line" smooth="yes"/>
      <point x="509" y="509"/>
      <point x="529" y="516"/>
      <point x="574" y="516" type="curve" smooth="yes"/>
      <point x="591" y="516" type="line"/>
      <point x="591" y="536" type="line"/>
      <point x="368" y="536" type="line"/>
      <point x="368" y="516" type="line"/>
      <point x="407" y="516" type="line" smooth="yes"/>
      <point x="441" y="516"/>
      <point x="450" y="515"/>
      <point x="450" y="497" type="curve" smooth="yes"/>
      <point x="450" y="467"/>
      <point x="423" y="424"/>
      <point x="412" y="404" type="curve" smooth="yes"/>
      <point x="308" y="238" type="line"/>
      <point x="201" y="380" type="line" smooth="yes"/>
      <point x="178" y="410"/>
      <point x="148" y="456"/>
      <point x="148" y="486" type="curve" smooth="yes"/>
      <point x="148" y="511"/>
      <point x="175" y="516"/>
      <point x="209" y="516" type="curve" smooth="yes"/>
      <point x="244" y="516" type="line"/>
      <point x="244" y="536" type="line"/>
      <point x="6" y="536" type="line"/>
      <point x="6" y="516" type="line"/>
      <point x="34" y="516" type="line" smooth="yes"/>
      <point x="70" y="516"/>
      <point x="81" y="510"/>
      <point x="86" y="510" type="curve" smooth="yes"/>
      <point x="296" y="221" type="line"/>
      <point x="296" y="48" type="line" smooth="yes"/>
      <point x="296" y="20"/>
      <point x="238" y="20"/>
      <point x="199" y="20" type="curve" smooth="yes"/>
      <point x="185" y="20" type="line"/>
    </contour>
  </outline>
</glyph>
<glyph name="eopenclosed" format="2">
  <advance width="613"/>
  <unicode hex="029A"/>
  <anchor x="307" y="0" name="bottom"/>
  <anchor x="307" y="536" name="top"/>
  <outline>
    <contour>
      <point x="310" y="-10" type="curve" smooth="yes"/>
      <point x="452" y="-10"/>
      <point x="531" y="79"/>
      <point x="531" y="267" type="curve" smooth="yes"/>
      <point x="531" y="454"/>
      <point x="457" y="542"/>
      <point x="288" y="542" type="curve" smooth="yes"/>
      <point x="172" y="542"/>
      <point x="95" y="489"/>
      <point x="95" y="414" type="curve" smooth="yes"/>
      <point x="95" y="327"/>
      <point x="140" y="307"/>
      <point x="188" y="291" type="curve"/>
      <point x="188" y="285" type="line"/>
      <point x="129" y="263"/>
      <point x="78" y="232"/>
      <point x="78" y="149" type="curve" smooth="yes"/>
      <point x="78" y="87"/>
      <point x="130" y="-10"/>
    </contour>
    <contour>
      <point x="311" y="15" type="curve" smooth="yes"/>
      <point x="169" y="15"/>
      <point x="106" y="65"/>
      <point x="106" y="149" type="curve" smooth="yes"/>
      <point x="106" y="236"/>
      <point x="173" y="275"/>
      <point x="262" y="275" type="curve" smooth="yes"/>
      <point x="354" y="275" type="line"/>
      <point x="354" y="300" type="line"/>
      <point x="255" y="300" type="line" smooth="yes"/>
      <point x="185" y="300"/>
      <point x="123" y="321"/>
      <point x="123" y="416" type="curve" smooth="yes"/>
      <point x="123" y="453"/>
      <point x="177" y="517"/>
      <point x="288" y="517" type="curve" smooth="yes"/>
      <point x="457" y="517"/>
      <point x="505" y="430"/>
      <point x="503" y="267" type="curve" smooth="yes"/>
      <point x="501" y="101"/>
      <point x="448" y="15"/>
    </contour>
  </outline>
</glyph>
<glyph name="uni029D" format="2">
  <advance width="356"/>
  <unicode hex="029D"/>
  <anchor x="178" y="-240" name="bottom"/>
  <anchor x="178" y="738" name="top"/>
  <outline>
    <contour>
      <point x="92" y="-240" type="curve" smooth="yes"/>
      <point x="146" y="-240"/>
      <point x="215" y="-234"/>
      <point x="217" y="-77" type="curve"/>
      <point x="327" y="-77" type="line"/>
      <point x="327" y="-52" type="line"/>
      <point x="217" y="-52" type="line"/>
      <point x="217" y="536" type="line"/>
      <point x="86" y="536" type="line"/>
      <point x="86" y="516" type="line"/>
      <point x="131" y="516" type="line" smooth="yes"/>
      <point x="177" y="516"/>
      <point x="189" y="512"/>
      <point x="189" y="456" type="curve" smooth="yes"/>
      <point x="189" y="-52" type="line"/>
      <point x="185" y="-52" type="line" smooth="yes"/>
      <point x="70" y="-52"/>
      <point x="2" y="-88"/>
      <point x="2" y="-163" type="curve" smooth="yes"/>
      <point x="2" y="-210"/>
      <point x="42" y="-240"/>
    </contour>
    <contour>
      <point x="104" y="-215" type="curve" smooth="yes"/>
      <point x="57" y="-215"/>
      <point x="30" y="-197"/>
      <point x="30" y="-164" type="curve" smooth="yes"/>
      <point x="30" y="-109"/>
      <point x="69" y="-77"/>
      <point x="168" y="-77" type="curve" smooth="yes"/>
      <point x="189" y="-77" type="line"/>
      <point x="189" y="-85" type="line" smooth="yes"/>
      <point x="189" y="-183"/>
      <point x="147" y="-215"/>
    </contour>
    <contour>
      <point x="198" y="658" type="curve" smooth="yes"/>
      <point x="215" y="658"/>
      <point x="221" y="666"/>
      <point x="221" y="698" type="curve" smooth="yes"/>
      <point x="221" y="729"/>
      <point x="215" y="738"/>
      <point x="198" y="738" type="curve" smooth="yes"/>
      <point x="182" y="738"/>
      <point x="175" y="729"/>
      <point x="175" y="698" type="curve" smooth="yes"/>
      <point x="175" y="666"/>
      <point x="182" y="658"/>
    </contour>
  </outline>
</glyph>
<glyph name="qhook" format="2">
  <advance width="705"/>
  <unicode hex="02A0"/>
  <anchor x="352" y="-240" name="bottom"/>
  <anchor x="352" y="766" name="top"/>
  <outline>
    <contour>
      <point x="429" y="-240" type="line"/>
      <point x="659" y="-240" type="line"/>
      <point x="659" y="-220" type="line"/>
      <point x="636" y="-220" type="line" smooth="yes"/>
      <point x="575" y="-220"/>
      <point x="567" y="-218"/>
      <point x="567" y="-140" type="curve" smooth="yes"/>
      <point x="567" y="707" type="line" smooth="yes"/>
      <point x="567" y="739"/>
      <point x="596" y="737"/>
      <point x="624" y="737" type="curve" smooth="yes"/>
      <point x="637" y="737"/>
      <point x="667" y="748"/>
      <point x="697" y="744" type="curve" smooth="yes"/>
      <point x="694" y="752"/>
      <point x="692" y="748"/>
      <point x="692" y="746" type="curve" smooth="yes"/>
      <point x="692" y="752"/>
      <point x="665" y="766"/>
      <point x="633" y="766" type="curve" smooth="yes"/>
      <point x="567" y="766"/>
      <point x="539" y="739"/>
      <point x="539" y="723" type="curve" smooth="yes"/>
      <point x="539" y="553" type="line" smooth="yes"/>
      <point x="539" y="524"/>
      <point x="539" y="486"/>
      <point x="542" y="455" type="curve"/>
      <point x="540" y="455" type="line"/>
      <point x="509" y="511"/>
      <point x="433" y="546"/>
      <point x="340" y="546" type="curve" smooth="yes"/>
      <point x="159" y="546"/>
      <point x="81" y="437"/>
      <point x="81" y="265" type="curve" smooth="yes"/>
      <point x="81" y="77"/>
      <point x="170" y="-10"/>
      <point x="322" y="-10" type="curve" smooth="yes"/>
      <point x="451" y="-10"/>
      <point x="511" y="52"/>
      <point x="539" y="127" type="curve"/>
      <point x="541" y="127" type="line"/>
      <point x="537" y="112"/>
      <point x="539" y="51"/>
      <point x="539" y="-36" type="curve" smooth="yes"/>
      <point x="539" y="-140" type="line" smooth="yes"/>
      <point x="539" y="-218"/>
      <point x="533" y="-220"/>
      <point x="468" y="-220" type="curve" smooth="yes"/>
      <point x="429" y="-220" type="line"/>
    </contour>
    <contour>
      <point x="324" y="15" type="curve" smooth="yes"/>
      <point x="180" y="15"/>
      <point x="109" y="94"/>
      <point x="109" y="264" type="curve" smooth="yes"/>
      <point x="109" y="417"/>
      <point x="174" y="521"/>
      <point x="344" y="521" type="curve" smooth="yes"/>
      <point x="497" y="521"/>
      <point x="539" y="427"/>
      <point x="539" y="267" type="curve" smooth="yes"/>
      <point x="539" y="42"/>
      <point x="420" y="15"/>
    </contour>
  </outline>
</glyph>
<glyph name="uni02A1" format="2">
  <advance width="561"/>
  <unicode hex="02A1"/>
  <anchor x="281" y="0" name="bottom"/>
  <anchor x="281" y="762" name="top"/>
  <outline>
    <contour>
      <point x="95" y="193" type="line"/>
      <point x="395" y="193" type="line"/>
      <point x="395" y="218" type="line"/>
      <point x="95" y="218" type="line"/>
    </contour>
    <component base="uni0294"/>
  </outline>
</glyph>
<glyph name="dzligcurl" format="2">
  <advance width="1097"/>
  <unicode hex="02A5"/>
  <anchor x="538" y="0" name="bottom"/>
  <anchor x="538" y="760" name="top"/>
  <outline>
    <contour>
      <point x="773" y="-53" type="line"/>
      <point x="776" y="-29"/>
      <point x="782" y="-17"/>
      <point x="787" y="0" type="curve"/>
      <point x="846" y="0" type="line" smooth="yes"/>
      <point x="1029" y="0"/>
      <point x="1039" y="85"/>
      <point x="1039" y="100" type="curve" smooth="yes"/>
      <point x="1039" y="139"/>
      <point x="1017" y="186"/>
      <point x="928" y="186" type="curve" smooth="yes"/>
      <point x="855" y="186"/>
      <point x="799" y="150"/>
      <point x="766" y="25" type="curve"/>
      <point x="588" y="25" type="line"/>
      <point x="971" y="514" type="line"/>
      <point x="971" y="536" type="line"/>
      <point x="568" y="536" type="line"/>
      <point x="568" y="760" type="line"/>
      <point x="423" y="760" type="line"/>
      <point x="423" y="740" type="line"/>
      <point x="474" y="740" type="line" smooth="yes"/>
      <point x="528" y="740"/>
      <point x="540" y="737"/>
      <point x="540" y="668" type="curve" smooth="yes"/>
      <point x="540" y="542" type="line" smooth="yes"/>
      <point x="540" y="521"/>
      <point x="541" y="480"/>
      <point x="539" y="437" type="curve"/>
      <point x="535" y="437" type="line"/>
      <point x="504" y="506"/>
      <point x="424" y="542"/>
      <point x="310" y="542" type="curve" smooth="yes"/>
      <point x="140" y="542"/>
      <point x="83" y="410"/>
      <point x="83" y="267" type="curve" smooth="yes"/>
      <point x="83" y="116"/>
      <point x="170" y="-10"/>
      <point x="324" y="-10" type="curve" smooth="yes"/>
      <point x="440" y="-10"/>
      <point x="511" y="67"/>
      <point x="538" y="149" type="curve"/>
      <point x="540" y="149" type="line"/>
      <point x="536" y="0" type="line"/>
      <point x="757" y="0" type="line"/>
      <point x="753" y="-16"/>
      <point x="748" y="-35"/>
      <point x="747" y="-52" type="curve"/>
    </contour>
    <contour>
      <point x="317" y="13" type="curve" smooth="yes"/>
      <point x="205" y="9"/>
      <point x="111" y="119"/>
      <point x="111" y="263" type="curve" smooth="yes"/>
      <point x="111" y="400"/>
      <point x="156" y="517"/>
      <point x="314" y="517" type="curve" smooth="yes"/>
      <point x="490" y="517"/>
      <point x="541" y="435"/>
      <point x="541" y="265" type="curve" smooth="yes"/>
      <point x="541" y="135"/>
      <point x="471" y="17"/>
    </contour>
    <contour>
      <point x="792" y="25" type="line"/>
      <point x="826" y="145"/>
      <point x="868" y="161"/>
      <point x="934" y="161" type="curve" smooth="yes"/>
      <point x="982" y="161"/>
      <point x="1011" y="137"/>
      <point x="1011" y="101" type="curve" smooth="yes"/>
      <point x="1011" y="58"/>
      <point x="971" y="25"/>
      <point x="843" y="25" type="curve" smooth="yes"/>
    </contour>
    <contour>
      <point x="568" y="46" type="line"/>
      <point x="568" y="511" type="line"/>
      <point x="933" y="511" type="line"/>
    </contour>
  </outline>
</glyph>
<glyph name="tslig" format="2">
  <advance width="797"/>
  <unicode hex="02A6"/>
  <anchor x="399" y="0" name="bottom"/>
  <anchor x="399" y="657" name="top"/>
  <outline>
    <contour>
      <point x="248" y="-10" type="curve" smooth="yes"/>
      <point x="321" y="-10"/>
      <point x="385" y="1"/>
      <point x="448" y="17" type="curve"/>
      <point x="476" y="1"/>
      <point x="514" y="-10"/>
      <point x="558" y="-10" type="curve" smooth="yes"/>
      <point x="656" y="-10"/>
      <point x="731" y="53"/>
      <point x="731" y="136" type="curve" smooth="yes"/>
      <point x="731" y="197"/>
      <point x="711" y="226"/>
      <point x="585" y="283" type="curve" smooth="yes"/>
      <point x="487" y="324"/>
      <point x="425" y="351"/>
      <point x="425" y="422" type="curve" smooth="yes"/>
      <point x="425" y="479"/>
      <point x="470" y="516"/>
      <point x="559" y="516" type="curve" smooth="yes"/>
      <point x="636" y="516"/>
      <point x="682" y="502"/>
      <point x="682" y="403" type="curve"/>
      <point x="687" y="403"/>
      <point x="709" y="423"/>
      <point x="709" y="448" type="curve" smooth="yes"/>
      <point x="709" y="468"/>
      <point x="683" y="541"/>
      <point x="565" y="541" type="curve" smooth="yes"/>
      <point x="546" y="541"/>
      <point x="525" y="539"/>
      <point x="510" y="536" type="curve"/>
      <point x="145" y="536" type="line"/>
      <point x="145" y="657" type="line"/>
      <point x="125" y="657" type="line"/>
      <point x="126" y="574"/>
      <point x="104" y="551"/>
      <point x="95" y="549" type="curve" smooth="yes"/>
      <point x="78" y="538"/>
      <point x="52" y="530"/>
      <point x="21" y="532" type="curve"/>
      <point x="21" y="511" type="line"/>
      <point x="117" y="511" type="line"/>
      <point x="117" y="141" type="line" smooth="yes"/>
      <point x="117" y="34"/>
      <point x="151" y="-10"/>
    </contour>
    <contour>
      <point x="557" y="15" type="curve" smooth="yes"/>
      <point x="473" y="15"/>
      <point x="414" y="50"/>
      <point x="414" y="127" type="curve"/>
      <point x="397" y="127"/>
      <point x="385" y="113"/>
      <point x="385" y="99" type="curve" smooth="yes"/>
      <point x="385" y="77"/>
      <point x="398" y="54"/>
      <point x="419" y="36" type="curve"/>
      <point x="369" y="24"/>
      <point x="312" y="15"/>
      <point x="249" y="15" type="curve" smooth="yes"/>
      <point x="167" y="15"/>
      <point x="145" y="52"/>
      <point x="145" y="124" type="curve" smooth="yes"/>
      <point x="145" y="511" type="line"/>
      <point x="445" y="511" type="line"/>
      <point x="414" y="490"/>
      <point x="397" y="459"/>
      <point x="397" y="423" type="curve" smooth="yes"/>
      <point x="397" y="343"/>
      <point x="442" y="311"/>
      <point x="595" y="245" type="curve" smooth="yes"/>
      <point x="687" y="205"/>
      <point x="703" y="186"/>
      <point x="703" y="135" type="curve" smooth="yes"/>
      <point x="703" y="86"/>
      <point x="656" y="15"/>
    </contour>
  </outline>
</glyph>
<glyph name="uni02A7" format="2">
  <advance width="489"/>
  <unicode hex="02A7"/>
  <anchor x="245" y="-238" name="bottom"/>
  <anchor x="245" y="766" name="top"/>
  <outline>
    <contour>
      <point x="186" y="-238" type="curve" smooth="yes"/>
      <point x="256" y="-238"/>
      <point x="319" y="-223"/>
      <point x="319" y="-101" type="curve" smooth="yes"/>
      <point x="319" y="566" type="line" smooth="yes"/>
      <point x="319" y="660"/>
      <point x="320" y="741"/>
      <point x="415" y="741" type="curve" smooth="yes"/>
      <point x="467" y="741"/>
      <point x="495" y="718"/>
      <point x="495" y="642" type="curve"/>
      <point x="513" y="642"/>
      <point x="516" y="666"/>
      <point x="516" y="683" type="curve" smooth="yes"/>
      <point x="516" y="716"/>
      <point x="501" y="766"/>
      <point x="421" y="766" type="curve" smooth="yes"/>
      <point x="357" y="766"/>
      <point x="291" y="749"/>
      <point x="291" y="617" type="curve" smooth="yes"/>
      <point x="291" y="536" type="line"/>
      <point x="145" y="536" type="line"/>
      <point x="145" y="657" type="line"/>
      <point x="125" y="657" type="line"/>
      <point x="126" y="574"/>
      <point x="104" y="551"/>
      <point x="95" y="549" type="curve"/>
      <point x="78" y="538"/>
      <point x="52" y="530"/>
      <point x="21" y="532" type="curve"/>
      <point x="21" y="511" type="line"/>
      <point x="117" y="511" type="line"/>
      <point x="117" y="141" type="line" smooth="yes"/>
      <point x="117" y="34"/>
      <point x="151" y="-10"/>
      <point x="237" y="-10" type="curve" smooth="yes"/>
      <point x="250" y="-10"/>
      <point x="279" y="-10"/>
      <point x="291" y="-11" type="curve"/>
      <point x="291" y="-53" type="line" smooth="yes"/>
      <point x="291" y="-141"/>
      <point x="286" y="-213"/>
      <point x="190" y="-213" type="curve" smooth="yes"/>
      <point x="142" y="-213"/>
      <point x="111" y="-189"/>
      <point x="111" y="-118" type="curve"/>
      <point x="93" y="-118"/>
      <point x="90" y="-142"/>
      <point x="90" y="-159" type="curve" smooth="yes"/>
      <point x="90" y="-190"/>
      <point x="107" y="-238"/>
    </contour>
    <contour>
      <point x="237" y="15" type="curve" smooth="yes"/>
      <point x="167" y="15"/>
      <point x="145" y="52"/>
      <point x="145" y="124" type="curve" smooth="yes"/>
      <point x="145" y="511" type="line"/>
      <point x="291" y="511" type="line"/>
      <point x="291" y="12" type="line"/>
      <point x="283" y="13"/>
      <point x="250" y="15"/>
    </contour>
  </outline>
</glyph>
<glyph name="uni02AE" format="2">
  <advance width="776"/>
  <unicode hex="02AE"/>
  <anchor x="389" y="-240" name="bottom"/>
  <anchor x="389" y="536" name="top"/>
  <outline>
    <contour>
      <point x="600" y="-240" type="line"/>
      <point x="751" y="-240" type="line"/>
      <point x="751" y="-220" type="line"/>
      <point x="711" y="-220" type="line" smooth="yes"/>
      <point x="633" y="-220"/>
      <point x="628" y="-221"/>
      <point x="628" y="-140" type="curve" smooth="yes"/>
      <point x="628" y="444" type="line" smooth="yes"/>
      <point x="628" y="512"/>
      <point x="632" y="516"/>
      <point x="707" y="516" type="curve" smooth="yes"/>
      <point x="756" y="516" type="line"/>
      <point x="756" y="536" type="line"/>
      <point x="479" y="536" type="line"/>
      <point x="479" y="516" type="line"/>
      <point x="520" y="516" type="line" smooth="yes"/>
      <point x="598" y="516"/>
      <point x="600" y="512"/>
      <point x="600" y="444" type="curve" smooth="yes"/>
      <point x="600" y="201" type="line" smooth="yes"/>
      <point x="600" y="73"/>
      <point x="507" y="19"/>
      <point x="381" y="19" type="curve" smooth="yes"/>
      <point x="273" y="19"/>
      <point x="220" y="62"/>
      <point x="220" y="180" type="curve" smooth="yes"/>
      <point x="220" y="458" type="line" smooth="yes"/>
      <point x="220" y="486"/>
      <point x="199" y="547"/>
      <point x="109" y="547" type="curve" smooth="yes"/>
      <point x="51" y="547"/>
      <point x="11" y="524"/>
      <point x="11" y="492" type="curve" smooth="yes"/>
      <point x="11" y="489"/>
      <point x="14" y="487"/>
      <point x="10" y="483" type="curve"/>
      <point x="44" y="517"/>
      <point x="85" y="518"/>
      <point x="108" y="518" type="curve" smooth="yes"/>
      <point x="144" y="518"/>
      <point x="192" y="507"/>
      <point x="192" y="450" type="curve" smooth="yes"/>
      <point x="192" y="176" type="line" smooth="yes"/>
      <point x="192" y="40"/>
      <point x="258" y="-6"/>
      <point x="387" y="-6" type="curve" smooth="yes"/>
      <point x="529" y="-6"/>
      <point x="583" y="60"/>
      <point x="601" y="117" type="curve"/>
      <point x="603" y="117" type="line"/>
      <point x="601" y="111"/>
      <point x="600" y="89"/>
      <point x="600" y="67" type="curve" smooth="yes"/>
    </contour>
  </outline>
</glyph>
<glyph name="uni02B9" format="2">
  <advance width="106"/>
  <unicode hex="02B9"/>
  <outline>
    <contour>
      <point x="18" y="503" type="curve"/>
      <point x="30" y="503" type="line"/>
      <point x="55" y="560"/>
      <point x="71" y="631"/>
      <point x="87" y="703" type="curve"/>
      <point x="78" y="714" type="line"/>
      <point x="54" y="714" type="line"/>
      <point x="44" y="644"/>
      <point x="30" y="561"/>
    </contour>
  </outline>
</glyph>
<glyph name="uni02BF" format="2">
  <advance width="190"/>
  <unicode hex="02BF"/>
  <outline>
    <contour>
      <point x="160" y="581" type="curve"/>
      <point x="160" y="600" type="line"/>
      <point x="105" y="600"/>
      <point x="50" y="631"/>
      <point x="50" y="692" type="curve" smooth="yes"/>
      <point x="50" y="753"/>
      <point x="105" y="772"/>
      <point x="160" y="772" type="curve"/>
      <point x="160" y="791" type="line"/>
      <point x="80" y="791"/>
      <point x="30" y="762"/>
      <point x="30" y="692" type="curve" smooth="yes"/>
      <point x="30" y="621"/>
      <point x="80" y="581"/>
    </contour>
  </outline>
</glyph>
<glyph name="uni02C3" format="2">
  <advance width="335"/>
  <unicode hex="02C3"/>
  <outline>
    <contour>
      <point x="37" y="546" type="line"/>
      <point x="49" y="546" type="line"/>
      <point x="131" y="570"/>
      <point x="221" y="618"/>
      <point x="301" y="645" type="curve"/>
      <point x="301" y="664" type="line"/>
      <point x="211" y="696"/>
      <point x="128" y="740"/>
      <point x="49" y="764" type="curve"/>
      <point x="37" y="764" type="line"/>
      <point x="37" y="746" type="line"/>
      <point x="76" y="738"/>
      <point x="239" y="670"/>
      <point x="279" y="655" type="curve"/>
      <point x="239" y="640"/>
      <point x="76" y="571"/>
      <point x="37" y="564" type="curve"/>
    </contour>
  </outline>
</glyph>
<glyph name="caron" format="2">
  <advance width="340"/>
  <unicode hex="02C7"/>
  <outline>
    <contour>
      <point x="156" y="606" type="curve"/>
      <point x="185" y="606" type="line"/>
      <point x="200" y="651"/>
      <point x="262" y="715"/>
      <point x="300" y="753" type="curve"/>
      <point x="300" y="766" type="line"/>
      <point x="292" y="766" type="line"/>
      <point x="229" y="706"/>
      <point x="208" y="671"/>
      <point x="170" y="621" type="curve"/>
      <point x="134" y="671"/>
      <point x="112" y="706"/>
      <point x="48" y="766" type="curve"/>
      <point x="40" y="766" type="line"/>
      <point x="40" y="753" type="line"/>
      <point x="79" y="715"/>
      <point x="139" y="651"/>
    </contour>
  </outline>
</glyph>
<glyph name="breve" format="2">
  <advance width="358"/>
  <unicode hex="02D8"/>
  <outline>
    <contour>
      <point x="176" y="606" type="curve" smooth="yes"/>
      <point x="255" y="606"/>
      <point x="315" y="658"/>
      <point x="318" y="715" type="curve"/>
      <point x="303" y="715" type="line"/>
      <point x="293" y="671"/>
      <point x="233" y="640"/>
      <point x="176" y="640" type="curve" smooth="yes"/>
      <point x="121" y="640"/>
      <point x="67" y="669"/>
      <point x="56" y="715" type="curve"/>
      <point x="40" y="715" type="line"/>
      <point x="43" y="659"/>
      <point x="102" y="606"/>
    </contour>
  </outline>
</glyph>
<glyph name="dotaccent" format="2">
  <advance width="127"/>
  <unicode hex="02D9"/>
  <outline>
    <contour>
      <point x="64" y="658" type="curve" smooth="yes"/>
      <point x="81" y="658"/>
      <point x="87" y="666"/>
      <point x="87" y="698" type="curve" smooth="yes"/>
      <point x="87" y="729"/>
      <point x="81" y="738"/>
      <point x="64" y="738" type="curve" smooth="yes"/>
      <point x="50" y="738"/>
      <point x="40" y="729"/>
      <point x="40" y="698" type="curve" smooth="yes"/>
      <point x="40" y="666"/>
      <point x="50" y="658"/>
    </contour>
  </outline>
</glyph>
<glyph name="uni02DF" format="2">
  <advance width="270"/>
  <unicode hex="02DF"/>
  <outline>
    <contour>
      <point x="58" y="640" type="line"/>
      <point x="136" y="698" type="line"/>
      <point x="211" y="638" type="line"/>
      <point x="230" y="650" type="line"/>
      <point x="154" y="708" type="line"/>
      <point x="230" y="768" type="line"/>
      <point x="211" y="779" type="line"/>
      <point x="138" y="722" type="line"/>
      <point x="60" y="778" type="line"/>
      <point x="44" y="767" type="line"/>
      <point x="120" y="710" type="line"/>
      <point x="40" y="650" type="line"/>
    </contour>
  </outline>
</glyph>
<glyph name="uni02EC" format="2">
  <advance width="339"/>
  <unicode hex="02EC"/>
  <outline>
    <contour>
      <point x="167" y="-230" type="curve"/>
      <point x="173" y="-230" type="line"/>
      <point x="206" y="-145"/>
      <point x="266" y="-101"/>
      <point x="299" y="-82" type="curve"/>
      <point x="299" y="-68" type="line"/>
      <point x="305" y="-68" type="line"/>
      <point x="237" y="-91"/>
      <point x="183" y="-165"/>
      <point x="171" y="-218" type="curve"/>
      <point x="158" y="-165"/>
      <point x="102" y="-91"/>
      <point x="36" y="-68" type="curve"/>
      <point x="40" y="-68" type="line"/>
      <point x="40" y="-82" type="line"/>
      <point x="74" y="-100"/>
      <point x="134" y="-145"/>
    </contour>
  </outline>
</glyph>
<glyph name="uni02EF" format="2">
  <advance width="359"/>
  <unicode hex="02EF"/>
  <outline>
    <contour>
      <point x="170" y="-240" type="curve"/>
      <point x="190" y="-240" type="line"/>
      <point x="226" y="-176"/>
      <point x="282" y="-103"/>
      <point x="319" y="-38" type="curve"/>
      <point x="319" y="-28" type="line"/>
      <point x="295" y="-28" type="line"/>
      <point x="277" y="-57"/>
      <point x="199" y="-208"/>
      <point x="180" y="-237" type="curve"/>
      <point x="156" y="-208"/>
      <point x="82" y="-57"/>
      <point x="64" y="-28" type="curve"/>
      <point x="40" y="-28" type="line"/>
      <point x="40" y="-38" type="line"/>
      <point x="77" y="-96"/>
      <point x="136" y="-177"/>
    </contour>
  </outline>
</glyph>
<glyph name="uni02F2" format="2">
  <advance width="344"/>
  <unicode hex="02F2"/>
  <outline>
    <contour>
      <point x="40" y="-220" type="line"/>
      <point x="52" y="-220" type="line"/>
      <point x="132" y="-194"/>
      <point x="222" y="-144"/>
      <point x="304" y="-117" type="curve"/>
      <point x="304" y="-108" type="line"/>
      <point x="222" y="-80"/>
      <point x="126" y="-29"/>
      <point x="52" y="-2" type="curve"/>
      <point x="40" y="-2" type="line"/>
      <point x="40" y="-14" type="line"/>
      <point x="78" y="-25"/>
      <point x="236" y="-94"/>
      <point x="278" y="-111" type="curve"/>
      <point x="236" y="-126"/>
      <point x="78" y="-197"/>
      <point x="40" y="-208" type="curve"/>
    </contour>
  </outline>
</glyph>
<glyph name="dblverticallineabovecomb" format="2">
  <unicode hex="030E"/>
  <anchor x="-3" y="536" name="_top"/>
  <anchor x="-3" y="760" name="top"/>
  <outline>
    <contour>
      <point x="-61" y="609" type="line"/>
      <point x="-29" y="609" type="line"/>
      <point x="-29" y="760" type="line"/>
      <point x="-61" y="760" type="line"/>
    </contour>
    <contour>
      <point x="27" y="609" type="line"/>
      <point x="56" y="609" type="line"/>
      <point x="56" y="760" type="line"/>
      <point x="27" y="760" type="line"/>
    </contour>
  </outline>
</glyph>
<glyph name="candraBinducomb" format="2">
  <unicode hex="0310"/>
  <anchor x="0" y="536" name="_top"/>
  <anchor x="0" y="749" name="top"/>
  <outline>
    <contour>
      <point x="-3" y="575" type="curve" smooth="yes"/>
      <point x="98" y="575"/>
      <point x="120" y="645"/>
      <point x="123" y="702" type="curve"/>
      <point x="110" y="702" type="line"/>
      <point x="98" y="626"/>
      <point x="58" y="591"/>
      <point x="-3" y="591" type="curve" smooth="yes"/>
      <point x="-62" y="591"/>
      <point x="-98" y="624"/>
      <point x="-111" y="702" type="curve"/>
      <point x="-123" y="702" type="line"/>
      <point x="-120" y="646"/>
      <point x="-103" y="575"/>
    </contour>
    <contour>
      <point x="-1" y="663" type="curve" smooth="yes"/>
      <point x="13" y="663"/>
      <point x="18" y="671"/>
      <point x="18" y="707" type="curve" smooth="yes"/>
      <point x="18" y="739"/>
      <point x="13" y="749"/>
      <point x="-1" y="749" type="curve" smooth="yes"/>
      <point x="-12" y="749"/>
      <point x="-21" y="739"/>
      <point x="-21" y="707" type="curve" smooth="yes"/>
      <point x="-21" y="671"/>
      <point x="-12" y="663"/>
    </contour>
  </outline>
</glyph>
<glyph name="ringhalfleftbelowcomb" format="2">
  <unicode hex="031C"/>
  <anchor x="1" y="0" name="_bottom"/>
  <anchor x="1" y="-224" name="bottom"/>
  <outline>
    <contour>
      <point x="53" y="-224" type="curve"/>
      <point x="53" y="-203" type="line"/>
      <point x="-7" y="-203"/>
      <point x="-28" y="-168"/>
      <point x="-28" y="-131" type="curve" smooth="yes"/>
      <point x="-28" y="-105"/>
      <point x="-7" y="-64"/>
      <point x="53" y="-65" type="curve"/>
      <point x="53" y="-42" type="line"/>
      <point x="-30" y="-42"/>
      <point x="-52" y="-88"/>
      <point x="-52" y="-131" type="curve" smooth="yes"/>
      <point x="-52" y="-186"/>
      <point x="-30" y="-224"/>
    </contour>
  </outline>
</glyph>
<glyph name="ringbelowcomb" format="2">
  <unicode hex="0325"/>
  <anchor x="-3" y="0" name="_bottom"/>
  <anchor x="-3" y="-211" name="bottom"/>
  <outline>
    <contour>
      <point x="-1" y="-211" type="curve" smooth="yes"/>
      <point x="60" y="-211"/>
      <point x="106" y="-187"/>
      <point x="106" y="-144" type="curve" smooth="yes"/>
      <point x="106" y="-97"/>
      <point x="60" y="-73"/>
      <point x="-1" y="-73" type="curve" smooth="yes"/>
      <point x="-62" y="-73"/>
      <point x="-112" y="-97"/>
      <point x="-112" y="-144" type="curve" smooth="yes"/>
      <point x="-112" y="-187"/>
      <point x="-62" y="-211"/>
    </contour>
    <contour>
      <point x="-2" y="-190" type="curve" smooth="yes"/>
      <point x="-52" y="-190"/>
      <point x="-94" y="-166"/>
      <point x="-94" y="-144" type="curve" smooth="yes"/>
      <point x="-94" y="-119"/>
      <point x="-52" y="-96"/>
      <point x="-2" y="-96" type="curve" smooth="yes"/>
      <point x="51" y="-96"/>
      <point x="88" y="-119"/>
      <point x="88" y="-144" type="curve" smooth="yes"/>
      <point x="88" y="-166"/>
      <point x="51" y="-190"/>
    </contour>
  </outline>
</glyph>
<glyph name="dblarchinvertedbelowcomb" format="2">
  <unicode hex="032B"/>
  <anchor x="1" y="0" name="_bottom"/>
  <anchor x="1" y="-183" name="bottom"/>
  <outline>
    <contour>
      <point x="-85" y="-183" type="curve" smooth="yes"/>
      <point x="-36" y="-183"/>
      <point x="-10" y="-153"/>
      <point x="3" y="-128" type="curve"/>
      <point x="19" y="-153"/>
      <point x="45" y="-183"/>
      <point x="94" y="-183" type="curve" smooth="yes"/>
      <point x="157" y="-183"/>
      <point x="194" y="-171"/>
      <point x="199" y="-65" type="curve"/>
      <point x="180" y="-65" type="line"/>
      <point x="175" y="-152"/>
      <point x="139" y="-181"/>
      <point x="94" y="-181" type="curve" smooth="yes"/>
      <point x="48" y="-181"/>
      <point x="12" y="-149"/>
      <point x="13" y="-65" type="curve"/>
      <point x="-5" y="-65" type="line"/>
      <point x="-3" y="-149"/>
      <point x="-39" y="-181"/>
      <point x="-85" y="-181" type="curve" smooth="yes"/>
      <point x="-136" y="-181"/>
      <point x="-174" y="-152"/>
      <point x="-180" y="-65" type="curve"/>
      <point x="-198" y="-65" type="line"/>
      <point x="-193" y="-171"/>
      <point x="-148" y="-183"/>
    </contour>
  </outline>
</glyph>
<glyph name="circumflexbelowcomb" format="2">
  <unicode hex="032D"/>
  <anchor x="-2" y="0" name="_bottom"/>
  <anchor x="-2" y="-222" name="bottom"/>
  <outline>
    <contour>
      <point x="-131" y="-222" type="line"/>
      <point x="-123" y="-222" type="line"/>
      <point x="-60" y="-162"/>
      <point x="-39" y="-127"/>
      <point x="-1" y="-77" type="curve"/>
      <point x="35" y="-127"/>
      <point x="57" y="-162"/>
      <point x="121" y="-222" type="curve"/>
      <point x="129" y="-222" type="line"/>
      <point x="129" y="-209" type="line"/>
      <point x="90" y="-171"/>
      <point x="30" y="-107"/>
      <point x="13" y="-62" type="curve"/>
      <point x="-16" y="-62" type="line"/>
      <point x="-31" y="-107"/>
      <point x="-93" y="-171"/>
      <point x="-131" y="-209" type="curve"/>
    </contour>
  </outline>
</glyph>
<glyph name="brevebelowcomb" format="2">
  <unicode hex="032E"/>
  <anchor x="1" y="0" name="_bottom"/>
  <anchor x="1" y="-194" name="bottom"/>
  <outline>
    <contour>
      <point x="-2" y="-194" type="curve" smooth="yes"/>
      <point x="77" y="-194"/>
      <point x="137" y="-142"/>
      <point x="140" y="-85" type="curve"/>
      <point x="125" y="-85" type="line"/>
      <point x="115" y="-129"/>
      <point x="55" y="-160"/>
      <point x="-2" y="-160" type="curve" smooth="yes"/>
      <point x="-57" y="-160"/>
      <point x="-111" y="-131"/>
      <point x="-122" y="-85" type="curve"/>
      <point x="-138" y="-85" type="line"/>
      <point x="-135" y="-141"/>
      <point x="-76" y="-194"/>
    </contour>
  </outline>
</glyph>
<glyph name="dbllowlinecomb" format="2">
  <unicode hex="0333"/>
  <anchor x="-1" y="0" name="_bottom"/>
  <anchor x="-1" y="-220" name="bottom"/>
  <outline>
    <contour>
      <point x="-261" y="-100" type="line"/>
      <point x="260" y="-100" type="line"/>
      <point x="260" y="-41" type="line"/>
      <point x="-261" y="-41" type="line"/>
    </contour>
    <contour>
      <point x="-261" y="-220" type="line"/>
      <point x="260" y="-220" type="line"/>
      <point x="260" y="-161" type="line"/>
      <point x="-261" y="-161" type="line"/>
    </contour>
  </outline>
</glyph>
<glyph name="slashlongoverlaycomb" format="2">
  <unicode hex="0338"/>
  <anchor x="8" y="354" name="_center"/>
  <outline>
    <contour>
      <point x="-182" y="-66" type="line"/>
      <point x="221" y="766" type="line"/>
      <point x="195" y="775" type="line"/>
      <point x="-204" y="-60" type="line"/>
    </contour>
  </outline>
</glyph>
<glyph name="xabovecomb" format="2">
  <unicode hex="033D"/>
  <anchor x="-1" y="536" name="_top"/>
  <anchor x="-1" y="753" name="top"/>
  <outline>
    <contour>
      <point x="-62" y="580" type="line"/>
      <point x="0" y="629" type="line"/>
      <point x="60" y="580" type="line"/>
      <point x="106" y="617" type="line"/>
      <point x="46" y="666" type="line"/>
      <point x="107" y="715" type="line"/>
      <point x="61" y="753" type="line"/>
      <point x="0" y="703" type="line"/>
      <point x="-62" y="753" type="line"/>
      <point x="-109" y="716" type="line"/>
      <point x="-47" y="666" type="line"/>
      <point x="-109" y="617" type="line"/>
    </contour>
  </outline>
</glyph>
<glyph name="dbloverlinecomb" format="2">
  <unicode hex="033F"/>
  <anchor x="1" y="536" name="_top"/>
  <anchor x="1" y="948" name="top"/>
  <outline>
    <contour>
      <point x="-260" y="858" type="line"/>
      <point x="261" y="858" type="line"/>
      <point x="261" y="948" type="line"/>
      <point x="-260" y="948" type="line"/>
    </contour>
    <contour>
      <point x="-260" y="750" type="line"/>
      <point x="261" y="750" type="line"/>
      <point x="261" y="840" type="line"/>
      <point x="-260" y="840" type="line"/>
    </contour>
  </outline>
</glyph>
<glyph name="leftanglebelowcomb" format="2">
  <unicode hex="0349"/>
  <anchor x="-2" y="0" name="_bottom"/>
  <anchor x="-2" y="-214" name="bottom"/>
  <outline>
    <contour>
      <point x="46" y="-214" type="line"/>
      <point x="74" y="-214" type="line"/>
      <point x="74" y="-86" type="line"/>
      <point x="-78" y="-86" type="line"/>
      <point x="-78" y="-108" type="line"/>
      <point x="46" y="-108" type="line"/>
    </contour>
  </outline>
</glyph>
<glyph name="arrowheadrightbelowcomb" format="2">
  <unicode hex="0355"/>
  <anchor x="0" y="0" name="_bottom"/>
  <anchor x="0" y="-240" name="bottom"/>
  <outline>
    <contour>
      <point x="-120" y="-240" type="line"/>
      <point x="-107" y="-240" type="line"/>
      <point x="-24" y="-203"/>
      <point x="43" y="-178"/>
      <point x="120" y="-169" type="curve"/>
      <point x="120" y="-111" type="line"/>
      <point x="45" y="-96"/>
      <point x="-26" y="-76"/>
      <point x="-107" y="-40" type="curve"/>
      <point x="-120" y="-40" type="line"/>
      <point x="-120" y="-91" type="line"/>
      <point x="-88" y="-108"/>
      <point x="-44" y="-127"/>
      <point x="-3" y="-140" type="curve"/>
      <point x="-50" y="-154"/>
      <point x="-98" y="-177"/>
      <point x="-120" y="-189" type="curve"/>
    </contour>
  </outline>
</glyph>
<glyph name="righthalfringabovecomb" format="2">
  <unicode hex="0357"/>
  <anchor x="0" y="536" name="_top"/>
  <anchor x="0" y="818" name="top"/>
  <outline>
    <contour>
      <point x="-53" y="636" type="line"/>
      <point x="30" y="635"/>
      <point x="53" y="673"/>
      <point x="53" y="729" type="curve" smooth="yes"/>
      <point x="53" y="773"/>
      <point x="30" y="819"/>
      <point x="-53" y="818" type="curve"/>
      <point x="-53" y="795" type="line"/>
      <point x="8" y="796"/>
      <point x="29" y="755"/>
      <point x="29" y="729" type="curve" smooth="yes"/>
      <point x="29" y="692"/>
      <point x="8" y="656"/>
      <point x="-53" y="657" type="curve"/>
    </contour>
  </outline>
</glyph>
<glyph name="doublebrevecomb" format="2">
  <unicode hex="035D"/>
  <anchor x="0" y="536" name="_top"/>
  <anchor x="0" y="787" name="top"/>
  <outline>
    <contour>
      <point x="0" y="595" type="curve" smooth="yes"/>
      <point x="206" y="595"/>
      <point x="376" y="662"/>
      <point x="467" y="787" type="curve"/>
      <point x="436" y="787" type="line"/>
      <point x="383" y="702"/>
      <point x="225" y="617"/>
      <point x="0" y="617" type="curve" smooth="yes"/>
      <point x="-229" y="617"/>
      <point x="-383" y="702"/>
      <point x="-438" y="787" type="curve"/>
      <point x="-467" y="787" type="line"/>
      <point x="-378" y="660"/>
      <point x="-206" y="595"/>
    </contour>
  </outline>
</glyph>
<glyph name="uni0375" format="2">
  <advance width="188"/>
  <unicode hex="0375"/>
  <outline>
    <contour>
      <point x="92" y="-90" type="line"/>
      <point x="82" y="-90" type="line"/>
      <point x="50" y="-106"/>
      <point x="24" y="-191"/>
      <point x="4" y="-232" type="curve"/>
      <point x="4" y="-240" type="line"/>
      <point x="45" y="-240" type="line"/>
      <point x="48" y="-205"/>
      <point x="71" y="-154"/>
      <point x="92" y="-103" type="curve"/>
    </contour>
  </outline>
</glyph>
<glyph name="pamphyliandigamma" format="2">
  <advance width="672"/>
  <unicode hex="0377"/>
  <anchor x="336" y="0" name="bottom"/>
  <anchor x="336" y="536" name="top"/>
  <outline>
    <contour>
      <point x="562" y="-11" type="curve" smooth="yes"/>
      <point x="591" y="-11"/>
      <point x="598" y="-3"/>
      <point x="602" y="10" type="curve"/>
      <point x="577" y="9"/>
      <point x="534" y="33"/>
      <point x="534" y="38" type="curve" smooth="yes"/>
      <point x="534" y="244"/>
      <point x="606" y="458"/>
      <point x="637" y="536" type="curve"/>
      <point x="585" y="536" type="line"/>
      <point x="163" y="29" type="line"/>
      <point x="163" y="536" type="line"/>
      <point x="35" y="536" type="line"/>
      <point x="35" y="516" type="line"/>
      <point x="112" y="516" type="line" smooth="yes"/>
      <point x="133" y="516"/>
      <point x="135" y="512"/>
      <point x="135" y="444" type="curve" smooth="yes"/>
      <point x="135" y="0" type="line"/>
      <point x="164" y="0" type="line"/>
      <point x="595" y="514" type="line"/>
      <point x="550" y="367"/>
      <point x="506" y="188"/>
      <point x="506" y="56" type="curve" smooth="yes"/>
      <point x="506" y="-4"/>
      <point x="544" y="-11"/>
    </contour>
  </outline>
</glyph>
<glyph name="dieresistonos" format="2">
  <advance width="717"/>
  <unicode hex="0385"/>
  <anchor x="355" y="536" name="_top"/>
  <outline>
    <contour>
      <point x="337" y="663" type="line"/>
      <point x="337" y="663" type="line"/>
      <point x="365" y="721"/>
      <point x="355" y="705"/>
      <point x="419" y="811" type="curve"/>
      <point x="419" y="825" type="line"/>
      <point x="405" y="825" type="line"/>
      <point x="356" y="720"/>
      <point x="366" y="762"/>
      <point x="337" y="680" type="curve"/>
    </contour>
    <contour>
      <point x="253" y="637" type="curve" smooth="yes"/>
      <point x="268" y="637"/>
      <point x="273" y="638"/>
      <point x="273" y="681" type="curve" smooth="yes"/>
      <point x="273" y="721"/>
      <point x="268" y="726"/>
      <point x="253" y="726" type="curve" smooth="yes"/>
      <point x="240" y="726"/>
      <point x="233" y="721"/>
      <point x="233" y="681" type="curve" smooth="yes"/>
      <point x="233" y="638"/>
      <point x="240" y="637"/>
    </contour>
    <contour>
      <point x="458" y="637" type="curve" smooth="yes"/>
      <point x="471" y="637"/>
      <point x="476" y="638"/>
      <point x="476" y="681" type="curve" smooth="yes"/>
      <point x="476" y="721"/>
      <point x="471" y="726"/>
      <point x="458" y="726" type="curve" smooth="yes"/>
      <point x="444" y="726"/>
      <point x="437" y="721"/>
      <point x="437" y="681" type="curve" smooth="yes"/>
      <point x="437" y="638"/>
      <point x="444" y="637"/>
    </contour>
  </outline>
</glyph>
<glyph name="Delta" format="2">
  <advance width="591"/>
  <unicode hex="0394"/>
  <anchor x="295" y="0" name="bottom"/>
  <anchor x="295" y="714" name="top"/>
  <outline>
    <contour>
      <point x="9" y="0" type="line"/>
      <point x="588" y="0" type="line"/>
      <point x="588" y="12" type="line"/>
      <point x="314" y="714" type="line"/>
      <point x="295" y="714" type="line"/>
      <point x="9" y="16" type="line"/>
    </contour>
    <contour>
      <point x="46" y="20" type="line"/>
      <point x="226" y="445" type="line" smooth="yes"/>
      <point x="252" y="507"/>
      <point x="292" y="620"/>
      <point x="305" y="651" type="curve"/>
      <point x="318" y="625"/>
      <point x="351" y="523"/>
      <point x="375" y="464" type="curve" smooth="yes"/>
      <point x="553" y="22" type="line"/>
    </contour>
  </outline>
</glyph>
<glyph name="Sigma" format="2">
  <advance width="740"/>
  <unicode hex="03A3"/>
  <anchor x="371" y="0" name="bottom"/>
  <anchor x="371" y="714" name="top"/>
  <outline>
    <contour>
      <point x="35" y="0" type="line"/>
      <point x="680" y="0" type="line"/>
      <point x="693" y="161" type="line"/>
      <point x="673" y="161" type="line"/>
      <point x="664" y="29" type="line" smooth="yes"/>
      <point x="662" y="55"/>
      <point x="656" y="22"/>
      <point x="635" y="22" type="curve" smooth="yes"/>
      <point x="72" y="22" type="line"/>
      <point x="431" y="346" type="line"/>
      <point x="431" y="358" type="line"/>
      <point x="102" y="689" type="line"/>
      <point x="614" y="689" type="line" smooth="yes"/>
      <point x="666" y="689"/>
      <point x="659" y="659"/>
      <point x="663" y="653" type="curve" smooth="yes"/>
      <point x="672" y="549" type="line"/>
      <point x="690" y="549" type="line"/>
      <point x="679" y="714" type="line"/>
      <point x="62" y="714" type="line"/>
      <point x="62" y="696" type="line"/>
      <point x="397" y="359" type="line"/>
      <point x="35" y="28" type="line"/>
    </contour>
  </outline>
</glyph>
<glyph name="kappa" format="2">
  <advance width="690"/>
  <unicode hex="03BA"/>
  <anchor x="345" y="0" name="bottom"/>
  <anchor x="345" y="536" name="top"/>
  <outline>
    <contour>
      <point x="148" y="0" type="line"/>
      <point x="176" y="0" type="line"/>
      <point x="176" y="185" type="line"/>
      <point x="315" y="320" type="line"/>
      <point x="524" y="31" type="line" smooth="yes"/>
      <point x="552" y="8"/>
      <point x="559" y="0"/>
      <point x="627" y="0" type="curve" smooth="yes"/>
      <point x="640" y="0" type="line"/>
      <point x="640" y="30" type="line"/>
      <point x="621" y="30" type="line" smooth="yes"/>
      <point x="576" y="30"/>
      <point x="572" y="28"/>
      <point x="519" y="96" type="curve" smooth="yes"/>
      <point x="332" y="344" type="line"/>
      <point x="384" y="393" type="line" smooth="yes"/>
      <point x="459" y="475"/>
      <point x="480" y="509"/>
      <point x="550" y="509" type="curve" smooth="yes"/>
      <point x="578" y="509"/>
      <point x="604" y="508"/>
      <point x="622" y="500" type="curve"/>
      <point x="627" y="499"/>
      <point x="636" y="498"/>
      <point x="636" y="509" type="curve" smooth="yes"/>
      <point x="636" y="511"/>
      <point x="621" y="543"/>
      <point x="550" y="543" type="curve" smooth="yes"/>
      <point x="477" y="543"/>
      <point x="452" y="516"/>
      <point x="389" y="452" type="curve" smooth="yes"/>
      <point x="176" y="213" type="line"/>
      <point x="175" y="194"/>
      <point x="176" y="271"/>
      <point x="176" y="306" type="curve" smooth="yes"/>
      <point x="176" y="536" type="line"/>
      <point x="52" y="536" type="line"/>
      <point x="52" y="516" type="line"/>
      <point x="74" y="516" type="line" smooth="yes"/>
      <point x="137" y="516"/>
      <point x="148" y="502"/>
      <point x="148" y="453" type="curve" smooth="yes"/>
    </contour>
  </outline>
</glyph>
<glyph name="xi" format="2">
  <advance width="515"/>
  <unicode hex="03BE"/>
  <anchor x="257" y="-201" name="bottom"/>
  <anchor x="257" y="769" name="top"/>
  <outline>
    <contour>
      <point x="376" y="-201" type="line"/>
      <point x="431" y="-194"/>
      <point x="486" y="-150"/>
      <point x="486" y="-80" type="curve" smooth="yes"/>
      <point x="486" y="-18"/>
      <point x="468" y="-1"/>
      <point x="255" y="69" type="curve" smooth="yes"/>
      <point x="139" y="108"/>
      <point x="95" y="147"/>
      <point x="95" y="215" type="curve" smooth="yes"/>
      <point x="95" y="356"/>
      <point x="285" y="420"/>
      <point x="341" y="422" type="curve"/>
      <point x="346" y="421"/>
      <point x="352" y="416"/>
      <point x="376" y="416" type="curve" smooth="yes"/>
      <point x="415" y="416"/>
      <point x="437" y="425"/>
      <point x="437" y="439" type="curve" smooth="yes"/>
      <point x="437" y="450"/>
      <point x="421" y="458"/>
      <point x="396" y="458" type="curve" smooth="yes"/>
      <point x="374" y="458"/>
      <point x="363" y="452"/>
      <point x="351" y="447" type="curve"/>
      <point x="248" y="468"/>
      <point x="162" y="481"/>
      <point x="162" y="550" type="curve" smooth="yes"/>
      <point x="162" y="620"/>
      <point x="224" y="658"/>
      <point x="304" y="686" type="curve"/>
      <point x="324" y="682"/>
      <point x="355" y="679"/>
      <point x="395" y="679" type="curve" smooth="yes"/>
      <point x="405" y="679"/>
      <point x="418" y="680"/>
      <point x="418" y="694" type="curve" smooth="yes"/>
      <point x="418" y="708"/>
      <point x="403" y="710"/>
      <point x="385" y="710" type="curve" smooth="yes"/>
      <point x="349" y="710"/>
      <point x="315" y="698"/>
      <point x="308" y="700" type="curve"/>
      <point x="219" y="713"/>
      <point x="170" y="722"/>
      <point x="97" y="769" type="curve"/>
      <point x="80" y="747" type="line"/>
      <point x="143" y="711"/>
      <point x="209" y="693"/>
      <point x="278" y="690" type="curve"/>
      <point x="202" y="663"/>
      <point x="134" y="629"/>
      <point x="134" y="546" type="curve" smooth="yes"/>
      <point x="134" y="489"/>
      <point x="186" y="451"/>
      <point x="318" y="438" type="curve"/>
      <point x="318" y="438" type="line"/>
      <point x="189" y="393"/>
      <point x="67" y="326"/>
      <point x="67" y="211" type="curve" smooth="yes"/>
      <point x="67" y="81"/>
      <point x="199" y="58"/>
      <point x="273" y="33" type="curve" smooth="yes"/>
      <point x="436" y="-18"/>
      <point x="456" y="-30"/>
      <point x="456" y="-84" type="curve" smooth="yes"/>
      <point x="456" y="-159"/>
      <point x="403" y="-171"/>
      <point x="376" y="-175" type="curve"/>
    </contour>
  </outline>
</glyph>
<glyph name="sigma1" format="2">
  <advance width="526"/>
  <unicode hex="03C2"/>
  <anchor x="264" y="-200" name="bottom"/>
  <anchor x="264" y="536" name="top"/>
  <outline>
    <contour>
      <point x="358" y="-200" type="line"/>
      <point x="405" y="-202"/>
      <point x="468" y="-171"/>
      <point x="468" y="-64" type="curve" smooth="yes"/>
      <point x="468" y="1"/>
      <point x="438" y="22"/>
      <point x="299" y="72" type="curve" smooth="yes"/>
      <point x="197" y="112"/>
      <point x="110" y="96"/>
      <point x="110" y="276" type="curve" smooth="yes"/>
      <point x="110" y="466"/>
      <point x="227" y="517"/>
      <point x="312" y="517" type="curve" smooth="yes"/>
      <point x="406" y="517"/>
      <point x="466" y="480"/>
      <point x="466" y="414" type="curve"/>
      <point x="484" y="414"/>
      <point x="491" y="424"/>
      <point x="491" y="437" type="curve" smooth="yes"/>
      <point x="491" y="505"/>
      <point x="430" y="542"/>
      <point x="320" y="542" type="curve" smooth="yes"/>
      <point x="224" y="542"/>
      <point x="82" y="499"/>
      <point x="82" y="296" type="curve" smooth="yes"/>
      <point x="82" y="118"/>
      <point x="165" y="94"/>
      <point x="235" y="65" type="curve" smooth="yes"/>
      <point x="420" y="2"/>
      <point x="440" y="-7"/>
      <point x="440" y="-69" type="curve" smooth="yes"/>
      <point x="440" y="-138"/>
      <point x="412" y="-162"/>
      <point x="358" y="-175" type="curve"/>
    </contour>
  </outline>
</glyph>
<glyph name="chi" format="2">
  <advance width="591"/>
  <unicode hex="03C7"/>
  <anchor x="295" y="-240" name="bottom"/>
  <anchor x="295" y="536" name="top"/>
  <anchor x="571" y="536" name="topright"/>
  <outline>
    <contour>
      <point x="23" y="-240" type="line"/>
      <point x="57" y="-240" type="line"/>
      <point x="274" y="119" type="line"/>
      <point x="363" y="-102" type="line" smooth="yes"/>
      <point x="387" y="-162"/>
      <point x="400" y="-236"/>
      <point x="483" y="-236" type="curve" smooth="yes"/>
      <point x="510" y="-236"/>
      <point x="533" y="-228"/>
      <point x="553" y="-196" type="curve"/>
      <point x="534" y="-185" type="line"/>
      <point x="529" y="-196"/>
      <point x="514" y="-211"/>
      <point x="488" y="-211" type="curve" smooth="yes"/>
      <point x="424" y="-211"/>
      <point x="408" y="-124"/>
      <point x="383" y="-64" type="curve" smooth="yes"/>
      <point x="301" y="134" type="line"/>
      <point x="555" y="536" type="line"/>
      <point x="523" y="536" type="line"/>
      <point x="290" y="162" type="line"/>
      <point x="191" y="434" type="line" smooth="yes"/>
      <point x="168" y="489"/>
      <point x="148" y="540"/>
      <point x="78" y="540" type="curve" smooth="yes"/>
      <point x="49" y="540"/>
      <point x="27" y="534"/>
      <point x="2" y="505" type="curve"/>
      <point x="18" y="490" type="line"/>
      <point x="25" y="501"/>
      <point x="42" y="515"/>
      <point x="69" y="515" type="curve" smooth="yes"/>
      <point x="127" y="515"/>
      <point x="146" y="454"/>
      <point x="173" y="384" type="curve" smooth="yes"/>
      <point x="264" y="147" type="line"/>
    </contour>
  </outline>
</glyph>
<glyph name="omega" format="2">
  <advance width="894"/>
  <unicode hex="03C9"/>
  <anchor x="447" y="0" name="bottom"/>
  <anchor x="447" y="536" name="top"/>
  <outline>
    <contour>
      <point x="275" y="-10" type="curve" smooth="yes"/>
      <point x="375" y="-10"/>
      <point x="421" y="49"/>
      <point x="448" y="107" type="curve"/>
      <point x="470" y="61"/>
      <point x="520" y="-10"/>
      <point x="626" y="-10" type="curve" smooth="yes"/>
      <point x="750" y="-10"/>
      <point x="813" y="66"/>
      <point x="813" y="243" type="curve" smooth="yes"/>
      <point x="813" y="382"/>
      <point x="746" y="494"/>
      <point x="675" y="545" type="curve"/>
      <point x="658" y="533" type="line"/>
      <point x="726" y="439"/>
      <point x="785" y="387"/>
      <point x="785" y="244" type="curve" smooth="yes"/>
      <point x="785" y="130"/>
      <point x="744" y="15"/>
      <point x="624" y="15" type="curve" smooth="yes"/>
      <point x="516" y="15"/>
      <point x="473" y="69"/>
      <point x="453" y="171" type="curve"/>
      <point x="458" y="165"/>
      <point x="473" y="224"/>
      <point x="473" y="294" type="curve" smooth="yes"/>
      <point x="473" y="336"/>
      <point x="469" y="368"/>
      <point x="447" y="368" type="curve" smooth="yes"/>
      <point x="426" y="368"/>
      <point x="422" y="334"/>
      <point x="422" y="294" type="curve" smooth="yes"/>
      <point x="422" y="224"/>
      <point x="438" y="166"/>
      <point x="442" y="171" type="curve"/>
      <point x="423" y="70"/>
      <point x="388" y="15"/>
      <point x="277" y="15" type="curve" smooth="yes"/>
      <point x="157" y="15"/>
      <point x="110" y="130"/>
      <point x="110" y="244" type="curve" smooth="yes"/>
      <point x="110" y="386"/>
      <point x="169" y="439"/>
      <point x="237" y="533" type="curve"/>
      <point x="220" y="545" type="line"/>
      <point x="149" y="494"/>
      <point x="82" y="382"/>
      <point x="82" y="243" type="curve" smooth="yes"/>
      <point x="82" y="71"/>
      <point x="149" y="-10"/>
    </contour>
  </outline>
</glyph>
<glyph name="uni03D2" format="2">
  <advance width="672"/>
  <unicode hex="03D2"/>
  <anchor x="336" y="714" name="top"/>
  <outline>
    <contour>
      <point x="157" y="0" type="line"/>
      <point x="494" y="0" type="line"/>
      <point x="494" y="20" type="line"/>
      <point x="354" y="20" type="line" smooth="yes"/>
      <point x="356" y="20"/>
      <point x="339" y="35"/>
      <point x="339" y="120" type="curve" smooth="yes"/>
      <point x="339" y="199" type="line" smooth="yes"/>
      <point x="339" y="273"/>
      <point x="429" y="448"/>
      <point x="460" y="517" type="curve" smooth="yes"/>
      <point x="526" y="650"/>
      <point x="534" y="696"/>
      <point x="607" y="696" type="curve" smooth="yes"/>
      <point x="636" y="696"/>
      <point x="668" y="686"/>
      <point x="668" y="665" type="curve"/>
      <point x="681" y="671"/>
      <point x="686" y="675"/>
      <point x="686" y="679" type="curve" smooth="yes"/>
      <point x="686" y="712"/>
      <point x="646" y="721"/>
      <point x="609" y="721" type="curve" smooth="yes"/>
      <point x="540" y="721"/>
      <point x="515" y="718"/>
      <point x="459" y="587" type="curve" smooth="yes"/>
      <point x="428" y="518"/>
      <point x="350" y="341"/>
      <point x="326" y="271" type="curve"/>
      <point x="318" y="334"/>
      <point x="285" y="477"/>
      <point x="210" y="586" type="curve" smooth="yes"/>
      <point x="171" y="624"/>
      <point x="100" y="714"/>
      <point x="45" y="714" type="curve" smooth="yes"/>
      <point x="-5" y="714" type="line"/>
      <point x="-5" y="687" type="line"/>
      <point x="15" y="687" type="line" smooth="yes"/>
      <point x="82" y="687"/>
      <point x="145" y="610"/>
      <point x="188" y="559" type="curve" smooth="yes"/>
      <point x="276" y="445"/>
      <point x="311" y="220"/>
      <point x="311" y="197" type="curve" smooth="yes"/>
      <point x="311" y="120" type="line" smooth="yes"/>
      <point x="311" y="35"/>
      <point x="303" y="20"/>
      <point x="290" y="20" type="curve" smooth="yes"/>
      <point x="157" y="20" type="line"/>
    </contour>
  </outline>
</glyph>
<glyph name="phi1" format="2">
  <advance width="787"/>
  <unicode hex="03D5"/>
  <anchor x="394" y="-240" name="bottom"/>
  <anchor x="394" y="760" name="top"/>
  <anchor x="767" y="536" name="topright"/>
  <outline>
    <contour>
      <point x="376" y="-240" type="line"/>
      <point x="410" y="-240" type="line"/>
      <point x="410" y="-9" type="line"/>
      <point x="590" y="0"/>
      <point x="703" y="101"/>
      <point x="703" y="269" type="curve" smooth="yes"/>
      <point x="703" y="447"/>
      <point x="582" y="537"/>
      <point x="410" y="545" type="curve"/>
      <point x="410" y="760" type="line"/>
      <point x="376" y="760" type="line"/>
      <point x="376" y="545" type="line"/>
      <point x="208" y="537"/>
      <point x="86" y="449"/>
      <point x="86" y="269" type="curve" smooth="yes"/>
      <point x="86" y="93"/>
      <point x="202" y="-1"/>
      <point x="376" y="-9" type="curve"/>
    </contour>
    <contour>
      <point x="376" y="16" type="line"/>
      <point x="182" y="25"/>
      <point x="114" y="148"/>
      <point x="114" y="269" type="curve" smooth="yes"/>
      <point x="114" y="398"/>
      <point x="191" y="512"/>
      <point x="376" y="519" type="curve"/>
    </contour>
    <contour>
      <point x="410" y="16" type="curve"/>
      <point x="410" y="520" type="line"/>
      <point x="597" y="511"/>
      <point x="675" y="399"/>
      <point x="675" y="269" type="curve" smooth="yes"/>
      <point x="675" y="152"/>
      <point x="604" y="25"/>
    </contour>
  </outline>
</glyph>
<glyph name="uni03D6" format="2">
  <advance width="980"/>
  <unicode hex="03D6"/>
  <outline>
    <contour>
      <point x="316" y="-10" type="curve" smooth="yes"/>
      <point x="416" y="-10"/>
      <point x="462" y="49"/>
      <point x="489" y="107" type="curve"/>
      <point x="511" y="61"/>
      <point x="561" y="-10"/>
      <point x="667" y="-10" type="curve" smooth="yes"/>
      <point x="791" y="-10"/>
      <point x="854" y="66"/>
      <point x="854" y="243" type="curve" smooth="yes"/>
      <point x="854" y="370"/>
      <point x="799" y="460"/>
      <point x="735" y="514" type="curve"/>
      <point x="775" y="514" type="line" smooth="yes"/>
      <point x="897" y="514"/>
      <point x="918" y="551"/>
      <point x="918" y="618" type="curve"/>
      <point x="903" y="618" type="line"/>
      <point x="903" y="587"/>
      <point x="870" y="536"/>
      <point x="794" y="536" type="curve" smooth="yes"/>
      <point x="195" y="536" type="line" smooth="yes"/>
      <point x="73" y="536"/>
      <point x="42" y="489"/>
      <point x="42" y="437" type="curve"/>
      <point x="61" y="437" type="line"/>
      <point x="61" y="484"/>
      <point x="96" y="514"/>
      <point x="170" y="514" type="curve" smooth="yes"/>
      <point x="240" y="514" type="line"/>
      <point x="176" y="460"/>
      <point x="123" y="370"/>
      <point x="123" y="243" type="curve" smooth="yes"/>
      <point x="123" y="71"/>
      <point x="190" y="-10"/>
    </contour>
    <contour>
      <point x="318" y="15" type="curve" smooth="yes"/>
      <point x="198" y="15"/>
      <point x="151" y="130"/>
      <point x="151" y="244" type="curve" smooth="yes"/>
      <point x="151" y="386"/>
      <point x="207" y="424"/>
      <point x="275" y="514" type="curve"/>
      <point x="700" y="514" type="line"/>
      <point x="768" y="424"/>
      <point x="826" y="387"/>
      <point x="826" y="244" type="curve" smooth="yes"/>
      <point x="826" y="130"/>
      <point x="785" y="15"/>
      <point x="665" y="15" type="curve" smooth="yes"/>
      <point x="557" y="15"/>
      <point x="514" y="69"/>
      <point x="494" y="171" type="curve"/>
      <point x="499" y="174"/>
      <point x="514" y="204"/>
      <point x="514" y="279" type="curve" smooth="yes"/>
      <point x="514" y="330"/>
      <point x="510" y="368"/>
      <point x="488" y="368" type="curve" smooth="yes"/>
      <point x="467" y="368"/>
      <point x="463" y="329"/>
      <point x="463" y="279" type="curve" smooth="yes"/>
      <point x="463" y="204"/>
      <point x="479" y="175"/>
      <point x="483" y="171" type="curve"/>
      <point x="464" y="70"/>
      <point x="429" y="15"/>
    </contour>
  </outline>
</glyph>
<glyph name="uni03D7" format="2">
  <advance width="685"/>
  <unicode hex="03D7"/>
  <outline>
    <contour>
      <point x="502" y="-199" type="curve" smooth="yes"/>
      <point x="581" y="-199"/>
      <point x="591" y="-133"/>
      <point x="591" y="-112" type="curve" smooth="yes"/>
      <point x="591" y="32" type="line"/>
      <point x="591" y="37"/>
      <point x="514" y="11"/>
      <point x="514" y="99" type="curve" smooth="yes"/>
      <point x="514" y="255"/>
      <point x="612" y="461"/>
      <point x="653" y="536" type="curve"/>
      <point x="619" y="536" type="line"/>
      <point x="75" y="16" type="line"/>
      <point x="119" y="117"/>
      <point x="194" y="351"/>
      <point x="194" y="539" type="curve" smooth="yes"/>
      <point x="194" y="521"/>
      <point x="188" y="546"/>
      <point x="150" y="546" type="curve" smooth="yes"/>
      <point x="99" y="546"/>
      <point x="68" y="522"/>
      <point x="68" y="493" type="curve"/>
      <point x="145" y="494"/>
      <point x="166" y="508"/>
      <point x="166" y="533" type="curve" smooth="yes"/>
      <point x="166" y="402"/>
      <point x="115" y="244"/>
      <point x="46" y="0" type="curve"/>
      <point x="78" y="0" type="line"/>
      <point x="588" y="473" type="line"/>
      <point x="546" y="402"/>
      <point x="486" y="228"/>
      <point x="486" y="46" type="curve" smooth="yes"/>
      <point x="486" y="-10"/>
      <point x="525" y="0"/>
      <point x="523" y="0" type="curve" smooth="yes"/>
      <point x="546" y="0"/>
      <point x="556" y="2"/>
      <point x="565" y="6" type="curve"/>
      <point x="565" y="-112" type="line" smooth="yes"/>
      <point x="565" y="-162"/>
      <point x="542" y="-176"/>
      <point x="498" y="-176" type="curve" smooth="yes"/>
      <point x="470" y="-176"/>
      <point x="462" y="-155"/>
      <point x="450" y="-151" type="curve"/>
      <point x="436" y="-150"/>
      <point x="431" y="-157"/>
      <point x="431" y="-166" type="curve" smooth="yes"/>
      <point x="431" y="-177"/>
      <point x="450" y="-199"/>
    </contour>
  </outline>
</glyph>
<glyph name="uni03FA" format="2">
  <advance width="1139"/>
  <unicode hex="03FA"/>
  <anchor x="569" y="0" name="bottom"/>
  <anchor x="569" y="714" name="top"/>
  <outline>
    <contour>
      <point x="64" y="0" type="line"/>
      <point x="324" y="0" type="line"/>
      <point x="324" y="20" type="line"/>
      <point x="269" y="20" type="line" smooth="yes"/>
      <point x="229" y="20"/>
      <point x="219" y="31"/>
      <point x="219" y="108" type="curve" smooth="yes"/>
      <point x="219" y="672" type="line"/>
      <point x="552" y="254" type="line"/>
      <point x="583" y="254" type="line"/>
      <point x="927" y="661" type="line"/>
      <point x="927" y="108" type="line" smooth="yes"/>
      <point x="927" y="31"/>
      <point x="921" y="20"/>
      <point x="869" y="20" type="curve" smooth="yes"/>
      <point x="786" y="20" type="line"/>
      <point x="786" y="0" type="line"/>
      <point x="1075" y="0" type="line"/>
      <point x="1075" y="20" type="line"/>
      <point x="1013" y="20" type="line" smooth="yes"/>
      <point x="961" y="20"/>
      <point x="955" y="31"/>
      <point x="955" y="108" type="curve" smooth="yes"/>
      <point x="955" y="604" type="line" smooth="yes"/>
      <point x="955" y="683"/>
      <point x="961" y="694"/>
      <point x="1011" y="694" type="curve" smooth="yes"/>
      <point x="1075" y="694" type="line"/>
      <point x="1075" y="714" type="line"/>
      <point x="929" y="714" type="line"/>
      <point x="567" y="279" type="line"/>
      <point x="225" y="714" type="line"/>
      <point x="64" y="714" type="line"/>
      <point x="64" y="694" type="line"/>
      <point x="128" y="694" type="line" smooth="yes"/>
      <point x="184" y="694"/>
      <point x="188" y="683"/>
      <point x="188" y="604" type="curve" smooth="yes"/>
      <point x="188" y="108" type="line" smooth="yes"/>
      <point x="188" y="31"/>
      <point x="182" y="20"/>
      <point x="130" y="20" type="curve" smooth="yes"/>
      <point x="64" y="20" type="line"/>
    </contour>
  </outline>
</glyph>
<glyph name="uni03FC" format="2">
  <advance width="689"/>
  <unicode hex="03FC"/>
  <anchor x="344" y="-240" name="bottom"/>
  <anchor x="344" y="536" name="top"/>
  <outline>
    <contour>
      <point x="117" y="-240" type="line"/>
      <point x="145" y="-240" type="line"/>
      <point x="145" y="-116" type="line"/>
      <point x="347" y="-116" type="line"/>
      <point x="347" y="-91" type="line"/>
      <point x="145" y="-91" type="line"/>
      <point x="145" y="-49" type="line" smooth="yes"/>
      <point x="145" y="-13"/>
      <point x="144" y="14"/>
      <point x="143" y="32" type="curve"/>
      <point x="204" y="-5"/>
      <point x="275" y="-10"/>
      <point x="327" y="-10" type="curve" smooth="yes"/>
      <point x="469" y="-10"/>
      <point x="608" y="98"/>
      <point x="608" y="266" type="curve" smooth="yes"/>
      <point x="608" y="450"/>
      <point x="527" y="542"/>
      <point x="361" y="542" type="curve" smooth="yes"/>
      <point x="201" y="542"/>
      <point x="117" y="458"/>
      <point x="117" y="337" type="curve" smooth="yes"/>
      <point x="117" y="-91" type="line"/>
      <point x="0" y="-91" type="line"/>
      <point x="0" y="-116" type="line"/>
      <point x="117" y="-116" type="line"/>
    </contour>
    <contour>
      <point x="329" y="15" type="curve" smooth="yes"/>
      <point x="244" y="15"/>
      <point x="199" y="36"/>
      <point x="145" y="59" type="curve"/>
      <point x="145" y="293" type="line" smooth="yes"/>
      <point x="145" y="411"/>
      <point x="186" y="517"/>
      <point x="359" y="517" type="curve" smooth="yes"/>
      <point x="515" y="517"/>
      <point x="580" y="415"/>
      <point x="580" y="264" type="curve" smooth="yes"/>
      <point x="580" y="104"/>
      <point x="443" y="15"/>
    </contour>
  </outline>
</glyph>
<glyph name="afii10051" format="2">
  <advance width="842"/>
  <unicode hex="0402"/>
  <anchor x="421" y="0" name="bottom"/>
  <anchor x="421" y="714" name="top"/>
  <outline>
    <contour>
      <point x="150" y="0" type="line"/>
      <point x="479" y="0" type="line"/>
      <point x="479" y="20" type="line"/>
      <point x="358" y="20" type="line" smooth="yes"/>
      <point x="342" y="20"/>
      <point x="330" y="31"/>
      <point x="330" y="108" type="curve" smooth="yes"/>
      <point x="330" y="389" type="line"/>
      <point x="404" y="410"/>
      <point x="450" y="413"/>
      <point x="510" y="413" type="curve" smooth="yes"/>
      <point x="627" y="413"/>
      <point x="732" y="385"/>
      <point x="732" y="231" type="curve" smooth="yes"/>
      <point x="732" y="68"/>
      <point x="677" y="25"/>
      <point x="572" y="25" type="curve" smooth="yes"/>
      <point x="552" y="25" type="line"/>
      <point x="552" y="0" type="line"/>
      <point x="575" y="0" type="line" smooth="yes"/>
      <point x="691" y="0"/>
      <point x="760" y="56"/>
      <point x="760" y="222" type="curve" smooth="yes"/>
      <point x="760" y="386"/>
      <point x="672" y="438"/>
      <point x="510" y="438" type="curve" smooth="yes"/>
      <point x="443" y="438"/>
      <point x="379" y="429"/>
      <point x="330" y="411" type="curve"/>
      <point x="346" y="689" type="line"/>
      <point x="529" y="689" type="line" smooth="yes"/>
      <point x="559" y="689"/>
      <point x="563" y="689"/>
      <point x="567" y="624" type="curve" smooth="yes"/>
      <point x="571" y="563" type="line"/>
      <point x="591" y="563" type="line"/>
      <point x="585" y="714" type="line"/>
      <point x="47" y="714" type="line"/>
      <point x="41" y="563" type="line"/>
      <point x="61" y="563" type="line"/>
      <point x="65" y="634" type="line" smooth="yes"/>
      <point x="67" y="677"/>
      <point x="71" y="689"/>
      <point x="93" y="689" type="curve" smooth="yes"/>
      <point x="302" y="689" type="line"/>
      <point x="302" y="108" type="line" smooth="yes"/>
      <point x="302" y="31"/>
      <point x="294" y="20"/>
      <point x="256" y="20" type="curve" smooth="yes"/>
      <point x="150" y="20" type="line"/>
    </contour>
  </outline>
</glyph>
<glyph name="afii10025" format="2">
  <advance width="657"/>
  <unicode hex="0417"/>
  <anchor x="329" y="0" name="bottom"/>
  <anchor x="329" y="714" name="top"/>
  <outline>
    <contour>
      <point x="306" y="-8" type="curve" smooth="yes"/>
      <point x="459" y="-8"/>
      <point x="569" y="90"/>
      <point x="569" y="203" type="curve" smooth="yes"/>
      <point x="569" y="291"/>
      <point x="518" y="365"/>
      <point x="426" y="370" type="curve"/>
      <point x="525" y="391"/>
      <point x="559" y="448"/>
      <point x="559" y="551" type="curve" smooth="yes"/>
      <point x="559" y="641"/>
      <point x="494" y="727"/>
      <point x="324" y="727" type="curve" smooth="yes"/>
      <point x="208" y="727"/>
      <point x="92" y="696"/>
      <point x="92" y="604" type="curve" smooth="yes"/>
      <point x="92" y="588"/>
      <point x="100" y="565"/>
      <point x="125" y="565" type="curve"/>
      <point x="125" y="642"/>
      <point x="171" y="702"/>
      <point x="324" y="702" type="curve" smooth="yes"/>
      <point x="470" y="702"/>
      <point x="531" y="625"/>
      <point x="531" y="544" type="curve" smooth="yes"/>
      <point x="531" y="429"/>
      <point x="473" y="384"/>
      <point x="333" y="384" type="curve" smooth="yes"/>
      <point x="238" y="384" type="line"/>
      <point x="238" y="359" type="line"/>
      <point x="335" y="359" type="line" smooth="yes"/>
      <point x="466" y="359"/>
      <point x="541" y="302"/>
      <point x="541" y="209" type="curve" smooth="yes"/>
      <point x="541" y="107"/>
      <point x="434" y="17"/>
      <point x="304" y="17" type="curve" smooth="yes"/>
      <point x="190" y="17"/>
      <point x="100" y="62"/>
      <point x="98" y="154" type="curve"/>
      <point x="77" y="154"/>
      <point x="68" y="151"/>
      <point x="68" y="136" type="curve" smooth="yes"/>
      <point x="68" y="40"/>
      <point x="175" y="-8"/>
    </contour>
  </outline>
</glyph>
<glyph name="afii10042" format="2">
  <advance width="1195"/>
  <unicode hex="0428"/>
  <anchor x="598" y="0" name="bottom"/>
  <anchor x="598" y="714" name="top"/>
  <outline>
    <contour>
      <point x="64" y="0" type="line"/>
      <point x="1134" y="0" type="line"/>
      <point x="1134" y="20" type="line"/>
      <point x="1062" y="20" type="line" smooth="yes"/>
      <point x="1022" y="20"/>
      <point x="1008" y="29"/>
      <point x="1008" y="108" type="curve" smooth="yes"/>
      <point x="1008" y="604" type="line" smooth="yes"/>
      <point x="1008" y="683"/>
      <point x="1016" y="694"/>
      <point x="1058" y="694" type="curve" smooth="yes"/>
      <point x="1133" y="694" type="line"/>
      <point x="1133" y="714" type="line"/>
      <point x="869" y="714" type="line"/>
      <point x="869" y="694" type="line"/>
      <point x="932" y="694" type="line" smooth="yes"/>
      <point x="978" y="694"/>
      <point x="980" y="683"/>
      <point x="980" y="604" type="curve" smooth="yes"/>
      <point x="978" y="25" type="line"/>
      <point x="610" y="25" type="line"/>
      <point x="610" y="604" type="line" smooth="yes"/>
      <point x="610" y="683"/>
      <point x="612" y="694"/>
      <point x="656" y="694" type="curve" smooth="yes"/>
      <point x="709" y="694" type="line"/>
      <point x="709" y="714" type="line"/>
      <point x="489" y="714" type="line"/>
      <point x="489" y="694" type="line"/>
      <point x="526" y="694" type="line" smooth="yes"/>
      <point x="574" y="694"/>
      <point x="582" y="683"/>
      <point x="582" y="604" type="curve" smooth="yes"/>
      <point x="582" y="25" type="line"/>
      <point x="214" y="25" type="line"/>
      <point x="214" y="604" type="line" smooth="yes"/>
      <point x="214" y="683"/>
      <point x="216" y="694"/>
      <point x="278" y="694" type="curve" smooth="yes"/>
      <point x="325" y="694" type="line"/>
      <point x="325" y="714" type="line"/>
      <point x="63" y="714" type="line"/>
      <point x="63" y="694" type="line"/>
      <point x="130" y="694" type="line" smooth="yes"/>
      <point x="178" y="694"/>
      <point x="186" y="683"/>
      <point x="186" y="604" type="curve" smooth="yes"/>
      <point x="186" y="108" type="line" smooth="yes"/>
      <point x="186" y="31"/>
      <point x="182" y="20"/>
      <point x="126" y="20" type="curve" smooth="yes"/>
      <point x="64" y="20" type="line"/>
    </contour>
  </outline>
</glyph>
<glyph name="afii10046" format="2">
  <advance width="690"/>
  <unicode hex="042C"/>
  <anchor x="345" y="0" name="bottom"/>
  <anchor x="345" y="714" name="top"/>
  <outline>
    <contour>
      <point x="64" y="0" type="line"/>
      <point x="315" y="0" type="line" smooth="yes"/>
      <point x="502" y="0"/>
      <point x="627" y="45"/>
      <point x="627" y="191" type="curve" smooth="yes"/>
      <point x="627" y="333"/>
      <point x="537" y="388"/>
      <point x="370" y="388" type="curve" smooth="yes"/>
      <point x="216" y="388" type="line"/>
      <point x="216" y="604" type="line" smooth="yes"/>
      <point x="216" y="683"/>
      <point x="218" y="694"/>
      <point x="278" y="694" type="curve" smooth="yes"/>
      <point x="315" y="694" type="line"/>
      <point x="315" y="714" type="line"/>
      <point x="64" y="714" type="line"/>
      <point x="64" y="694" type="line"/>
      <point x="136" y="694" type="line" smooth="yes"/>
      <point x="180" y="694"/>
      <point x="188" y="683"/>
      <point x="188" y="604" type="curve" smooth="yes"/>
      <point x="188" y="108" type="line" smooth="yes"/>
      <point x="188" y="31"/>
      <point x="184" y="20"/>
      <point x="128" y="20" type="curve" smooth="yes"/>
      <point x="64" y="20" type="line"/>
    </contour>
    <contour>
      <point x="216" y="25" type="line"/>
      <point x="216" y="363" type="line"/>
      <point x="353" y="363" type="line" smooth="yes"/>
      <point x="515" y="363"/>
      <point x="599" y="322"/>
      <point x="599" y="191" type="curve" smooth="yes"/>
      <point x="599" y="73"/>
      <point x="510" y="25"/>
      <point x="325" y="25" type="curve" smooth="yes"/>
    </contour>
  </outline>
</glyph>
<glyph name="afii10069" format="2">
  <advance width="656"/>
  <unicode hex="0434"/>
  <anchor x="329" y="0" name="bottom"/>
  <anchor x="329" y="536" name="top"/>
  <outline>
    <contour>
      <point x="15" y="-210" type="line"/>
      <point x="35" y="-210" type="line"/>
      <point x="48" y="76" type="line" smooth="yes"/>
      <point x="51" y="15"/>
      <point x="49" y="0"/>
      <point x="24" y="0" type="curve" smooth="yes"/>
      <point x="582" y="0" type="line" smooth="yes"/>
      <point x="541" y="0"/>
      <point x="539" y="18"/>
      <point x="540" y="82" type="curve" smooth="yes"/>
      <point x="551" y="-210" type="line"/>
      <point x="571" y="-210" type="line"/>
      <point x="571" y="30" type="line"/>
      <point x="509" y="30" type="line" smooth="yes"/>
      <point x="477" y="30"/>
      <point x="469" y="54"/>
      <point x="469" y="60" type="curve" smooth="yes"/>
      <point x="469" y="444" type="line" smooth="yes"/>
      <point x="469" y="513"/>
      <point x="479" y="516"/>
      <point x="515" y="516" type="curve" smooth="yes"/>
      <point x="597" y="516" type="line"/>
      <point x="597" y="536" type="line"/>
      <point x="95" y="536" type="line"/>
      <point x="95" y="516" type="line"/>
      <point x="175" y="516" type="line" smooth="yes"/>
      <point x="213" y="516"/>
      <point x="212" y="515"/>
      <point x="212" y="521" type="curve" smooth="yes"/>
      <point x="212" y="383"/>
      <point x="197" y="311"/>
      <point x="172" y="223" type="curve" smooth="yes"/>
      <point x="155" y="167"/>
      <point x="131" y="97"/>
      <point x="107" y="25" type="curve"/>
      <point x="15" y="25" type="line"/>
    </contour>
    <contour>
      <point x="140" y="25" type="line"/>
      <point x="199" y="196"/>
      <point x="231" y="283"/>
      <point x="251" y="511" type="curve"/>
      <point x="441" y="511" type="line"/>
      <point x="441" y="25" type="line"/>
    </contour>
  </outline>
</glyph>
<glyph name="afii10072" format="2">
  <advance width="978"/>
  <unicode hex="0436"/>
  <anchor x="489" y="0" name="bottom"/>
  <anchor x="489" y="536" name="top"/>
  <outline>
    <contour>
      <point x="16" y="0" type="line"/>
      <point x="31" y="0" type="line" smooth="yes"/>
      <point x="117" y="0"/>
      <point x="157" y="52"/>
      <point x="159" y="50" type="curve" smooth="yes"/>
      <point x="231" y="194" type="line" smooth="yes"/>
      <point x="264" y="256"/>
      <point x="309" y="257"/>
      <point x="475" y="257" type="curve"/>
      <point x="475" y="92" type="line" smooth="yes"/>
      <point x="475" y="22"/>
      <point x="473" y="20"/>
      <point x="448" y="20" type="curve" smooth="yes"/>
      <point x="385" y="20" type="line"/>
      <point x="385" y="0" type="line"/>
      <point x="593" y="0" type="line"/>
      <point x="593" y="20" type="line"/>
      <point x="540" y="20" type="line" smooth="yes"/>
      <point x="505" y="20"/>
      <point x="503" y="22"/>
      <point x="503" y="92" type="curve" smooth="yes"/>
      <point x="503" y="257" type="line"/>
      <point x="669" y="257"/>
      <point x="714" y="256"/>
      <point x="747" y="194" type="curve" smooth="yes"/>
      <point x="819" y="50" type="line" smooth="yes"/>
      <point x="821" y="52"/>
      <point x="861" y="0"/>
      <point x="947" y="0" type="curve" smooth="yes"/>
      <point x="962" y="0" type="line"/>
      <point x="962" y="30" type="line"/>
      <point x="941" y="30" type="line" smooth="yes"/>
      <point x="894" y="30"/>
      <point x="867" y="25"/>
      <point x="826" y="94" type="curve" smooth="yes"/>
      <point x="770" y="203" type="line" smooth="yes"/>
      <point x="745" y="254"/>
      <point x="719" y="271"/>
      <point x="638" y="279" type="curve"/>
      <point x="676" y="297"/>
      <point x="701" y="342"/>
      <point x="737" y="396" type="curve" smooth="yes"/>
      <point x="777" y="455"/>
      <point x="812" y="517"/>
      <point x="863" y="517" type="curve" smooth="yes"/>
      <point x="914" y="517"/>
      <point x="933" y="500"/>
      <point x="932" y="433" type="curve"/>
      <point x="958" y="438"/>
      <point x="955" y="461"/>
      <point x="955" y="475" type="curve" smooth="yes"/>
      <point x="955" y="515"/>
      <point x="908" y="542"/>
      <point x="871" y="542" type="curve" smooth="yes"/>
      <point x="791" y="542"/>
      <point x="783" y="520"/>
      <point x="727" y="429" type="curve" smooth="yes"/>
      <point x="694" y="378"/>
      <point x="658" y="334"/>
      <point x="642" y="317" type="curve" smooth="yes"/>
      <point x="613" y="285"/>
      <point x="592" y="282"/>
      <point x="503" y="282" type="curve"/>
      <point x="503" y="444" type="line" smooth="yes"/>
      <point x="503" y="511"/>
      <point x="504" y="516"/>
      <point x="543" y="516" type="curve" smooth="yes"/>
      <point x="593" y="516" type="line"/>
      <point x="593" y="536" type="line"/>
      <point x="385" y="536" type="line"/>
      <point x="385" y="516" type="line"/>
      <point x="447" y="516" type="line" smooth="yes"/>
      <point x="474" y="516"/>
      <point x="475" y="511"/>
      <point x="475" y="444" type="curve" smooth="yes"/>
      <point x="475" y="282" type="line"/>
      <point x="386" y="282"/>
      <point x="365" y="285"/>
      <point x="336" y="317" type="curve" smooth="yes"/>
      <point x="320" y="334"/>
      <point x="284" y="378"/>
      <point x="251" y="429" type="curve" smooth="yes"/>
      <point x="195" y="520"/>
      <point x="187" y="542"/>
      <point x="107" y="542" type="curve" smooth="yes"/>
      <point x="70" y="542"/>
      <point x="23" y="515"/>
      <point x="23" y="475" type="curve" smooth="yes"/>
      <point x="23" y="451"/>
      <point x="26" y="436"/>
      <point x="46" y="433" type="curve"/>
      <point x="45" y="502"/>
      <point x="66" y="517"/>
      <point x="115" y="517" type="curve" smooth="yes"/>
      <point x="166" y="517"/>
      <point x="201" y="455"/>
      <point x="241" y="396" type="curve" smooth="yes"/>
      <point x="277" y="342"/>
      <point x="302" y="297"/>
      <point x="340" y="279" type="curve"/>
      <point x="259" y="271"/>
      <point x="233" y="254"/>
      <point x="208" y="203" type="curve" smooth="yes"/>
      <point x="152" y="94" type="line" smooth="yes"/>
      <point x="115" y="23"/>
      <point x="84" y="30"/>
      <point x="37" y="30" type="curve" smooth="yes"/>
      <point x="16" y="30" type="line"/>
    </contour>
  </outline>
</glyph>
<glyph name="afii10073" format="2">
  <advance width="560"/>
  <unicode hex="0437"/>
  <anchor x="276" y="0" name="bottom"/>
  <anchor x="282" y="536" name="top"/>
  <outline>
    <contour>
      <point x="286" y="-10" type="curve" smooth="yes"/>
      <point x="435" y="-10"/>
      <point x="483" y="77"/>
      <point x="483" y="151" type="curve" smooth="yes"/>
      <point x="483" y="232"/>
      <point x="438" y="269"/>
      <point x="373" y="287" type="curve"/>
      <point x="373" y="292" type="line"/>
      <point x="420" y="304"/>
      <point x="465" y="330"/>
      <point x="465" y="413" type="curve" smooth="yes"/>
      <point x="465" y="492"/>
      <point x="391" y="543"/>
      <point x="277" y="543" type="curve" smooth="yes"/>
      <point x="196" y="543"/>
      <point x="93" y="518"/>
      <point x="93" y="440" type="curve" smooth="yes"/>
      <point x="93" y="421"/>
      <point x="97" y="410"/>
      <point x="106" y="410" type="curve"/>
      <point x="106" y="478"/>
      <point x="196" y="518"/>
      <point x="281" y="518" type="curve" smooth="yes"/>
      <point x="378" y="518"/>
      <point x="437" y="457"/>
      <point x="437" y="419" type="curve" smooth="yes"/>
      <point x="437" y="329"/>
      <point x="374" y="302"/>
      <point x="310" y="302" type="curve" smooth="yes"/>
      <point x="255" y="302" type="line"/>
      <point x="255" y="277" type="line"/>
      <point x="302" y="277" type="line" smooth="yes"/>
      <point x="392" y="277"/>
      <point x="455" y="242"/>
      <point x="455" y="150" type="curve" smooth="yes"/>
      <point x="455" y="78"/>
      <point x="403" y="15"/>
      <point x="281" y="15" type="curve" smooth="yes"/>
      <point x="182" y="15"/>
      <point x="86" y="56"/>
      <point x="67" y="108" type="curve"/>
      <point x="52" y="111"/>
      <point x="48" y="101"/>
      <point x="48" y="95" type="curve" smooth="yes"/>
      <point x="48" y="62"/>
      <point x="144" y="-10"/>
    </contour>
  </outline>
</glyph>
<glyph name="afii10076" format="2">
  <advance width="666"/>
  <unicode hex="043A"/>
  <anchor x="334" y="0" name="bottom"/>
  <anchor x="334" y="536" name="top"/>
  <outline>
    <contour>
      <point x="33" y="0" type="line"/>
      <point x="318" y="0" type="line"/>
      <point x="318" y="20" type="line"/>
      <point x="283" y="20" type="line" smooth="yes"/>
      <point x="206" y="20"/>
      <point x="200" y="22"/>
      <point x="200" y="92" type="curve" smooth="yes"/>
      <point x="200" y="257" type="line"/>
      <point x="366" y="257"/>
      <point x="417" y="256"/>
      <point x="450" y="194" type="curve" smooth="yes"/>
      <point x="522" y="50" type="line" smooth="yes"/>
      <point x="524" y="52"/>
      <point x="556" y="0"/>
      <point x="642" y="0" type="curve" smooth="yes"/>
      <point x="657" y="0" type="line"/>
      <point x="657" y="30" type="line"/>
      <point x="636" y="30" type="line" smooth="yes"/>
      <point x="589" y="30"/>
      <point x="566" y="23"/>
      <point x="529" y="94" type="curve" smooth="yes"/>
      <point x="473" y="203" type="line" smooth="yes"/>
      <point x="448" y="254"/>
      <point x="422" y="271"/>
      <point x="341" y="279" type="curve"/>
      <point x="379" y="297"/>
      <point x="404" y="342"/>
      <point x="440" y="396" type="curve" smooth="yes"/>
      <point x="486" y="463"/>
      <point x="517" y="517"/>
      <point x="568" y="517" type="curve" smooth="yes"/>
      <point x="627" y="517"/>
      <point x="638" y="488"/>
      <point x="637" y="433" type="curve"/>
      <point x="663" y="438"/>
      <point x="660" y="461"/>
      <point x="660" y="475" type="curve" smooth="yes"/>
      <point x="660" y="515"/>
      <point x="617" y="542"/>
      <point x="580" y="542" type="curve" smooth="yes"/>
      <point x="500" y="542"/>
      <point x="486" y="520"/>
      <point x="430" y="429" type="curve" smooth="yes"/>
      <point x="397" y="378"/>
      <point x="361" y="334"/>
      <point x="345" y="317" type="curve" smooth="yes"/>
      <point x="316" y="285"/>
      <point x="289" y="282"/>
      <point x="200" y="282" type="curve"/>
      <point x="200" y="444" type="line" smooth="yes"/>
      <point x="200" y="511"/>
      <point x="204" y="516"/>
      <point x="275" y="516" type="curve" smooth="yes"/>
      <point x="311" y="516" type="line"/>
      <point x="311" y="536" type="line"/>
      <point x="41" y="536" type="line"/>
      <point x="41" y="516" type="line"/>
      <point x="110" y="516" type="line" smooth="yes"/>
      <point x="165" y="516"/>
      <point x="172" y="512"/>
      <point x="172" y="444" type="curve" smooth="yes"/>
      <point x="172" y="93" type="line" smooth="yes"/>
      <point x="172" y="22"/>
      <point x="170" y="20"/>
      <point x="83" y="20" type="curve" smooth="yes"/>
      <point x="33" y="20" type="line"/>
    </contour>
  </outline>
</glyph>
<glyph name="afii10092" format="2">
  <advance width="717"/>
  <unicode hex="044A"/>
  <anchor x="358" y="0" name="bottom"/>
  <anchor x="358" y="536" name="top"/>
  <outline>
    <contour>
      <point x="134" y="0" type="line"/>
      <point x="442" y="0" type="line" smooth="yes"/>
      <point x="589" y="0"/>
      <point x="650" y="71"/>
      <point x="650" y="162" type="curve" smooth="yes"/>
      <point x="650" y="267"/>
      <point x="561" y="293"/>
      <point x="443" y="293" type="curve" smooth="yes"/>
      <point x="292" y="293" type="line"/>
      <point x="292" y="444" type="line" smooth="yes"/>
      <point x="292" y="512"/>
      <point x="302" y="516"/>
      <point x="359" y="516" type="curve" smooth="yes"/>
      <point x="396" y="516" type="line"/>
      <point x="396" y="536" type="line"/>
      <point x="11" y="536" type="line"/>
      <point x="5" y="382" type="line"/>
      <point x="25" y="382" type="line"/>
      <point x="36" y="525" type="line" smooth="yes"/>
      <point x="37" y="507"/>
      <point x="53" y="511"/>
      <point x="73" y="511" type="curve" smooth="yes"/>
      <point x="264" y="511" type="line"/>
      <point x="264" y="92" type="line" smooth="yes"/>
      <point x="264" y="24"/>
      <point x="258" y="20"/>
      <point x="189" y="20" type="curve" smooth="yes"/>
      <point x="134" y="20" type="line"/>
    </contour>
    <contour>
      <point x="292" y="25" type="line"/>
      <point x="292" y="268" type="line"/>
      <point x="424" y="268" type="line" smooth="yes"/>
      <point x="571" y="268"/>
      <point x="622" y="230"/>
      <point x="622" y="162" type="curve" smooth="yes"/>
      <point x="622" y="71"/>
      <point x="572" y="25"/>
      <point x="387" y="25" type="curve" smooth="yes"/>
    </contour>
  </outline>
</glyph>
<glyph name="afii10095" format="2">
  <advance width="544"/>
  <unicode hex="044D"/>
  <anchor x="273" y="0" name="bottom"/>
  <anchor x="273" y="536" name="top"/>
  <outline>
    <contour>
      <point x="236" y="-2" type="curve" smooth="yes"/>
      <point x="363" y="-2"/>
      <point x="463" y="91"/>
      <point x="463" y="273" type="curve" smooth="yes"/>
      <point x="463" y="435"/>
      <point x="383" y="542"/>
      <point x="259" y="542" type="curve" smooth="yes"/>
      <point x="99" y="542"/>
      <point x="60" y="483"/>
      <point x="60" y="457" type="curve" smooth="yes"/>
      <point x="60" y="432"/>
      <point x="77" y="422"/>
      <point x="83" y="422" type="curve"/>
      <point x="83" y="490"/>
      <point x="171" y="517"/>
      <point x="243" y="517" type="curve" smooth="yes"/>
      <point x="320" y="517"/>
      <point x="425" y="480"/>
      <point x="433" y="279" type="curve"/>
      <point x="147" y="279" type="line"/>
      <point x="147" y="254" type="line"/>
      <point x="433" y="254" type="line"/>
      <point x="435" y="197"/>
      <point x="397" y="23"/>
      <point x="236" y="23" type="curve" smooth="yes"/>
      <point x="103" y="23"/>
      <point x="86" y="63"/>
      <point x="101" y="138" type="curve"/>
      <point x="80" y="143"/>
      <point x="53" y="136"/>
      <point x="53" y="107" type="curve" smooth="yes"/>
      <point x="53" y="66"/>
      <point x="63" y="-2"/>
    </contour>
  </outline>
</glyph>
